<svg enable-background="new 0 0 46.8 21.4" viewBox="0 0 46.8 21.4" xmlns="http://www.w3.org/2000/svg"><g enable-background="new" fill="#fff"><path d="m3.5 14.3h5.7v1.9h-7.9v-13.5h2.2z"/><path d="m18.1 10.2h-5.1v4.1h6v1.9h-8.2v-13.5h8.2v1.9h-6v3.7h5.1z"/><path d="m23.1 16.2h-2.2v-13.5h2.2z"/><path d="m35.3 11.8c-.1 1.4-.6 2.6-1.5 3.4s-2 1.2-3.4 1.2c-1 0-1.9-.3-2.6-.8-.8-.5-1.3-1.2-1.8-2.2-.4-.9-.6-2-.6-3.3v-1.2c0-1.3.2-2.4.6-3.4s1-1.7 1.8-2.2 1.7-.8 2.7-.8c1.4 0 2.5.4 3.3 1.2s1.3 1.9 1.5 3.4h-2.2c-.1-1-.4-1.7-.8-2.1s-1-.6-1.9-.6-1.7.4-2.2 1.1-.8 1.8-.8 3.3v1.2c0 1.5.2 2.6.7 3.3.5.8 1.2 1.1 2.1 1.1s1.5-.2 1.9-.6.7-1.1.8-2.1h2.4z"/><path d="m44.3 13.1h-4.9l-1 3.1h-2.3l4.7-13.5h2l4.7 13.5h-2.3zm-4.3-1.9h3.6l-1.8-5.6z"/></g></svg>