<svg enable-background="new 0 0 138.7 78.8" viewBox="0 0 138.7 78.8" xmlns="http://www.w3.org/2000/svg" xmlns:xlink="http://www.w3.org/1999/xlink"><clipPath id="a"><path d="m123.5 0 26.9 78.8h-163.8l26.9-78.8z"/></clipPath><g clip-path="url(#a)"><path d="m56.5 34.3h13.5l-6.3-9.5zm31.7-12.6 2.3 21h-5l-1.7-21zm-16.8 14.8h-16.5l-4.8 6.2h-4.7l16.6-21h4.6l14.4 21h-5.4zm-33.5 16.1h63.4c.3 0 .5 0 .8-.1l.6-.3c.2-.1.3-.3.4-.5s.1-.4.1-.5l-5.7-35c0-.1-.1-.3-.2-.4s-.3-.2-.4-.3c-.2-.1-.4-.2-.6-.2-.2-.1-.4-.1-.7-.1h-52.3c-.2 0-.4 0-.7.1-.2 0-.4.1-.6.2s-.3.2-.4.3-.2.2-.2.4l-5.3 35c0 .2 0 .4.1.5.1.2.2.3.4.5.2.1.4.2.6.3s.5.1.7.1" fill="#6898c9"/><g fill="#fff"><path d="m95.6 15.2c.2 0 .4 0 .7.1.2 0 .4.1.6.2s.3.2.4.3.2.2.2.4l5.7 35c0 .2 0 .4-.1.5-.1.2-.2.3-.4.5-.2.1-.4.2-.6.3s-.5.1-.8.1h-63.4c-.3 0-.5 0-.8-.1-.2-.1-.4-.2-.6-.3s-.3-.3-.4-.5-.1-.4-.1-.5l5.3-35c0-.1.1-.3.2-.4s.3-.2.4-.3c.2-.1.4-.2.6-.2.2-.1.4-.1.7-.1zm-58 39.5h64c.7 0 1.4-.1 2.1-.3.6-.2 1.1-.4 1.6-.8.4-.3.8-.7 1-1.1s.3-.9.2-1.4l-.7-3.7-.3-2-.7-4.1-.3-1.8-.7-3.8-.3-1.7-.7-3.6-.3-1.6-.6-3.4-.3-1.5-.6-3.3-.3-1.5-.5-2.9c-.1-.4-.3-.7-.5-.9-.3-.3-.7-.6-1.1-.8-.5-.2-1-.4-1.5-.5-.6-.1-1.1-.2-1.7-.2h-51.9c-.6 0-1.2.1-1.7.3-.5.1-1 .3-1.5.5-.4.2-.8.4-1.1.8-.3.3-.4.6-.5.9l-.5 2.7-.2 1.5-.5 3.3-.3 1.6-.6 3.5-.3 1.6-.6 3.6-.3 1.7-.7 3.8-.3 1.8-.7 4.1-.3 2-.6 3.7c-.1.5 0 .9.2 1.4s.6.8 1 1.1c.5.3 1 .6 1.6.8.7.2 1.4.3 2 .2"/><path d="m63.7 24.8 6.3 9.5h-13.5zm-18.3 18h4.7l4.8-6.2h16.5l4.1 6.2h5.5l-14.4-21h-4.6z"/><path d="m85.4 42.7h5l-2.2-21h-4.5z"/></g></g><path d="m95.6 1.7h.5c.2 0 .3.1.4.1.2.2.3.2.4.3s.1.2.2.3v.2c0 .1-.1.1-.2.2s-.2.1-.3.1c-.1.1-.2.1-.3.1h-.8c-.1 0-.3 0-.4-.1-.1 0-.2-.1-.3-.1-.1-.1-.2-.1-.2-.2-.1-.1-.1-.1-.1-.2s0-.2.1-.2c0-.2.1-.2.2-.3s.3-.1.4-.1.3-.1.4-.1m-6.6 12h2.7l-.2-1.6h-1l-.4-3.4 6.5-3.5-.3-2c.2 0 .4-.1.5-.1s.2-.1.4-.1c.1-.1.2-.1.2-.2.1-.1.1-.2.1-.3s-.1-.2-.2-.3c-.2-.2-.3-.3-.5-.4s-.4-.1-.6-.2c-.2 0-.5-.1-.7-.1s-.4 0-.7.1c-.2 0-.4.1-.5.2s-.2.2-.3.3c0 .1-.1.2 0 .3 0 .1.1.2.2.3s.2.2.3.2c.1.1.3.1.5.2s.4.1.6.1l.3 1.9-6.6 3.5.4 3.5h-.9zm-9.4-5.9h.3.3l.2.1c.1 0 .2 0 .2.1.1 0 .2.1.3.2 0 0 .1.1.1.2v.2c0 .1-.1.2-.1.2s0 0-.1 0h-.1-.1v.2h-.1-.1-.2-.2-.2-.4-.3c-.1 0-.2 0-.3 0s-.2 0-.2-.1h.1-.1-.1.1c-.1-.1-.2-.1-.3-.2s-.1-.2-.1-.3 0-.2.1-.3.2-.2.3-.2.1-.1.2-.1l.2-.1h.2zm1.5 6h2.7l-.1-1.6h-.9l-.2-2.7-1.3-.6c.1-.1.2-.2.2-.3s0-.2 0-.3-.1-.2-.2-.3c-.2-.2-.5-.3-.7-.3l-.3-.1h-.3-.3-.3-.3l-.3.1c-.1 0-.2.1-.3.1-.1.1-.3.2-.4.3-.2.2-.2.5 0 .7.1.1.3.2.4.3s.2.1.3.1l.2.1c.1 0 .2 0 .3.1h.3.2.2l.2-.1.2-.1 1 .5.2 2.5h-.9zm-4.1-12.4h-.8c-.1 0-.3 0-.4-.1-.1 0-.2-.1-.3-.1 0-.1 0-.1-.1-.2 0-.1-.1-.1-.1-.2s0-.2.1-.2c.1-.1.2-.1.3-.2s.3-.1.4-.1c.3-.1.7-.1 1 0 .1 0 .3.1.4.1.1.1.2.1.3.2.2 0 .2.1.2.2v.2c0 .1-.1.1-.2.2s-.2.1-.3.1-.2.1-.4.1m-5.7 12.4h2.6v-1.6h-.9l-.2-6.6 4.4-2.2-.1-1.7c.2 0 .4 0 .5-.1.1 0 .3-.1.4-.2s.2-.1.3-.2.1-.2.1-.3-.1-.2-.2-.3-.2-.2-.4-.3-.4-.1-.6-.2c-.1-.1-.4-.1-.6-.1s-.4 0-.7.1c-.2 0-.4.1-.5.2s-.3.2-.4.3c0 0-.1.1-.1.2s0 .2.1.3.2.2.3.2c.1.1.3.1.4.2.2.1.4.1.5.1l.1 1.6-4.4 2.2.2 6.8h-.9zm-3.4-10.9c.2 0 .4 0 .6.1.1 0 .3.1.4.1.1.1.2.1.3.2s.1.2.1.2c0 .1 0 .2-.1.2 0 .2-.1.3-.2.3-.1.1-.2.1-.3.1l-.4.1h-.8c-.1 0-.3-.1-.4-.1s-.2-.1-.4-.1c-.1-.1-.1-.1-.2-.2 0-.1-.1-.1-.1-.2s0-.2.1-.2c.1-.1.2-.2.3-.2.3-.1.4-.2.6-.2s.3 0 .5-.1m-4.6 10.9h2.6v-1.6h-.9l.1-4.4 3.1-1.6v-1.8c.2 0 .4-.1.6-.1s.3-.1.4-.2c.2-.1.3-.1.3-.2.1-.1.1-.2.1-.3s-.1-.2-.1-.3c-.1-.1-.2-.2-.4-.2-.2-.1-.4-.1-.6-.2-.4-.1-.9-.1-1.4 0-.2 0-.4.1-.6.2-.1.1-.3.2-.4.3s-.1.2-.1.3 0 .2.1.3.2.2.3.2c.1.1.3.1.4.2.2.1.4.1.6.1v1.5l-3.1 1.6-.1 4.6h-1zm-9.6-12h.5c.1 0 .3.1.4.1.2.1.3.2.3.2.1.1.1.2.1.2 0 .1 0 .2-.1.2-.1.1-.1.1-.2.2s-.2.1-.3.2-.3.1-.4.1h-.8c-.1 0-.3 0-.4 0s-.2-.1-.3-.2c-.1 0-.1-.1-.2-.2 0-.1 0-.1 0-.2s0-.2.1-.3c.2 0 .3-.1.4-.1.1-.1.3-.1.4-.1.2-.1.4-.1.5-.1m1.3 12h2.7l.1-1.6h-.9l.2-3.4-3.3-2.7.2-2.9c.2 0 .4-.1.6-.1s.3-.1.4-.2.2-.1.3-.2.1-.2.1-.3 0-.2-.1-.3-.2-.2-.4-.2c-.2-.1-.4-.1-.5-.2-.2-.1-.4-.1-.7-.1-.2 0-.5 0-.7.1-.2 0-.4.1-.6.2-.1.1-.3.1-.4.3 0 0-.1.1-.1.3 0 .1 0 .2.1.3s.2.2.3.2c.1.1.3.1.4.2.2 0 .4.1.5.1l-.3 3 3.4 2.7-.2 3.2h-.9zm-8 0h2.7l.2-1.6h-.9l.3-2.9-5-2.7.7-4.7h.2c.2 0 .3-.1.5-.1.1 0 .3-.1.4-.2s.2-.1.3-.2.1-.2.1-.4c0-.1 0-.2-.1-.3s-.2-.2-.3-.3c-.2-.1-.3-.1-.5-.2-.2 0-.4-.1-.6 0-.2 0-.5 0-.7.1-.2 0-.4.1-.6.2s-.3.2-.4.3-.2.2-.2.3 0 .2.1.3.2.2.2.2c.1.1.3.1.4.2.2.1.3.1.5.1v-.3l-.4-.1c-.1 0-.2-.1-.3-.1s-.1-.1-.1-.2 0-.2 0-.2c0-.1 0-.2.1-.2.1-.1.2-.1.3-.2s.3-.1.4-.1h.5.5c.1 0 .3.1.4.1s.2.1.3.2.1.1.1.2-.1.1-.1.2c-.1.1-.1.1-.2.2s-.2.1-.3.1l-.4.1h-.5-.1v.2h-.2l-.7 4.9 5 2.7-.3 2.8h-.9zm77.9 2.1c.2 0 .4 0 .5.1.2 0 .3.1.5.1.1.1.3.1.4.2s.2.2.2.3v.3c0 .1-.1.2-.2.2-.1.1-.2.1-.4.1s-.3.1-.5.1c-.1 0-.3 0-.4 0s-.3-.1-.4-.1-.2-.1-.4-.2c-.1-.1-.2-.1-.2-.2v-.1s0 0 0-.1 0 0 0-.1.1-.1.1-.2c.1-.1.2-.1.2-.1s.1-.1.1-.1c.2-.1.4-.1.5-.2m-24 4.7h5l-.1-.6h8.6l4.2-3.1h4.9c.1.1.2.2.3.3s.3.2.5.2c.2.1.4.1.6.1s.4.1.6.1.4 0 .7-.1c.2 0 .3-.1.5-.2.1-.1.2-.2.3-.3s.1-.3 0-.4-.1-.3-.2-.4-.3-.2-.5-.3-.4-.1-.6-.2-.5-.1-.7-.1-.4 0-.6.1c-.2 0-.3.1-.5.1-.1.1-.2.1-.3.2s-.1.2-.1.3h-5.3l-4.2 3.1h-8.2l-.1-.4h-4.9zm-90.6-4.6h.5c.1 0 .2.1.4.1.1 0 .2.1.3.2s.1.1.1.2v.1.1s0 0 0 0v.1c-.1.1-.2.2-.3.2-.1.1-.2.1-.4.2-.1.1-.3.1-.5.1s-.3 0-.5 0-.4 0-.5-.1c-.1 0-.3-.1-.4-.2s-.2-.1-.2-.2 0-.2 0-.3.1-.2.2-.3.3-.2.4-.2c.1.1.3 0 .4 0 .2 0 .4-.1.6-.1m22.6 4.5h5.1l.1-1.4h-5l-.1.5h-5.5l-4.9-3h-10.8c0-.1-.1-.2-.1-.3-.1-.1-.2-.2-.3-.2-.2-.1-.3-.1-.5-.2-.2 0-.4-.1-.6-.1-.3 0-.5 0-.8.1-.2 0-.5.1-.7.2s-.4.2-.5.3-.2.2-.3.4c-.1.1-.1.3 0 .4s.2.2.3.3c.2.1.4.2.5.2.2.1.5.1.7.1s.4 0 .7-.1c.2 0 .4-.1.6-.2s.3-.1.5-.2l.3-.3h10.4l4.9 3h5.9l-.1.5m95.8 5.7v.1.1l.1.1h-.1v-.1-.1zm2.2 1c.2 0 .5 0 .7-.1.2 0 .4-.1.5-.2s.2-.2.3-.3.1-.3 0-.4c-.1-.2-.1-.3-.3-.4-.1-.1-.3-.2-.5-.3s-.4-.2-.7-.2c-.2-.1-.5-.1-.8-.1-.2 0-.4 0-.6.1-.2 0-.3.1-.5.2-.1.1-.2.1-.3.2s-.1.2-.1.3h-3.9l-5.8-1.9h-12.3v-.2h-5.1l.3 1.6h5.1l-.2-.9h12.1l5.8 1.9h4.6v-.1-.1-.1-.1s0 0 0-.1c0 0 0 0 0-.1v-.1s0 0 0-.1.1-.2.1-.2c.1-.1.2-.1.2-.2.1 0 .2-.1.4-.1h.4c.2 0 .4 0 .6.1.2 0 .3.1.5.2.1.1.3.1.4.2s.2.2.2.3v.3c0 .1-.1.2-.2.2-.1.1-.3.1-.4.2-.2 0-.4.1-.5.1-.2 0-.3 0-.5 0-.1 0-.3-.1-.4-.1s-.2-.1-.4-.2c-.1-.1-.2-.1-.3-.2h-.3c.1.1.2.2.3.3.2.1.3.2.5.2.2.1.4.1.6.2.2 0 .4.1.6.1m-116.5-.5s0 .1 0 0v.1.1c-.1.1-.2.2-.3.2-.1.1-.3.1-.4.2-.2.1-.3.1-.5.1s-.3 0-.5 0-.4 0-.6-.1c-.2 0-.3-.1-.4-.2s-.2-.2-.2-.3 0-.2 0-.3c.1-.1.1-.2.2-.3s.3-.2.4-.3c.2-.1.4-.1.5-.2.2 0 .4-.1.6-.1m-.1.3h.5c.1 0 .3.1.4.1s.2.1.3.2.1.1.1.2v.1.1m-1.7 1.3c.2 0 .5 0 .7-.1.2 0 .4-.1.6-.2s.4-.2.5-.3.3-.2.4-.4h4l4-1.9h9.3l-.1.5h5.2l.3-1.6h-5.3l-.1.6h-9.6l-4 1.9h-3.6c0-.1-.1-.2-.2-.3s-.2-.2-.4-.3-.3-.1-.5-.2c-.2 0-.4-.1-.7-.1s-.5 0-.8.1c-.2.1-.5.1-.7.2s-.4.2-.5.4c-.1.1-.2.3-.3.4s-.1.3 0 .4.2.3.3.4c.2.1.4.2.6.2.2.1.5.1.8.1m100.8 1.8-.1.1m-1.5-1.7h.3.3l.3.1.2.1c.1.1.3.2.4.3s.2.2.2.3v.3c-.1.1-.1.2-.2.3l-.2.1-.2.1h-.2-.4-.2-.2-.2-.1-.1-.1-.1-.1-.1l-.2-.2h-.1c-.1-.1-.1-.2-.2-.2 0-.1-.1-.2-.1-.2 0-.1 0-.2.1-.2.1-.1.1-.2.2-.2s.1-.1.2-.1l.2-.1h.2.3m-9.1 2.4h5.3l-.1-.6h2.7l.6-.4.2.1h.3.3.2.4c.2 0 .4-.1.6-.2.1 0 .2-.1.3-.1.1-.1.3-.2.3-.4 0-.1 0-.3 0-.4 0-.2-.1-.3-.2-.4s-.3-.3-.5-.4l-.3-.1c-.1 0-.2-.1-.3-.1s-.2-.1-.3-.1h-.4-.4c-.1 0-.2 0-.3.1-.1 0-.2.1-.3.1s-.2.1-.3.1c-.1.1-.2.2-.3.3s-.1.2-.1.3 0 .2.1.4c.1.1.2.2.3.3l-.4.2h-2.3l-.1-.6h-5.2zm-98 1.2h.5c.1 0 .3.1.4.1.1.1.2.1.3.2s.1.2.1.3v.1.1.1.1.1.1.1.1c-.1.1-.2.2-.3.3s-.3.2-.4.2c-.2.1-.3.1-.5.1s-.4 0-.5 0c-.2 0-.4 0-.7 0-.2 0-.3-.1-.4-.2-.2-.4-.3-.5-.3-.6s0-.2 0-.3c.1-.1.1-.3.2-.4s.3-.2.4-.3c.2-.1.4-.1.6-.2.2 0 .5-.1.6 0m-.6 2c.2 0 .5 0 .7-.1.2 0 .5-.1.7-.2s.4-.2.5-.3.3-.2.4-.4h4.2l6-3h14.5l-.1.7h5.3l.3-1.6h-5.3l-.1.6h-14.8l-6 2.9h-3.8c0-.1-.1-.3-.1-.4-.1-.1-.2-.2-.4-.3s-.3-.1-.5-.2c-.2 0-.4-.1-.7-.1s-.6 0-.8.1c-.3.1-.5.1-.7.3-.2.1-.4.2-.6.4-.1.1-.3.3-.3.5-.1.1-.1.3 0 .5s.2.3.3.4l.6.3c.1-.1.4 0 .7-.1m18.4-1.3h.3.3l.2.1.2.1c.1.1.2.1.2.2s.1.2.1.3 0 .2-.1.3-.1.2-.2.3l-.1.1h-.1l-.1.1h-.1-.1-.1-.1-.2-.2-.2-.2-.3-.3l-.3-.1-.1.2h-.1c-.1-.1-.2-.2-.3-.3 0-.1 0-.2 0-.3s.1-.3.2-.3c.1-.1.3-.2.4-.3l.3-.1.3-.1h.3zm7.3 3.5h5.5l.3-1.7h-5.4l-.1.6h-5.3l-1-.7c.1-.1.3-.2.4-.4.1-.1.1-.3.1-.4s0-.3-.1-.4-.2-.3-.3-.3c-.1-.1-.2-.1-.3-.2l-.3-.1c-.1 0-.2-.1-.4-.1-.1 0-.3 0-.4 0s-.3 0-.4 0-.3 0-.4.1l-.4.1-.3.2c-.2.1-.4.2-.5.4-.1.1-.2.3-.3.5-.1.1-.1.3 0 .5s.2.3.4.4c.1.1.2.1.3.2l.3.1.4.1h.4.3.3.3l.3-.1 1.2.8h5.6zm99.9.1c.2 0 .4 0 .6.1.2 0 .4.1.5.2s.3.2.4.3.2.2.2.3v.3c0 .1-.1.2-.2.3s-.3.2-.4.2c-.2 0-.4.1-.6.1s-.3 0-.5 0-.3-.1-.4-.1c-.1-.1-.3-.1-.4-.2s-.2-.1-.3-.2v-.1s0 0 0-.1c0 0 0 0 0-.1 0 0 0 0 0-.1 0 0 0 0 0-.1 0 0 0 0 0-.1 0 0 0 0 0-.1 0 0 0 0 0-.1s.1-.2.1-.2c.1-.1.2-.1.3-.2s.2-.1.4-.1h.5m.5 2c.2 0 .5 0 .7-.1.2 0 .4-.1.6-.2.1-.1.2-.2.3-.4.1-.1.1-.3 0-.5s-.2-.3-.3-.4c-.2-.1-.3-.3-.5-.4s-.5-.2-.7-.2c-.3-.1-.5-.1-.8-.1-.2 0-.4 0-.6.1-.2 0-.3.1-.5.2-.1.1-.2.2-.3.3s-.1.2-.1.3h-4l-4.8-1.7h-10.4l-.1-.6h-5.4l.3 1.7h5.4l-.1-.7h10.1l4.9 1.8h4.2c.1.1.2.3.4.3.2.1.3.2.5.3s.4.1.6.2c.1.1.3.1.6.1m-125.2 2.6h.1zm2.7.4c-.1.1-.2.1-.3.1l-.3.1h-.3-.4-.3-.3l-.3-.1c-.1 0-.2-.1-.2-.1l-.1-.1-.1-.1v-.1-.1c0-.1 0-.2 0-.2 0-.1.1-.2.1-.2.1-.1.1-.2.2-.2.1-.1.2-.1.3-.2l.3-.1.3-.1h.3.3.2.2.2.2.1.1.1.1.1.1v.1.1c.1.1.1.2.1.3s0 .2-.1.3-.2.2-.2.3c-.1.1-.2.2-.4.3m-1.4.4h.4c.1 0 .3 0 .4-.1.1 0 .3-.1.4-.1l.4-.2c.2-.1.4-.2.5-.4.1-.1.2-.3.3-.4s.1-.3.1-.4-.1-.3-.2-.4l5.1-2.6h1.5l5.2 3.7h8.2l-.1.6h5.7l.3-1.8h-5.6l-.1.7h-7.8l-5.2-3.7h-2.3l-5.4 3-.2-.1-.3-.1h-.2-.3-.4l-.4.1c-.1 0-.3.1-.4.1l-.4.2c-.2.1-.4.3-.6.4-.1.1-.2.3-.3.5v.5c.1.2.2.3.3.4s.2.1.3.2.2.1.3.1.3.1.4.1h.4m114.2-.8h.3.3c.1 0 .2 0 .2.1.1 0 .2.1.3.1.2.1.3.2.4.3s.2.2.2.3v.3c-.1.1-.1.2-.2.3-.1 0-.1.1-.2.1s-.2.1-.2.1h-.3-.3-.3-.3c-.1 0-.2 0-.3-.1l-.3-.1c-.1-.1-.2-.1-.4-.2-.1-.1-.2-.2-.2-.3s-.1-.2-.1-.3 0-.2.1-.3l.1-.1.1-.1h.1l.1-.1h.1.1.1.1.2.2.2.2m.3 2.4h.4l.4-.1c.1 0 .2-.1.3-.1s.2-.1.3-.2.3-.2.3-.4c.1-.1.1-.3 0-.5s-.2-.3-.3-.5c-.2-.2-.3-.3-.5-.4l-.4-.2-.4-.1c-.1 0-.3-.1-.4-.1s-.3 0-.4 0h-.3c-.1 0-.2 0-.2 0h-.2l-.2.1-1-.5h-8.7l-.1-.6h-5.5l.3 1.8h5.6l-.2-.7h8.2l.7.4c-.1.1-.1.2-.2.4 0 .1 0 .3.1.4s.2.3.3.4.3.2.5.3c.1.1.2.1.4.2.1 0 .3.1.4.1l.4.1zm15 5.1c.2 0 .4 0 .6.1.2 0 .4.1.6.2s.3.2.4.3.2.2.3.4v.4c0 .1-.1.2-.2.3s-.3.2-.4.2c-.2.1-.4.1-.6.1s-.4 0-.5 0c-.2 0-.3-.1-.5-.1-.1-.1-.3-.1-.4-.2s-.2-.2-.3-.3l-.1-.1v-.1-.1-.1-.1-.3-.1s0 0 0-.1.1-.2.1-.3c.1-.1.2-.2.3-.2.1-.1.3-.1.4-.2h.5m.6 2.4c.3 0 .5 0 .8-.1.2-.1.4-.1.6-.3.1-.1.3-.2.3-.4.1-.2.1-.3 0-.5s-.2-.4-.3-.5c-.2-.2-.4-.3-.6-.4s-.5-.2-.8-.3-.6-.1-.8-.1-.5 0-.7.1c-.2 0-.4.1-.5.2s-.3.2-.4.3-.1.2-.1.4h-9.6l-5-2.7h-8.7l-.1-.7h-5.7l.3 2h5.8l-.1-.7h8.4l5 2.7h10c.1.1.2.3.4.4s.4.2.6.3.4.2.7.2c0 .1.3.2.5.1m-134.4.5c.2 0 .4 0 .5.1.1 0 .3.1.4.2s.2.1.3.2.1.2.1.3v.1.1.1.1.1.1.1.1c-.1.1-.2.2-.3.3-.2 0-.4.1-.5.1-.2.1-.4.1-.5.2-.2 0-.4.1-.6.1s-.4 0-.6-.1-.3-.1-.5-.2c-.1-.1-.2-.2-.3-.3 0-.1 0-.3 0-.4 0-.3.1-.5.3-.6.1-.1.3-.3.5-.3.2-.1.4-.2.6-.2.2-.1.4-.1.6-.2m-.7 2.6c.3 0 .5 0 .8-.1s.5-.1.7-.2.4-.2.6-.4c.2-.1.3-.3.4-.5h5.4l10.3-5.6h7.6l-.1.7h5.8l.3-2h-5.8l-.1.7h-8l-10.3 5.6h-5c0-.2-.1-.3-.2-.5-.1-.1-.2-.2-.4-.3s-.4-.2-.6-.2c-.2-.1-.5-.1-.7-.1-.6 0-1.2.1-1.7.4-.2.1-.5.3-.6.5-.2.2-.3.3-.4.6-.1.2-.1.4 0 .6s.2.3.3.5c.2.1.4.3.6.3.3.1.6.1.9.1m61.4 10.9-.3.1c-.2.1-.4.1-.6.2h-.3-.3c-.1 0-.2 0-.3-.1-.1 0-.2-.1-.3-.1s-.2-.1-.3-.1c-.1-.1-.3-.2-.4-.4-.1-.1-.1-.3-.1-.4s.1-.3.1-.4c.1-.2.2-.3.4-.4.1-.1.2-.1.3-.1s.2-.1.3-.1l.3-.1h.3.2.2.2.2.1.1.1l.1.1s.1 0 .1.1c0 0 .1 0 .1.1 0 0 0 0 .1.1l.1.1c.1.1.1.2.2.3v.3c0 .1-.1.2-.2.3s-.2.2-.3.3m-1.3.7h.4l.4-.1.4-.1c.1-.1.2-.1.3-.2.2-.1.3-.2.4-.4.1-.1.2-.3.2-.5s0-.3 0-.5-.1-.3-.3-.5l.8-.6.1-5h1.2v-2.8h-3.3l-.1 2.8h1.1l-.1 4.7-.5.3-.3-.1-.3-.1h-.3-.3-.4l-.4.1c-.1 0-.3.1-.4.1-.1.1-.2.1-.3.2-.2.1-.4.3-.5.5s-.2.4-.2.5c0 .2 0 .4.1.6s.3.4.5.5c.1.1.2.1.3.2l.4.1.4.1c.4.3.5.3.7.2m26.4-.9h.3c.1 0 .2 0 .3.1.1 0 .2.1.3.1s.2.1.3.1c.2.1.3.2.4.4.1.1.2.3.2.4 0 .2 0 .3-.1.4-.1.2-.2.3-.3.4s-.2.1-.3.2l-.3.1c-.1 0-.2.1-.3.1-.2 0-.4 0-.7 0-.1 0-.2 0-.3-.1l-.3-.1c-.1 0-.2-.1-.3-.2s-.2-.2-.3-.3-.1-.2-.2-.3c0-.1 0-.2 0-.4 0-.1.1-.2.1-.3v-.1l.1-.1.1-.1.1-.1.1-.1.1-.1h.1.1.2.2.2zm.2 2.8h.4l.4-.1c.1 0 .3-.1.4-.1.1-.1.2-.1.3-.2.2-.1.3-.3.4-.5s.1-.4.1-.6-.1-.4-.2-.6-.3-.4-.5-.5c-.1-.1-.2-.1-.4-.2-.1-.1-.3-.1-.4-.1s-.3-.1-.4-.1-.3 0-.4 0h-.3l-.3.1-.3.1-.3.1-.8-.5-.3-6.2h1l-.2-2.8h-3.3l.2 2.8h1.3l.5 6.5 1.1.7c-.1.1-.2.3-.2.5v.5c0 .2.1.3.2.5s.3.3.5.4c.1.1.2.1.4.2l.4.1.4.1s.2 0 .3-.1m13.8 4.7h.3.1.1c.2 0 .4.1.5.2.2.1.3.2.4.3l.3.3c.1.1.1.3.2.4 0 .2 0 .3-.1.5s-.2.3-.3.4c-.2.1-.3.2-.5.3s-.4.1-.7.1c-.5 0-.9-.1-1.3-.4-.2-.1-.3-.2-.4-.4-.1-.1-.2-.3-.2-.5 0-.1 0-.3 0-.4s.1-.2.2-.3l.3-.3c.1-.1.3-.1.5-.2h.1.1zm.4 2.9c.3 0 .6 0 .9-.1.2-.1.5-.2.7-.3s.3-.3.4-.5.1-.4.1-.6-.1-.4-.2-.5c-.1-.2-.3-.3-.4-.5-.4-.3-.9-.5-1.3-.6l-.7-4.6-5.1-3.1-.8-6.1h1l-.4-2.9h-3.3l.3 2.8h1.3l.8 6.4 5 3.1.6 4.3c-.2 0-.5.1-.7.2s-.4.2-.5.3-.2.3-.3.5-.1.4-.1.5c0 .2.1.4.3.6s.3.4.6.5c.2.2.5.3.8.3.3.2.6.3 1 .3m-68.4-2.3h.3.1.1c.2 0 .3.1.5.2l.3.3c.1.1.2.2.2.3v.4c0 .2-.1.3-.2.5s-.3.3-.4.4c-.2.1-.4.2-.6.3s-.5.1-.7.1-.5 0-.7-.1-.4-.1-.5-.3c-.1-.1-.2-.2-.3-.4s-.1-.3-.1-.5c0-.1.1-.3.2-.4l.3-.3c.1-.1.3-.2.4-.3.2-.1.3-.1.5-.2h.1.1zm-.5 2.9c.3 0 .6 0 .9-.1s.5-.2.8-.3c.2-.1.4-.3.6-.5.1-.2.2-.4.3-.6 0-.2 0-.4-.1-.5-.1-.2-.2-.3-.3-.5-.1-.1-.3-.3-.5-.3-.2-.1-.4-.2-.7-.2l.4-2.9 7.9-4.3.8-7.3h1.1l.3-2.8h-3.2l-.3 2.8h1.1l-.8 6.9-7.9 4.3-.4 3.1c-.2 0-.5.1-.7.2s-.4.2-.6.3-.3.3-.4.5-.2.3-.2.5 0 .4.1.6.2.4.4.5c.2.2.4.3.7.3.1.2.4.3.7.3m34.6-2.2h.1.1.1.1c.2 0 .3.1.5.2.1.1.3.2.4.3l.3.3c.1.1.1.3.1.4 0 .2-.1.3-.1.5-.1.2-.2.3-.4.4s-.4.2-.6.3-.5.1-.7.1-.5 0-.7-.1-.4-.2-.6-.3c-.1-.1-.3-.2-.4-.4-.1-.1-.1-.3-.1-.5 0-.1 0-.3.1-.4s.1-.2.2-.3.2-.2.4-.3.3-.1.5-.2h.1.1.1zm0 2.9c.3 0 .6 0 .9-.1s.5-.2.8-.3c.2-.1.4-.3.5-.5s.2-.4.2-.6 0-.4-.1-.5c-.1-.2-.2-.3-.4-.5-.2-.1-.4-.3-.6-.3-.2-.1-.5-.2-.7-.2v-1.9l6.6-4.6-.3-8.7h1.2l-.1-2.8h-3.3l.1 2.8h1.2l.2 8.4-6.7 4.3v2.2c-.2 0-.5.1-.7.2s-.4.2-.6.3-.3.3-.4.5-.1.4-.1.5c0 .2.1.4.2.6s.3.4.5.5c.2.2.5.3.7.3.3.3.6.3.9.4m-11.4 0h.3.1.1c.2 0 .3.1.5.2.1.1.3.2.4.3s.2.2.2.3c.1.1.1.3.1.4 0 .2-.1.4-.2.5-.1.2-.2.3-.4.4s-.4.2-.6.3-.5.1-.7.1-.5 0-.7-.1-.4-.2-.6-.3c-.1-.1-.3-.3-.4-.4-.1-.2-.1-.3-.1-.5 0-.1.1-.3.1-.4.1-.1.2-.3.3-.3.1-.1.3-.2.4-.3.2 0 .3-.1.5-.1h.1.1zm-.1 3c.3 0 .6 0 .9-.1s.5-.2.8-.4c.2-.1.4-.3.5-.5s.2-.4.2-.7c0-.2 0-.4-.1-.6s-.2-.3-.4-.5c-.2-.1-.3-.3-.6-.4-.2-.1-.5-.2-.7-.2l.2-3.7-4-4.5.6-9.9h1.1l.2-2.8h-3.3l-.2 2.8h1.2l-.7 10.2 4 4.5-.2 3.3c-.2 0-.5.1-.7.2s-.4.2-.6.4c-.2.1-.3.3-.4.5s-.1.4-.2.6c0 .2 0 .5.1.7s.3.4.5.5c.2.2.5.3.7.4.3.1.6.1.9.1" fill="#fff"/></svg>