<svg viewBox="0 0 382.12 254.66" xmlns="http://www.w3.org/2000/svg"><g fill="#1ed4fc"><path d="m31.89 151.66a4.19 4.19 0 1 1 -4.19-4.19 4.19 4.19 0 0 1 4.19 4.19z" opacity=".3"/><path d="m30.38 151.66a2.68 2.68 0 1 1 -2.68-2.66 2.69 2.69 0 0 1 2.68 2.66z" opacity=".3"/><path d="m29.49 151.66a1.79 1.79 0 1 1 -1.79-1.78 1.79 1.79 0 0 1 1.79 1.78z"/><path d="m320.33 23.37a4.2 4.2 0 1 1 -4.19-4.19 4.2 4.2 0 0 1 4.19 4.19z" opacity=".3"/><path d="m318.82 23.37a2.68 2.68 0 1 1 -2.68-2.68 2.68 2.68 0 0 1 2.68 2.68z" opacity=".3"/><path d="m317.93 23.37a1.79 1.79 0 1 1 -1.79-1.78 1.79 1.79 0 0 1 1.79 1.78z"/><path d="m366.92 179.86a4.2 4.2 0 1 1 -4.19-4.2 4.2 4.2 0 0 1 4.19 4.2z" opacity=".3"/><path d="m365.41 179.86a2.68 2.68 0 1 1 -2.68-2.69 2.68 2.68 0 0 1 2.68 2.69z" opacity=".3"/><path d="m364.51 179.86a1.79 1.79 0 1 1 -1.78-1.79 1.78 1.78 0 0 1 1.78 1.79z"/><path d="m339.3 165.06a4.2 4.2 0 1 1 -4.19-4.19 4.2 4.2 0 0 1 4.19 4.19z" opacity=".3"/><path d="m337.79 165.06a2.69 2.69 0 1 1 -2.68-2.68 2.68 2.68 0 0 1 2.68 2.68z" opacity=".3"/><path d="m336.89 165.06a1.79 1.79 0 1 1 -1.78-1.78 1.78 1.78 0 0 1 1.78 1.78z"/><path d="m287.44 244.19a4.2 4.2 0 1 1 -4.19-4.19 4.19 4.19 0 0 1 4.19 4.19z" opacity=".3"/><path d="m285.93 244.19a2.69 2.69 0 1 1 -2.68-2.69 2.69 2.69 0 0 1 2.68 2.69z" opacity=".3"/><path d="m285 244.19a1.79 1.79 0 1 1 -1.78-1.79 1.78 1.78 0 0 1 1.78 1.79z"/><path d="m105.22 232.82a4.2 4.2 0 1 1 -4.2-4.2 4.2 4.2 0 0 1 4.2 4.2z" opacity=".3"/><path d="m103.71 232.82a2.69 2.69 0 1 1 -2.69-2.69 2.68 2.68 0 0 1 2.69 2.69z" opacity=".3"/><path d="m102.81 232.82a1.79 1.79 0 1 1 -1.81-1.82 1.79 1.79 0 0 1 1.81 1.82z"/><path d="m48.39 173a1.77 1.77 0 1 1 -1.77-1.77 1.77 1.77 0 0 1 1.77 1.77z" opacity=".3"/><path d="m47.75 173a1.14 1.14 0 1 1 -1.13-1.13 1.14 1.14 0 0 1 1.13 1.13z" opacity=".3"/><path d="m47.37 173a.76.76 0 1 1 -.75-.75.76.76 0 0 1 .75.75z"/><path d="m23.11 70.47a1.77 1.77 0 1 1 -1.77-1.77 1.77 1.77 0 0 1 1.77 1.77z" opacity=".3"/><path d="m22.47 70.47a1.13 1.13 0 1 1 -1.13-1.14 1.14 1.14 0 0 1 1.13 1.14z" opacity=".3"/><path d="m22.09 70.47a.75.75 0 0 1 -.75.75.76.76 0 1 1 .75-.75z"/><path d="m3.54 110.17a1.77 1.77 0 1 1 -1.77-1.77 1.77 1.77 0 0 1 1.77 1.77z" opacity=".3"/><path d="m2.9 110.17a1.13 1.13 0 1 1 -1.13-1.17 1.13 1.13 0 0 1 1.13 1.17z" opacity=".3"/><path d="m2.52 110.17a.75.75 0 0 1 -.75.76.76.76 0 1 1 0-1.51.75.75 0 0 1 .75.75z"/><path d="m74.52 79.43a1.77 1.77 0 1 1 -1.77-1.77 1.77 1.77 0 0 1 1.77 1.77z" opacity=".3"/><path d="m73.89 79.43a1.14 1.14 0 1 1 -1.14-1.13 1.14 1.14 0 0 1 1.14 1.13z" opacity=".3"/><path d="m73.51 79.43a.76.76 0 1 1 -1.51 0 .76.76 0 0 1 1.51 0z"/><path d="m60.94 143.49a1.77 1.77 0 1 1 -1.77-1.77 1.77 1.77 0 0 1 1.77 1.77z" opacity=".3"/><path d="m60.31 143.49a1.14 1.14 0 1 1 -1.14-1.13 1.13 1.13 0 0 1 1.14 1.13z" opacity=".3"/><path d="m59.93 143.49a.76.76 0 1 1 -1.51 0 .76.76 0 0 1 1.51 0z"/><path d="m341.88 25.16a1.77 1.77 0 1 1 -1.77-1.77 1.77 1.77 0 0 1 1.77 1.77z" opacity=".3"/><path d="m341.24 25.16a1.13 1.13 0 1 1 -1.13-1.16 1.13 1.13 0 0 1 1.13 1.16z" opacity=".3"/><path d="m340.86 25.16a.75.75 0 0 1 -.75.76.77.77 0 0 1 -.76-.76.76.76 0 0 1 .76-.75.74.74 0 0 1 .75.75z"/><path d="m346 101a1.77 1.77 0 1 1 -1.77-1.77 1.77 1.77 0 0 1 1.77 1.77z" opacity=".3"/><path d="m345.32 101a1.13 1.13 0 1 1 -1.13-1.13 1.13 1.13 0 0 1 1.13 1.13z" opacity=".3"/><path d="m344.94 101a.75.75 0 0 1 -.75.76.76.76 0 0 1 -.76-.76.75.75 0 0 1 .76-.75.74.74 0 0 1 .75.75z"/><path d="m382.12 107.73a1.77 1.77 0 1 1 -1.77-1.77 1.77 1.77 0 0 1 1.77 1.77z" opacity=".3"/><path d="m381.48 107.73a1.13 1.13 0 1 1 -1.13-1.13 1.12 1.12 0 0 1 1.13 1.13z" opacity=".3"/><path d="m381.11 107.73a.76.76 0 1 1 -1.51 0 .76.76 0 0 1 1.51 0z"/><path d="m330.2 190.18a1.77 1.77 0 1 1 -1.77-1.77 1.76 1.76 0 0 1 1.77 1.77z" opacity=".3"/><path d="m329.56 190.18a1.14 1.14 0 1 1 -1.13-1.14 1.14 1.14 0 0 1 1.13 1.14z" opacity=".3"/><path d="m329.18 190.18a.76.76 0 1 1 -.75-.76.76.76 0 0 1 .75.76z"/><path d="m373.33 65.52a1.77 1.77 0 1 1 -1.77-1.77 1.77 1.77 0 0 1 1.77 1.77z" opacity=".3"/><path d="m372.7 65.52a1.14 1.14 0 1 1 -1.14-1.13 1.13 1.13 0 0 1 1.14 1.13z" opacity=".3"/><path d="m372.32 65.52a.76.76 0 1 1 -.76-.75.75.75 0 0 1 .76.75z"/><path d="m150.63 1.77a1.77 1.77 0 1 1 -1.77-1.77 1.77 1.77 0 0 1 1.77 1.77z" opacity=".3"/><path d="m150 1.77a1.13 1.13 0 1 1 -1.14-1.13 1.13 1.13 0 0 1 1.14 1.13z" opacity=".3"/><path d="m149.61 1.77a.74.74 0 0 1 -.75.75.75.75 0 1 1 0-1.5.74.74 0 0 1 .75.75z"/><path d="m326.87 224.32a1.77 1.77 0 1 1 -1.77-1.77 1.76 1.76 0 0 1 1.77 1.77z" opacity=".3"/><path d="m326.23 224.32a1.13 1.13 0 1 1 -1.13-1.14 1.13 1.13 0 0 1 1.13 1.14z" opacity=".3"/><path d="m325.85 224.32a.75.75 0 0 1 -.75.75.76.76 0 1 1 0-1.51.75.75 0 0 1 .75.76z"/><path d="m73.77 212.23a1.77 1.77 0 1 1 -1.77-1.77 1.77 1.77 0 0 1 1.77 1.77z" opacity=".3"/><path d="m73.13 212.23a1.13 1.13 0 1 1 -1.13-1.13 1.12 1.12 0 0 1 1.13 1.13z" opacity=".3"/><path d="m72.75 212.23a.74.74 0 0 1 -.75.77.75.75 0 1 1 0-1.5.74.74 0 0 1 .75.73z"/><path d="m261.85 252.89a1.77 1.77 0 1 1 -1.76-1.77 1.76 1.76 0 0 1 1.76 1.77z" opacity=".3"/><path d="m261.22 252.89a1.14 1.14 0 1 1 -1.13-1.13 1.14 1.14 0 0 1 1.13 1.13z" opacity=".3"/><path d="m260.84 252.89a.76.76 0 1 1 -.75-.75.76.76 0 0 1 .75.75z"/></g></svg>