<svg viewBox="0 0 438.16 321.7" xmlns="http://www.w3.org/2000/svg"><g opacity=".93"><g fill="#fff"><path d="m252 254.39a2.81 2.81 0 0 1 2.28-3.2 2.68 2.68 0 0 1 2.94 2.48 2.84 2.84 0 0 1 -2.28 3.21 2.69 2.69 0 0 1 -2.94-2.49z"/><path d="m253.92 247.86a5.84 5.84 0 0 1 6.38 5.39 6.14 6.14 0 0 1 -4.94 6.95 5.84 5.84 0 0 1 -6.39-5.38 6.15 6.15 0 0 1 4.95-6.96zm.77 6.65a.48.48 0 0 0 .39-.54.47.47 0 0 0 -.5-.42.48.48 0 0 0 -.38.54.45.45 0 0 0 .49.42z"/><path d="m159.68 166.89a2.81 2.81 0 0 1 2.41-3.1 2.71 2.71 0 0 1 2.84 2.62 2.81 2.81 0 0 1 -2.41 3.1 2.71 2.71 0 0 1 -2.84-2.62z"/><path d="m161.84 160.45a5.89 5.89 0 0 1 6.16 5.69 6.1 6.1 0 0 1 -5.22 6.71 5.88 5.88 0 0 1 -6.16-5.69 6.08 6.08 0 0 1 5.22-6.71zm.51 6.68a.47.47 0 0 0 .4-.52.44.44 0 1 0 -.88.08.46.46 0 0 0 .48.44z"/></g><path d="m181.6 264.77.61.18 65.67-128.8" fill="none" stroke="#fff" stroke-miterlimit="10" stroke-width=".5"/><g fill="#fff"><path d="m164.29 279.9-143.23-39.26 225.62-103.28.42 1.02-222.35 101.69 139.69 38.72z"/><path d="m34.64 242.17a2.65 2.65 0 1 1 -2.7-2.79 2.77 2.77 0 0 1 2.7 2.79z"/><path d="m32.15 248.46a6 6 0 0 1 -5.85-6.06 6 6 0 0 1 5.56-6.4 6 6 0 0 1 5.85 6.05 6 6 0 0 1 -5.56 6.41zm-.16-6.7a.49.49 0 1 0 .46.47.47.47 0 0 0 -.45-.47z"/><path d="m184.79 264.75a2.77 2.77 0 0 1 -2.56 2.94 2.74 2.74 0 0 1 -2.7-2.8 2.64 2.64 0 1 1 5.26-.14z"/><path d="m182.31 271a6.24 6.24 0 1 1 5.56-6.38 6 6 0 0 1 -5.56 6.38zm-.16-6.7a.48.48 0 1 0 .45.47.46.46 0 0 0 -.45-.43z"/><path d="m246.33 145.1a6 6 0 0 1 -5.85-6.06 6 6 0 0 1 5.56-6.38 6.24 6.24 0 0 1 .29 12.44zm-.16-6.7a.48.48 0 0 0 -.43.5.46.46 0 0 0 .46.46.46.46 0 0 0 .43-.49.46.46 0 0 0 -.46-.47z"/><path d="m133.4 91.33-.4-.33-23.56-21.42.27-.23 27.64-21.73-.06.66zm-23.08-21.71 22.68 20.54 3.72-41.31z"/><path d="m277.21 76.37-31.16-70.22 31.48 7.5 29.59 11.85-.19.55-29.57-11.83-30.35-7.23 30.69 69.13z"/><path d="m187.12 91h-54.52l.38-.48 69.83-85-.19 1.06zm-53.34-.57h52.9l15.23-82.89z"/><path d="m132.31 130.83-59-61.92 1.11.41 59 21.21v.23zm-56.91-60.55 56.41 59.22 1.11-38.5z"/><path d="m192.18 186.71-.9-.14-76-11 .13-.34 16.59-45.57.28.3zm-76.18-11.59 74.42 10.75-58.3-55.2z"/><path d="m242.54 205.42-.73-.27-50.89-18.71.17-.3 18-34.93.23.39zm-50.82-19.3 49.5 18.18-32.05-52z"/><path d="m129.87 318.88-6.87-83.2.52.58 40.78 43.64-.18.18zm-6.21-81.64 6.66 80.31 33.22-37.65z"/><path d="m341 159.74-.35-.11-22.54-7.69.11-.29 22.78-59.09zm-22.17-8.16 21.64 7.42v-63.53z"/><path d="m384.21 241.68-.75-1.42-43.1-81 .25-.14 27.89-15.32.05.37zm-43.09-82.21 42 79.05-15.08-93.85z"/><path d="m109.5 70.26 8.09-50 .36.53 19.46 27.51zm8.4-48.6-7.64 47.28 26.38-20.75z"/><path d="m38.86 157.2v-79.82h.21l35.76-8.14-.21.52zm.52-79.37v76.61l34.53-84.44z"/><path d="m39.92 227.08-1.06-72.89.5 1.53 25.46 95.28m-25.44-23 26.71 25-26.71-95.5z"/><path d="m236.09 245.47 1.62-.61 103.51-40.51-.22.65-14.34 37.08h-.17zm104.17-40.09-100.76 39.39 86.79-3.28z"/><path d="m134.43 91.49-1.32-.49-60.42-21.7h37.31l.08.07zm-58.38-21.59 55.88 20.1-22.15-20.1z"/><path d="m186.55 91.21.11-.52 15.62-85.14.34.89 24.8 66.56-.25.11zm15.9-83.65-15.18 82.72 39.46-17.57z"/><path d="m318.75 151.83-.54-.11 15.54-110.37.54.11z"/><path d="m131.76 130.72v-.57l1.15-39.69h54.94zm1.68-39.72-1.09 38.59 53.72-38.59z"/><path d="m191.39 186.76-.24-.25-60.15-56.94 78.52 22-.17.34zm-58.3-56 58.15 55.06 17.49-33.82z"/><path d="m299.62 103.78-.38-.34-73-30.91 51.52 3.47v.3zm-71.74-30.54 71.3 29.39-22-26.12z"/><path d="m209 152.2-.1-.32-22.37-61.56.51.14 113.12 12.63-.63.37zm-21.58-61 21.88 60.18 89.35-48z"/><path d="m65.8 252.11-.27-.97 57.71-14.95.37.75z"/><path d="m129.29 318.69 34.58-39.18.19.14 35.47 23.12-.69.14zm34.71-38.42-33.08 37.46 67.18-15.23z"/><path d="m364.26 261.28-.17-.39-24-56.95 44 36.14-.21.23zm-22.85-55.47 23 54.46 18.84-20.15z"/><path d="m383.54 240.85-.13-.7-15.47-96.42.46.23 57.85 28.75-.18.3zm-14.91-96.11 15.2 94.6 41.61-66.34z"/><path d="m368.25 144.72-.19-.32-27.89-50.83.63.18 56.77 15.12-.3.35zm-26.94-50.23 27 49.24 28.24-34.54z"/><path d="m434.49 227.04-8.89-54.12-28.75-63.73-39.27-48.51-16.61 33.49-.48-.28 17.01-34.22.23.3 39.59 48.93 28.79 63.88 8.9 54.17z"/><path d="m39.38 251.35-.5-1.23-32.38-77.22.5-.25 31.86 76v-20.56h.52z"/><path d="m6.37 173 .13-.57 11.84-57.74.06-.14 20.6-37.17 78.71-56.71 84.62-14.39h44.2v.58h-44.16l-84.53 14.36-78.52 56.59-20.39 36.85 20.56 41.34-.25.14zm12.37-57.53-11.61 56.53 31.62-16.3z"/><path d="m198.86 303-.21-.14-35.32-23 .48-.22 74.81-35.21-.61.87zm-34.36-23 34.21 22.3 38.29-56.48z"/><path d="m301.89 284-.21-.14-64.87-38.95h1l89.19-3.44-.3.48zm-63.11-38.59 62.94 37.81 24.28-41.11z"/><path d="m132.84 91.6.08-.89 3.84-42.64.13-.06 66.82-42.66zm4.45-43.18-3.74 41.47 67.45-82.14z"/><path d="m278.24 76.57h-.79l-50.57-3.39-.07-.16-25.09-67.45zm-51-4 49.44 3.3-73.68-68.33z"/><path d="m116.29 175.8-.7-.18-77.13-19.62 44-33.08.14.26zm-76.51-20.1 75.27 19.19-32.7-51.2z"/><path d="m132.81 130.56-.77-.12-49.86-6.88v-.21l-8.18-54.58.59.62zm-50.17-7.56 48.64 6.73-56.51-59.33z"/><path d="m300.52 103.8-114.43-13 41-18.25.12.11zm-112.66-13.13 110.41 11.94-71.27-29.4z"/><path d="m209.59 152.2-.52-.14-77.66-21.78.5-.36 55.19-39.62.13.34zm-76.88-22.15 76 21.3-21.86-60.16z"/><path d="m277.19 77.24v-63.29h.53v61.3l29.21-49.87.23.14 26.99 15.62 23.54 18.81-.32.45-23.52-18.75-26.73-15.49z"/><path d="m340.47 94.07-6.66-52.19-56.22 34.6-.25-.48 56.89-35.06.06.43 6.72 52.61z"/><path d="m130.44 319.22-20.73-30.15.05-.14 13.69-54.09.15 1.58zm-20.12-30.22 19.43 28.25-6.55-79.12z"/><path d="m346.28 300.35-.63-1.83-19.46-56.73 14.74-38.2.08 1.26zm-19.5-58.56 18.75 54.69-5-90.35z"/><path d="m301.47 283.15.4.16 44.12 14.84 37.65 8.22 32.05-15.01-32.8-52.02.9.48 45.36 24.05-.23.52-44.44-23.56 32.03 50.78-.29.14-32.51 15.21-.09-.02-37.78-8.24-43.7-14.68"/><path d="m254.49 288.23.46-.35"/><path d="m384.59 241.2-44.12-36.2v-46.74l.5.93zm-43.59-36.49 41.78 34.29-41.78-78.57z"/><path d="m340.47 159.81v-66.81l28.2 51.4-.27.14zm.53-64.71v63.77l26.9-14.77z"/><path d="m383.96 307.99-.53-1.21-19.11-45.34-18.18 37.12-.46-.27 18.67-38.18.23.53 18.83 44.67v-65.46l.21-.05 51.48-13.2-.09.44-5.71 37.24-12.96 27.35-.48-.27 12.94-27.31 5.62-36.67-50.46 12.95z"/><path d="m110.11 69.9h-36.37l.44-.51 44-49.31zm-35.11-.6h34.65l7.67-47.46z"/><path d="m39.38 229.1-.48-.87-32.55-55.88.27-.16 32.76-16.81zm-32.23-56.5 31.71 54.48v-70.79z"/><path d="m65.56 251.73-26.47-1.43.06-.59 26.47 1.43z"/><path d="m65.56 251.73-.74-.76 56.53-39.94-5.96-35.64.52-.09 6.03 35.98-.13.09-3.2 2.13z"/><path d="m123.09 237v-.5l-1.66-25.17-82.32-54.86.27-.5 82.3 54.85 71.22-25.57-1.58 1.16zm-1.15-25.64 1.61 24.59 65.88-48.84z"/><path d="m164.17 279.99-.51-.18 27.41-94.22.29.39 46.65 58.95-.42.38-46.31-58.55z"/><path d="m242.02 205.13-.28-.51 76.24-53.41.29.48z"/><path d="m198.86 302.91-.12-.57 55.6-14.48-16.82-42.68v-.09l4.1-40.26.52.07-4.07 40.19 17.03 43.18-.32.07z"/><path d="m341.16 205.17h-99.69l.17-.43 19.59-45.52 37.92-56.11.51.19-37.92 56.15-19.45 45.13h98.03l-22.09-52.68.5-.25z"/><path d="m261.67 159.68h-.23l-52.33-7.59.08-.57 52.34 7.57c1-.35 5.62-1.12 28.31-4.17 14-1.89 28.11-3.7 28.24-3.72l.06.57c-15.07 1.94-54.11 7.09-56.45 7.82z"/><path d="m290.72 314.99-.51-.21 11.34-31.31.51.23z"/><path d="m290.23 315.1-35.68-26.81.32-.48 35.83 26.88.02.09"/><path d="m290.25 315.08-52.66-69.77.42-.38 52.67 69.76z"/><path d="m345.68 204.9a5 5 0 1 1 -9.9 0 5 5 0 1 1 9.9 0z"/><path d="m334.29 241.84c0 4.71-3.48 8.51-7.81 8.51s-7.81-3.8-7.81-8.51 3.48-8.63 7.81-8.63 7.81 3.91 7.81 8.63z"/><path d="m307.33 283.61a5.54 5.54 0 1 1 -11 0c0-3.33 2.46-6.09 5.52-6.09s5.48 2.76 5.48 6.09z"/><path d="m349.43 298.85a3.54 3.54 0 1 1 -7.05 0 3.54 3.54 0 1 1 7.05 0z"/><path d="m389.25 306.69a5.58 5.58 0 1 1 -11.13 0c0-3.32 2.52-6.11 5.57-6.11s5.56 2.79 5.56 6.11z"/><path d="m368.87 260.78a4.65 4.65 0 0 1 -4.46 4.79 4.81 4.81 0 0 1 0-9.59 4.65 4.65 0 0 1 4.46 4.8z"/><path d="m419.55 291.33a3.39 3.39 0 1 1 -6.75 0 3.39 3.39 0 1 1 6.75 0z"/><path d="m434.72 264.06a5.7 5.7 0 1 1 -5.67-6.23 6 6 0 0 1 5.67 6.23z"/><path d="m438.16 227a3.42 3.42 0 1 1 -6.81 0 3.42 3.42 0 1 1 6.81 0z"/><path d="m390 240c0 3.79-2.8 6.92-6.27 6.92s-6.36-3.13-6.36-6.92a6.33 6.33 0 1 1 12.63 0z"/><path d="m433.21 173.09c0 4.38-3.31 8.07-7.35 8.07s-7.36-3.69-7.36-8.07 3.31-8 7.36-8 7.35 3.59 7.35 8z"/><ellipse cx="368.29" cy="144.24" rx="5.62" ry="6.12"/><path d="m402.25 109.1a5.19 5.19 0 1 1 -5.21-5.6 5.38 5.38 0 0 1 5.21 5.6z"/><path d="m344.62 159.33a4.08 4.08 0 0 1 -3.86 4.21 4.25 4.25 0 0 1 0-8.48 4.06 4.06 0 0 1 3.86 4.27z"/><path d="m345.13 94a4.56 4.56 0 0 1 -4.37 4.75 4.77 4.77 0 1 1 4.37-4.75z"/><path d="m363.94 60.28a6.42 6.42 0 1 1 -12.8 0c0-3.86 2.85-7.07 6.4-7.07s6.4 3.21 6.4 7.07z"/><path d="m337.94 41.78a3.93 3.93 0 1 1 -7.84 0 3.94 3.94 0 1 1 7.84 0z"/><path d="m324.18 151.81a5.73 5.73 0 1 1 -11.42 0 6.06 6.06 0 0 1 5.75-6.26c3.14 0 5.67 2.84 5.67 6.26z"/><path d="m282.46 75.8a5 5 0 1 1 -10 0 5 5 0 1 1 10 0z"/><ellipse cx="307.03" cy="25.82" rx="5.56" ry="6.06"/><path d="m281.45 14.38a4 4 0 1 1 -8 0 4 4 0 1 1 8 0z"/><ellipse cx="246.53" cy="6.96" rx="6.39" ry="6.96"/><path d="m207 6.56a4.64 4.64 0 1 1 -9.26 0 4.64 4.64 0 1 1 9.26 0z"/><path d="m233.75 72.93c0 3.94-3 7.28-6.69 7.28s-6.68-3.34-6.68-7.28 3-7.38 6.68-7.38 6.69 3.35 6.69 7.38z"/><path d="m190.84 90.77a3.89 3.89 0 1 1 -3.84-4.28 4.06 4.06 0 0 1 3.84 4.28z"/><path d="m138.82 90.79a5.65 5.65 0 1 1 -11.25 0c0-3.4 2.51-6.21 5.62-6.21s5.63 2.81 5.63 6.21z"/><path d="m141.67 48.28a5 5 0 1 1 -5-5.39 5.2 5.2 0 0 1 5 5.39z"/><path d="m124.18 21.5a6.46 6.46 0 1 1 -12.89 0c0-4 3-7.12 6.45-7.12s6.44 3.13 6.44 7.12z"/><path d="m113.87 69.52a4 4 0 1 1 -4-4.4 4.21 4.21 0 0 1 4 4.4z"/><path d="m78.56 69.52a4.21 4.21 0 1 1 -4.19-4.63 4.4 4.4 0 0 1 4.19 4.63z"/><path d="m42.89 77.58a3.78 3.78 0 1 1 -7.54 0 3.79 3.79 0 1 1 7.54 0z"/><path d="m43.88 156.2a4.89 4.89 0 0 1 -4.62 5.1 5.09 5.09 0 0 1 0-10.13 4.87 4.87 0 0 1 4.62 5.03z"/><path d="m22.06 115a3.54 3.54 0 0 1 -3.39 3.69 3.73 3.73 0 0 1 0-7.43 3.55 3.55 0 0 1 3.39 3.74z"/><path d="m13.49 172.81c0 4-3 7.33-6.73 7.33a7.05 7.05 0 0 1 -6.76-7.33c0-4.1 3-7.42 6.76-7.42s6.73 3.32 6.73 7.42z"/><path d="m42.11 249.58a3 3 0 1 1 -3-3.28 3.17 3.17 0 0 1 3 3.28z"/><ellipse cx="39.26" cy="228.09" rx="4.47" ry="4.87"/><path d="m127.51 236.48a4.2 4.2 0 1 1 -8.37 0 4.21 4.21 0 1 1 8.37 0z"/><path d="m114.81 289.07a4.81 4.81 0 1 1 -4.76-5.25 5.08 5.08 0 0 1 4.76 5.25z"/><path d="m132.94 318.21a3.19 3.19 0 1 1 -3.16-3.48 3.31 3.31 0 0 1 3.16 3.48z"/><path d="m169.4 280a5.5 5.5 0 1 1 -11 0c0-3.39 2.44-6.05 5.48-6.05a5.75 5.75 0 0 1 5.52 6.05z"/><path d="m203.1 302.66a4.32 4.32 0 1 1 -8.6 0 4.32 4.32 0 1 1 8.6 0z"/><ellipse cx="237.8" cy="245.13" rx="7.46" ry="8.13"/><ellipse cx="254.72" cy="288.07" rx="6.42" ry="6.99"/><path d="m295.06 314.57a4.62 4.62 0 1 1 -4.59-5.05 4.78 4.78 0 0 1 4.59 5.05z"/><path d="m246.64 204.87a4.77 4.77 0 1 1 -4.73-5.14 4.94 4.94 0 0 1 4.73 5.14z"/><path d="m213.75 151.81a4.62 4.62 0 1 1 -9.2 0 4.62 4.62 0 1 1 9.2 0z"/><path d="m265 159.32a3.55 3.55 0 1 1 -7.07 0 3.55 3.55 0 1 1 7.07 0z"/><ellipse cx="132.06" cy="130.17" rx="6.76" ry="7.36"/><path d="m87.41 123.31a4.89 4.89 0 1 1 -9.74 0 4.89 4.89 0 1 1 9.74 0z"/><path d="m120.51 175.32a4.87 4.87 0 1 1 -4.85-5.28 5.13 5.13 0 0 1 4.85 5.28z"/><path d="m195.07 186.3a3.9 3.9 0 1 1 -3.9-4.22 4.07 4.07 0 0 1 3.9 4.22z"/><path d="m126.45 211.23a4.82 4.82 0 1 1 -4.81-5.19 5 5 0 0 1 4.81 5.19z"/><path d="m298.65 103.3c.59.14 19.82 48.47 19.82 48.47"/><path d="m318.12 151.91c-5.19-13-18.86-47.19-19.73-48.35l.24-.19.11-.44c.25.06.77.18 20.08 48.7z"/></g></g></svg>