<svg viewBox="0 0 65.34 55.28" xmlns="http://www.w3.org/2000/svg"><path d="m61 12.5-12.56-1.89.38-2.51a5.09 5.09 0 0 0 -4.28-5.78l-15.08-2.26a5.09 5.09 0 0 0 -5.78 4.27l-.37 2.51-12.57-1.84a5.08 5.08 0 0 0 -5.74 4.23l-4.94 32.68a5.09 5.09 0 0 0 4.27 5.78l50.27 7.54a5.09 5.09 0 0 0 5.78-4.23l4.9-32.67a5.08 5.08 0 0 0 -4.28-5.83zm-34.8-7.79a2.54 2.54 0 0 1 2.89-2.14l15.08 2.26a2.55 2.55 0 0 1 2.13 2.89l-.37 2.52-20.11-3zm31.67 45.87a2.55 2.55 0 0 1 -2.87 2.13l-50.29-7.54a2.54 2.54 0 0 1 -2.14-2.89l2.74-18.28a5.11 5.11 0 0 0 2.41 1.08l20.11 3-.57 3.77a1.28 1.28 0 0 0 1.07 1.45l7.54 1.13a1.28 1.28 0 0 0 1.45-1.07l.56-3.77 20.11 3a5.14 5.14 0 0 0 2.62-.33l-2.74 18.3zm-27.87-19.58.75-5 5 .75-.76 5zm31.29-3a2.55 2.55 0 0 1 -2.89 2.13l-20.11-3 .19-1.26a1.28 1.28 0 0 0 -1.07-1.45l-7.54-1.13a1.27 1.27 0 0 0 -1.44 1.07l-.19 1.26-20.11-3a2.54 2.54 0 0 1 -2.13-2.96l1.51-10a2.55 2.55 0 0 1 2.89-2.14l50.23 7.48a2.55 2.55 0 0 1 2.14 2.89z" fill="#5ec5de"/></svg>