<svg viewBox="0 0 238.61 236.61" xmlns="http://www.w3.org/2000/svg"><g fill="#fff"><path d="m210.38 92.44a4 4 0 0 0 3.89 2.94 4.22 4.22 0 0 0 1.1-.15 4.05 4.05 0 0 0 2.79-5c-.1-.36-.21-.72-.31-1.08a4 4 0 1 0 -7.76 2.29c.09.33.19.67.29 1z"/><path d="m204.54 168.24a4 4 0 0 0 -5.59 1.21c-.19.3-.38.58-.57.87a4 4 0 0 0 6.75 4.47l.62-.95a4.05 4.05 0 0 0 -1.21-5.6z"/><path d="m198.84 67 .55.86a4 4 0 1 0 6.85-4.3c-.2-.32-.4-.64-.61-1a4 4 0 1 0 -6.79 4.4z"/><path d="m158.47 32.12.95.43a4 4 0 0 0 3.43-7.33l-1-.47a4 4 0 0 0 -3.36 7.37z"/><path d="m181.93 47.34a4 4 0 0 0 5.36-6.06l-.85-.75a4 4 0 0 0 -5.29 6.13z"/><path d="m181.3 189.82-.78.67a4 4 0 0 0 5.22 6.18l.87-.75a4 4 0 1 0 -5.31-6.1z"/><path d="m39.72 169.53c-.19-.28-.38-.58-.56-.87a4 4 0 0 0 -6.85 4.34c.2.32.4.64.61 1a4 4 0 0 0 3.4 1.85 4 4 0 0 0 2.19-.65 4.05 4.05 0 0 0 1.21-5.67z"/><path d="m132.86 220.15 1.14-.15a4.05 4.05 0 0 0 -1.15-8l-1 .14a4 4 0 0 0 .52 8.06z"/><path d="m164 206.39a4.06 4.06 0 0 0 -5.37-2l-.94.42a4 4 0 0 0 1.65 7.75 4 4 0 0 0 1.63-.35l1-.46a4.06 4.06 0 0 0 2.03-5.36z"/><path d="m132.62 24.59c.34 0 .69.09 1 .15a4.17 4.17 0 0 0 .61 0 4 4 0 0 0 .6-8l-1.11-.16a4 4 0 0 0 -1.13 8z"/><path d="m80.05 204.44-1-.44a4 4 0 1 0 -3.44 7.33l1 .47a4 4 0 0 0 3.37-7.36z"/><path d="m56.6 189.19a4 4 0 0 0 -5.36 6.06l.84.74a4 4 0 1 0 5.3-6.11z"/><path d="m105.9 212-1-.15a4 4 0 1 0 -1.22 8l1.11.16a3.86 3.86 0 0 0 .58 0 4 4 0 0 0 .57-8.05z"/><path d="m34 68.45a4 4 0 0 0 2.18.64 4 4 0 0 0 3.41-1.86l.57-.87a4.05 4.05 0 0 0 -6.77-4.45l-.61 1a4 4 0 0 0 1.22 5.54z"/><path d="m105.64 16.47c-.38 0-.75.1-1.12.15a4 4 0 0 0 .57 8.05 3.9 3.9 0 0 0 .59 0l1-.14a4 4 0 0 0 -1.07-8z"/><path d="m20.62 122.45a4 4 0 0 0 4-4v-1a4.05 4.05 0 0 0 -8.1-.07v1.12a4 4 0 0 0 4.1 3.95z"/><path d="m218 114a4 4 0 0 0 -4.05 4v.21 1a4.06 4.06 0 0 0 4 4.1h.05a4.05 4.05 0 0 0 4-4v-1.34a4 4 0 0 0 -4-3.97z"/><path d="m28.21 144.07a4 4 0 0 0 -7.79 2.19c.1.36.21.72.31 1.09a4.06 4.06 0 0 0 3.88 2.9 3.82 3.82 0 0 0 1.15-.17 4 4 0 0 0 2.74-5c-.1-.35-.19-.68-.29-1.01z"/><path d="m74.49 30.25a4 4 0 0 0 3.68 2.36 3.91 3.91 0 0 0 1.69-.37l.94-.42a4 4 0 1 0 -3.3-7.39l-1 .46a4 4 0 0 0 -2.01 5.36z"/><path d="m212.53 151a4.14 4.14 0 0 0 1.19.18 4.07 4.07 0 0 0 3.87-2.87c.11-.36.21-.72.32-1.08a4 4 0 1 0 -7.77-2.28c-.09.33-.19.66-.29 1a4 4 0 0 0 2.68 5.05z"/><path d="m26 85.69a4 4 0 0 0 -5 2.7c-.11.36-.21.72-.32 1.08a4 4 0 0 0 7.77 2.27l.3-1a4 4 0 0 0 -2.75-5.05z"/><path d="m54.58 47.85a4 4 0 0 0 2.65-1l.79-.68a4 4 0 1 0 -5.25-6.17l-.85.74a4 4 0 0 0 2.66 7.1z"/><path d="m233.91 113.35a4.71 4.71 0 0 0 -4.7 4.7v1.46a4.69 4.69 0 0 0 4.65 4.75 4.69 4.69 0 0 0 4.69-4.65c0-.44 0-.87 0-1.31v-.25a4.7 4.7 0 0 0 -4.64-4.7z"/><path d="m191.3 201.35-.91.78a4.7 4.7 0 1 0 6.07 7.17c.34-.28.67-.57 1-.86a4.7 4.7 0 1 0 -6.16-7.09z"/><path d="m218.29 176.3a4.7 4.7 0 0 0 -6.5 1.4c-.21.34-.43.67-.65 1a4.7 4.7 0 0 0 7.86 5.2c.25-.37.49-.74.73-1.11a4.7 4.7 0 0 0 -1.44-6.49z"/><path d="m225.06 88.28a4.71 4.71 0 0 0 4.52 3.41 4.78 4.78 0 0 0 1.29-.18 4.71 4.71 0 0 0 3.23-5.81l-.36-1.25a4.7 4.7 0 1 0 -9 2.66c.1.39.26.78.32 1.17z"/><path d="m230.62 146.07a4.7 4.7 0 0 0 -5.83 3.19c-.11.39-.23.78-.35 1.17a4.71 4.71 0 0 0 3.14 5.86 5 5 0 0 0 1.36.2 4.7 4.7 0 0 0 4.5-3.34c.13-.42.25-.83.37-1.25a4.7 4.7 0 0 0 -3.19-5.83z"/><path d="m165 218.29-1.09.49a4.7 4.7 0 0 0 1.91 9 4.78 4.78 0 0 0 1.91-.4l1.2-.54a4.7 4.7 0 1 0 -3.93-8.54z"/><path d="m135 227.09-1.2.17a4.7 4.7 0 0 0 .61 9.35 4.4 4.4 0 0 0 .62 0l1.29-.17a4.7 4.7 0 0 0 -1.32-9.31z"/><path d="m20.26 60.41a4.69 4.69 0 0 0 6.49-1.41c.22-.34.44-.68.67-1a4.7 4.7 0 1 0 -7.86-5.16c-.24.37-.48.73-.71 1.1a4.69 4.69 0 0 0 1.41 6.47z"/><path d="m9.4 118.4v-.1c0-.36 0-.72 0-1.09a4.7 4.7 0 0 0 -4.66-4.74 4.69 4.69 0 0 0 -4.74 4.65v1.18.12a4.7 4.7 0 0 0 9.4 0z"/><path d="m26.24 176.78a4.7 4.7 0 0 0 -8 5l.7 1.1a4.69 4.69 0 0 0 4 2.16 4.7 4.7 0 0 0 3.94-7.25z"/><path d="m44.14 36.49a4.66 4.66 0 0 0 3.08-1.16l.92-.78a4.7 4.7 0 0 0 -6.09-7.16l-1 .85a4.7 4.7 0 0 0 3.09 8.25z"/><path d="m103.73 227.11-1.2-.18a4.7 4.7 0 0 0 -1.42 9.3l1.3.19a5 5 0 0 0 .67 0 4.7 4.7 0 0 0 .65-9.35z"/><path d="m11 80.44a4.69 4.69 0 0 0 -5.86 3.12c-.13.42-.25.84-.38 1.26a4.71 4.71 0 0 0 3.24 5.83 4.63 4.63 0 0 0 1.32.19 4.7 4.7 0 0 0 4.51-3.39c.11-.38.22-.77.34-1.15a4.69 4.69 0 0 0 -3.17-5.86z"/><path d="m13.52 148.22a4.7 4.7 0 1 0 -9 2.55c.12.42.24.84.37 1.26a4.7 4.7 0 0 0 9-2.65z"/><path d="m71.54 18.8a4.75 4.75 0 0 0 2-.43l1.09-.5a4.7 4.7 0 1 0 -3.83-8.58c-.4.17-.79.35-1.19.54a4.7 4.7 0 0 0 2 9z"/><path d="m212.32 59.72a4.7 4.7 0 1 0 7.94-5l-.7-1.1a4.7 4.7 0 1 0 -7.89 5.1c.21.28.43.66.65 1z"/><path d="m102.8 9.57a4 4 0 0 0 .68-.05l1.2-.16a4.7 4.7 0 0 0 -1.25-9.36l-1.29.18a4.7 4.7 0 0 0 .66 9.35z"/><path d="m73.72 218.34-1.11-.52a4.7 4.7 0 1 0 -4 8.51l1.19.55a4.7 4.7 0 1 0 3.91-8.54z"/><path d="m46.49 200.62a4.7 4.7 0 1 0 -6.23 7l1 .86a4.7 4.7 0 0 0 6.16-7.1c-.33-.22-.63-.49-.93-.76z"/><path d="m134.76 9.47 1.2.18a5.78 5.78 0 0 0 .71 0 4.7 4.7 0 0 0 .7-9.35l-1.29-.14a4.7 4.7 0 0 0 -1.32 9.31z"/><path d="m192 35.9a4.7 4.7 0 0 0 6.21-7l-1-.86a4.7 4.7 0 0 0 -6.15 7.11z"/><path d="m164.79 18.22 1.1.5a4.55 4.55 0 0 0 2 .45 4.7 4.7 0 0 0 2-9l-1.19-.55a4.7 4.7 0 0 0 -3.89 8.56z"/></g></svg>