<svg viewBox="0 0 60.31 60.4" xmlns="http://www.w3.org/2000/svg"><g fill="#5ec5de"><path d="m5.62 44.44a6.1 6.1 0 0 0 -2 4.37 6.35 6.35 0 0 0 1.92 4.41c.55.57 1.11 1.12 1.66 1.64a30 30 0 0 1 2.23 2.31s0 0 0 .06a9.6 9.6 0 0 0 7.36 3.17h.8a31.12 31.12 0 0 0 11.31-3.34 60.07 60.07 0 0 0 20-15.64 54.93 54.93 0 0 0 9.75-16.27 22.31 22.31 0 0 0 1.64-9.46 9.36 9.36 0 0 0 -2.77-5.92l-4.36-4.38a6.22 6.22 0 0 0 -4.36-1.9 6 6 0 0 0 -4.27 1.88c-.83.76-1.64 1.58-2.4 2.37-.38.41-.79.81-1.19 1.21l-3.48 3.48a5.86 5.86 0 0 0 0 8.82l1.07 1.08c.95 1 1.92 2 3 2.91a26 26 0 0 1 -3.44 5.43 44 44 0 0 1 -10.49 9.56c-.37.23-.8.45-1.26.68l-1 .51-4-4a6.13 6.13 0 0 0 -4.36-2 6 6 0 0 0 -4.31 2zm2.44 6.4q-2-2 0-4l7-7.05a2.55 2.55 0 0 1 1.94-.92 2.88 2.88 0 0 1 1.93 1l4.36 4.36a2.6 2.6 0 0 0 3.2.56l.15-.09c.37-.23.8-.44 1.26-.67a16.35 16.35 0 0 0 1.57-.86 46.58 46.58 0 0 0 11.32-10.3 27.9 27.9 0 0 0 4.12-6.72v-.11a2.6 2.6 0 0 0 -.66-2.89l-.07-.15c-1.11-1-2.13-2-3.2-3.11-.37-.35-.72-.72-1.09-1.09-1.36-1.36-1.36-2.6 0-4l3.48-3.48c.4-.42.81-.82 1.21-1.23.77-.81 1.51-1.56 2.29-2.28a2.72 2.72 0 0 1 1.86-.89 2.89 2.89 0 0 1 1.94.9l4.34 4.35a5.78 5.78 0 0 1 1.8 3.83 18.25 18.25 0 0 1 -1.42 8 52.06 52.06 0 0 1 -9.18 15.29 56.65 56.65 0 0 1 -18.82 14.71 27.55 27.55 0 0 1 -9.94 3 5.62 5.62 0 0 1 -.58 0 6.15 6.15 0 0 1 -4.8-2 33.23 33.23 0 0 0 -2.46-2.55c-.55-.53-1.06-1-1.55-1.55z"/><path d="m27.71 14.37a1.7 1.7 0 0 0 1.39-2 1.72 1.72 0 0 0 -2-1.4 19.84 19.84 0 0 0 -16.1 16.17 1.73 1.73 0 0 0 1.41 2h.3a1.7 1.7 0 0 0 1.69-1.42 16.32 16.32 0 0 1 4.57-8.8 16.14 16.14 0 0 1 8.79-4.56z"/><path d="m0 26.64a1.68 1.68 0 0 0 1.4 2 1.43 1.43 0 0 0 .29 0 1.72 1.72 0 0 0 1.7-1.43 29.18 29.18 0 0 1 23.81-23.79 1.74 1.74 0 0 0 1.42-2 1.72 1.72 0 0 0 -2-1.4 32.61 32.61 0 0 0 -26.62 26.62z"/></g></svg>