<svg viewBox="0 0 58.54 56.65" xmlns="http://www.w3.org/2000/svg"><g fill="#5ec5de"><path d="m32.84 27.88v-.17a3.46 3.46 0 0 0 -2.08-2.58l-2.4-10.78a1.5 1.5 0 0 0 -1.7-1.14 1.52 1.52 0 0 0 -1.23 1.65l1.33 11a3.42 3.42 0 0 0 -1 3 3.53 3.53 0 0 0 4.14 2.8 3.34 3.34 0 0 0 .43-.1l7.83 4.64a1.7 1.7 0 0 0 2.18-.54 1.55 1.55 0 0 0 -.21-2.16l-7.26-5.7z"/><path d="m50.52 23.72-1.13.2a.89.89 0 0 0 -.75 1 .91.91 0 0 0 1 .72l1.13-.2a.91.91 0 0 0 .75-1 .89.89 0 0 0 -1-.72z"/><path d="m8.85 31-1.13.2a.89.89 0 0 0 -.75 1 .91.91 0 0 0 1 .72l1.13-.2a.91.91 0 0 0 .75-1 .89.89 0 0 0 -1-.72z"/><path d="m32.53 47a.91.91 0 0 0 -.75 1l.22 1.14a.92.92 0 0 0 1.81-.31l-.19-1.09a.9.9 0 0 0 -1.09-.74z"/><path d="m26 9.62a.91.91 0 0 0 .75-1l-.18-1.12a.91.91 0 0 0 -1.8.32l.23 1.09a.9.9 0 0 0 1 .71z"/><path d="m24.41.46c-15.94 2.78-26.68 17.54-24 32.9s17.78 25.64 33.72 22.83 26.69-17.51 24-32.9-17.78-25.61-33.72-22.83zm9.28 53.18a26 26 0 0 1 -30.18-20.82 26 26 0 0 1 21.34-29.82 26 26 0 0 1 30.15 20.83 26 26 0 0 1 -21.31 29.81z"/></g></svg>