<svg viewBox="0 0 32.42 32.42" xmlns="http://www.w3.org/2000/svg"><rect fill="none" height="30.92" rx="8" stroke="#fff" stroke-miterlimit="10" stroke-width="1.5" width="30.92" x=".75" y=".75"/><path d="m16.77 7.21a10 10 0 0 0 -3.63.67 9.29 9.29 0 0 0 -3 1.84 8.68 8.68 0 0 0 -2 2.73 7.71 7.71 0 0 0 -.73 3.33 7.81 7.81 0 0 0 .33 2.22 8.51 8.51 0 0 0 .86 1.95 8.26 8.26 0 0 0 1.32 1.7 8.87 8.87 0 0 0 1.71 1.35l-1.4 2.91 1.62-.08a25.93 25.93 0 0 0 3.85-.52 24.71 24.71 0 0 0 4.58-1.42 9.89 9.89 0 0 0 3.84-2.75 8.43 8.43 0 0 0 1.48-2.44 8 8 0 0 0 -.2-6.2 8.68 8.68 0 0 0 -2-2.73 9.18 9.18 0 0 0 -3-1.84 10 10 0 0 0 -3.63-.72zm0 1.86a8 8 0 0 1 2.9.53 7.45 7.45 0 0 1 2.33 1.4 6.83 6.83 0 0 1 1.59 2.14 5.83 5.83 0 0 1 .59 2.6 6.12 6.12 0 0 1 -1.55 4.09l-.28.33a7.29 7.29 0 0 1 -1.86 1.43 15.69 15.69 0 0 1 -2.32 1 20.81 20.81 0 0 1 -2.49.69c-.84.17-1.65.31-2.4.41l.74-1.53-1.44-.87a7 7 0 0 1 -2.43-2.42 6.12 6.12 0 0 1 -.87-3.16 5.83 5.83 0 0 1 .59-2.6 6.83 6.83 0 0 1 1.63-2.11 7.45 7.45 0 0 1 2.37-1.4 8 8 0 0 1 2.9-.53zm5.6 7a1.38 1.38 0 0 0 -.41-1 1.41 1.41 0 0 0 -2 0 1.37 1.37 0 0 0 -.4 1 1.35 1.35 0 0 0 .4 1 1.39 1.39 0 0 0 2 0 1.36 1.36 0 0 0 .41-1zm-4.2 0a1.42 1.42 0 0 0 -.4-1 1.37 1.37 0 0 0 -1-.41 1.35 1.35 0 0 0 -1 .41 1.38 1.38 0 0 0 -.41 1 1.36 1.36 0 0 0 .41 1 1.32 1.32 0 0 0 1 .42 1.34 1.34 0 0 0 1-.42 1.39 1.39 0 0 0 .4-1zm-4.2 0a1.37 1.37 0 0 0 -.4-1 1.41 1.41 0 0 0 -2 0 1.38 1.38 0 0 0 -.41 1 1.36 1.36 0 0 0 .41 1 1.39 1.39 0 0 0 2 0 1.35 1.35 0 0 0 .43-1z" fill="#fefefe"/></svg>