<svg viewBox="0 0 32.42 32.42" xmlns="http://www.w3.org/2000/svg"><rect fill="none" height="30.92" rx="8" stroke="#fff" stroke-miterlimit="10" stroke-width="1.5" width="30.92" x=".75" y=".75"/><path d="m9.79 9.27a9.63 9.63 0 0 1 7-2.87 9.6 9.6 0 0 1 7 2.85 9.39 9.39 0 0 1 2.9 6.94 9.41 9.41 0 0 1 -2.9 7 9.6 9.6 0 0 1 -7 2.85 10 10 0 0 1 -4.79-1.26l-5.44 1.75 1.79-5.26a9.66 9.66 0 0 1 -1.44-5.08 9.35 9.35 0 0 1 2.88-6.92zm13 1a8.45 8.45 0 0 0 -12 0 8.24 8.24 0 0 0 -1.25 10.2l.36.58-.23.63-.85 2.56 2.74-.85.58-.18.54.27a8.53 8.53 0 0 0 4.09 1 8.32 8.32 0 0 0 6-2.43 8.06 8.06 0 0 0 2.47-5.93 8 8 0 0 0 -2.46-5.81zm-8.22 1.57c0 .15.14.37.24.67s.21.57.32.81a2.46 2.46 0 0 1 .15.41.58.58 0 0 1 0 .45 1.72 1.72 0 0 1 -.27.4l-.4.4a.44.44 0 0 0 -.13.54 6.19 6.19 0 0 0 1.34 1.76 8.18 8.18 0 0 0 2 1.34c.24.12.42.11.54 0l.43-.47c.22-.26.36-.41.42-.47a.49.49 0 0 1 .59-.14 9.09 9.09 0 0 1 .85.45l.81.45a1.55 1.55 0 0 1 .5.31c.09.18 0 .57-.23 1.17a1.45 1.45 0 0 1 -.72.74 2.64 2.64 0 0 1 -1 .39c0 .09-.27.1-.72 0a10.77 10.77 0 0 1 -2.29-.72 10.05 10.05 0 0 1 -1-.54 5.89 5.89 0 0 1 -.9-.68l-.74-.72a6.69 6.69 0 0 1 -.63-.71q-.27-.36-.45-.63c-.12-.18-.22-.35-.31-.5l-.14-.18a4.05 4.05 0 0 1 -.94-2.6 3.06 3.06 0 0 1 1-2.07.94.94 0 0 1 .67-.32h.44c.24 0 .44.17.56.5z" fill="#fefefe"/></svg>