<svg viewBox="0 0 32.42 32.42" xmlns="http://www.w3.org/2000/svg"><rect fill="none" height="30.92" rx="8" stroke="#fff" stroke-miterlimit="10" stroke-width="1.5" width="30.92" x=".75" y=".75"/><path d="m7.76 9.18c0-1.3.67-1.94 2-1.94a1.73 1.73 0 0 1 2 1.94 1.71 1.71 0 0 1 -2 1.91c-1.33 0-2-.63-2-1.91zm13.64 3.61a4 4 0 0 1 3.29 1.39 5.86 5.86 0 0 1 1.12 3.82v7.29h-3.81v-6.91c0-1.79-.63-2.69-1.89-2.69a1.92 1.92 0 0 0 -2 1.51v8.06h-3.87q.06-11.58 0-12.87h3.06l.24 2.61h.06a4.22 4.22 0 0 1 3.8-2.21zm-9.72 12.47h-3.86v-12.87h3.86z" fill="#fefefe"/></svg>