<svg enable-background="new 0 0 187.1 374.8" viewBox="0 0 187.1 374.8" xmlns="http://www.w3.org/2000/svg" xmlns:xlink="http://www.w3.org/1999/xlink"><linearGradient id="a" gradientTransform="matrix(1 0 0 -1 0 375.4489)" gradientUnits="userSpaceOnUse" x1="8.0153" x2="244.9953" y1="350.5271" y2="-85.2528"><stop offset="0" stop-color="#00dfff"/><stop offset=".33" stop-color="#38c2f9"/><stop offset=".63" stop-color="#65abf4"/><stop offset=".86" stop-color="#819df1"/><stop offset="1" stop-color="#8b98f0"/></linearGradient><clipPath id="b"><path d="m26.2 16.7h.5c.3 0 .5.3.5.6v5c0 .4-.2.6-.5.6h-.5c-.3 0-.5-.3-.5-.6v-5c.1-.4.3-.6.5-.6zm-2.1 1.2h.5c.3 0 .5.3.5.6v3.8c0 .4-.2.6-.5.6h-.5c-.2 0-.5-.3-.5-.6v-3.8c0-.3.3-.6.5-.6zm-2.1 1.3h.5c.3 0 .5.3.5.6v2.5c0 .4-.2.6-.5.6h-.5c-.3 0-.5-.3-.5-.6v-2.5c0-.3.2-.6.5-.6zm-2.1.9h.5c.2 0 .5.3.5.6v1.6c0 .4-.2.6-.5.6h-.5c-.3 0-.5-.3-.5-.6v-1.6c.1-.3.3-.6.5-.6z"/></clipPath><clipPath id="c"><path d="m33.6 21.5c.8-.7 2-.7 2.8 0l-1.4 1.4zm-1.5-1.5c1.7-1.5 4.2-1.5 5.9 0l-1 .9c-1.2-1-2.9-1-4.1 0zm-1.6-1.5c2.5-2.4 6.5-2.4 9 0l-.9.9c-2-1.9-5.2-1.9-7.2 0z"/></clipPath><path d="m68.9 8.6h-47.1c-7.5 0-13.7 5.9-13.7 13.1v323c.1 3.4 2.9 6.1 6.3 6h158.3c3.4.1 6.2-2.6 6.3-6v-323c0-7.2-6.1-13.1-13.6-13.1h-48.8c-2.8.5-3.7 4.2-3.7 4.2-1.2 4.9-2.8 7.4-6.8 7.5h-26.6c-4.7-2-5.2-4.2-6.2-7.5-.6-2.1-2.3-3.7-4.4-4.2" fill="url(#a)"/><path d="m68.6 8.6h-47.1c-7.5 0-13.7 5.8-13.7 13.1v323c.1 3.4 2.9 6.1 6.3 6h158.3c3.4.1 6.2-2.6 6.3-6v-323c0-7.2-6.1-13.1-13.6-13.1h-47.8c-2.8.5-3.7 4.2-3.7 4.2-1.2 4.9-3.8 7.4-7.8 7.5h-26.6c-4.7-2-5.2-4.2-6.2-7.5-.6-2.1-2.3-3.7-4.4-4.2zm-68.6 343.7v-329.8c0-12.4 10.5-22.5 23.5-22.5h140.1c13 0 23.5 10.1 23.5 22.5v329.8c0 12.4-10.5 22.5-23.5 22.5h-140.1c-13 0-23.5-10-23.5-22.5z" fill="#fff"/><path d="m73.7 362c0-3.8 3.1-7 7-7h27.5c3.8 0 7 3.1 7 7 0 3.8-3.1 7-7 7h-27.5c-3.9-.1-7-3.2-7-7z" fill="#ebebeb"/><g fill="#fff"><path d="m152.3 21.6c-.4-.6-.5-1.3-.5-2s.1-1.4.5-2c.5-.8 1.6-1 2.3-.4.2.1.3.3.4.4.3.6.5 1.3.5 2s-.1 1.4-.5 2c-.5.8-1.6 1-2.3.4-.2-.1-.3-.2-.4-.4zm2.2-.4c.2-.5.3-1.1.3-1.6 0-.6-.1-1.1-.3-1.6-.2-.3-.5-.6-.9-.6s-.7.2-.9.6c-.2.5-.3 1.1-.3 1.6 0 .6.1 1.1.3 1.6s.8.7 1.3.5c.3-.1.4-.3.5-.5z"/><path d="m157 21.7c-.4-.6-.6-1.3-.6-2s.1-1.5.5-2.1c.6-.8 1.8-1 2.7-.4.3.2.5.6.6 1h-.7c0-.2-.2-.4-.4-.6-.2-.1-.4-.2-.7-.2-.4 0-.8.2-1 .5-.3.5-.4 1.1-.4 1.6h.1c.1-.2.3-.5.6-.6s.5-.2.8-.2c.5 0 .9.2 1.2.5.7.7.7 1.9 0 2.6-.4.3-.8.5-1.3.5-.5.1-1-.2-1.4-.6zm2.3-.3c.2-.2.4-.5.3-.9 0-.3-.1-.6-.3-.9-.2-.2-.5-.3-.9-.3-.3 0-.6.1-.9.3-.2.2-.3.5-.3.9 0 .3.1.7.4.9.2.2.5.4.9.4.3 0 .6-.2.8-.4z"/><path d="m161.6 19.3c-.1-.1-.1-.2-.1-.3s0-.2.1-.3c.2-.2.5-.2.7 0 .1.1.1.2.1.3s0 .2-.1.3c-.3.2-.6.2-.7 0zm0 2.8c-.1-.1-.1-.2-.1-.3 0-.3.2-.5.5-.5.1 0 .3.1.3.1.1.1.1.2.1.3s0 .2-.1.3c-.2.3-.5.3-.7.1z"/><path d="m164.9 22.2v-4.5c-.3.2-.5.4-.7.5l-.7.5v-.7l.7-.5.7-.5h.6v5.3h-.6z"/><path d="m167.5 21.7c-.4-.6-.6-1.3-.6-2s.1-1.5.5-2.1c.6-.8 1.8-1 2.7-.4.3.2.5.6.6 1h-.7c0-.2-.2-.4-.4-.6-.2-.1-.4-.2-.7-.2-.4 0-.8.2-1 .5-.3.5-.4 1.1-.4 1.6h.1c.1-.3.3-.5.6-.6s.5-.2.8-.2c.5 0 .9.2 1.2.5.7.7.7 1.9 0 2.6-.4.3-.8.5-1.3.5-.5.1-1-.2-1.4-.6zm2.3-.3c.2-.2.4-.5.3-.9 0-.3-.1-.6-.3-.9-.2-.2-.5-.3-.9-.3-.3 0-.6.1-.9.3-.2.2-.3.5-.3.9 0 .3.1.6.3.9.2.2.5.4.9.4s.7-.2.9-.4z"/><path d="m26.2 16.7h.5c.3 0 .5.3.5.6v5c0 .4-.2.6-.5.6h-.5c-.3 0-.5-.3-.5-.6v-5c.1-.4.3-.6.5-.6zm-2.1 1.2h.5c.3 0 .5.3.5.6v3.8c0 .4-.2.6-.5.6h-.5c-.2 0-.5-.3-.5-.6v-3.8c0-.3.3-.6.5-.6zm-2.1 1.3h.5c.3 0 .5.3.5.6v2.5c0 .4-.2.6-.5.6h-.5c-.3 0-.5-.3-.5-.6v-2.5c0-.3.2-.6.5-.6zm-2.1.9h.5c.2 0 .5.3.5.6v1.6c0 .4-.2.6-.5.6h-.5c-.3 0-.5-.3-.5-.6v-1.6c.1-.3.3-.6.5-.6z"/></g><g clip-path="url(#b)"><path d="m17.1 13.5h12.4v12.5h-12.4z" fill="#fff"/></g><path d="m33.6 21.5c.8-.7 2-.7 2.8 0l-1.4 1.4zm-1.5-1.5c1.7-1.5 4.2-1.5 5.9 0l-1 .9c-1.2-1-2.9-1-4.1 0zm-1.6-1.5c2.5-2.4 6.5-2.4 9 0l-.9.9c-2-1.9-5.2-1.9-7.2 0z" fill="#fff"/><g clip-path="url(#c)"><path d="m27.4 13.5h15.2v12.5h-15.2z" fill="#fff"/></g><path d="m136.7 17h9.1c.3 0 .7 0 1 .2.2.1.4.3.5.5.1.3.2.7.2 1v3.3c0 .6-.4 1-1 1h-9.7c-.3 0-.7 0-1-.2-.2-.1-.4-.3-.5-.5-.1-.3-.2-.7-.2-1v-2.6c0-.3 0-.7.2-1 .1-.2.3-.4.5-.5.2-.2.5-.2.9-.2z" fill="none" stroke="#fff" stroke-miterlimit="10" stroke-width=".25"/><g fill="#fff"><path d="m137.3 17.9h7.8c.3 0 .6 0 .9.1.2.1.3.2.4.4s.2.5.1.7v2.4c0 .4-.4.8-.9.7h-8.4c-.3 0-.6 0-.9-.1-.2-.1-.3-.2-.4-.4s-.2-.5-.1-.7v-1.9c0-.2 0-.5.1-.7s.3-.3.4-.4c.4-.1.7-.2 1-.1z"/><path d="m148.4 17.5c.1 0 .2.1.2.2v4.5c0 .1-.1.2-.2.2s-.2-.1-.2-.2v-4.5c0-.1.1-.2.2-.2z"/></g></svg>