<svg viewBox="0 0 32.42 32.42" xmlns="http://www.w3.org/2000/svg"><rect fill="none" height="30.92" rx="8" stroke="#fff" stroke-miterlimit="10" stroke-width="1.5" width="30.92" x=".75" y=".75"/><path d="m23.5 19.92a7 7 0 0 1 -.5 3.38 2.46 2.46 0 0 1 -2.06.95c-2.19.11-3.28-.61-3.28-2.16 0-1.38.92-2.1 2.75-2.17h1c.33 0 .59 0 .79-.05a4.62 4.62 0 0 1 .5 0v-8.51l-10.13 1.69v8.77c0 .6 0 1.07-.05 1.4a8.09 8.09 0 0 1 -.27 1.24 1.74 1.74 0 0 1 -.79 1.09 3.31 3.31 0 0 1 -1.53.39q-3.33.16-3.33-2.22c0-1.37.92-2.09 2.75-2.16h2.32v-12.56l11.83-1.86z" fill="#fefefe"/></svg>