<svg viewBox="0 0 32.42 32.42" xmlns="http://www.w3.org/2000/svg"><rect fill="none" height="30.92" rx="8" stroke="#fff" stroke-miterlimit="10" stroke-width="1.5" width="30.92" x=".75" y=".75"/><path d="m20.19 13h-7.1a.54.54 0 0 0 -.41.18.6.6 0 0 0 -.18.43.6.6 0 0 0 .18.44.54.54 0 0 0 .41.18h7.1a.58.58 0 0 0 .42-.18.6.6 0 0 0 .18-.44.6.6 0 0 0 -.18-.43.58.58 0 0 0 -.42-.18zm3 11.06a1.08 1.08 0 0 1 -.43.86 1.53 1.53 0 0 1 -1 .37h-10.25a1.52 1.52 0 0 1 -1-.37 1.09 1.09 0 0 1 -.44-.86v-13.52a1.09 1.09 0 0 1 .44-.86 1.57 1.57 0 0 1 1-.37h10.27a1.59 1.59 0 0 1 1 .37 1.08 1.08 0 0 1 .43.86zm-1.46-16v-6.92h-1.42v7h-2.93v-7h-1.47v7h-2.91v-7h-1.49v7a3.11 3.11 0 0 0 -2.07.72 2.16 2.16 0 0 0 -.86 1.73v13.47a2.18 2.18 0 0 0 .86 1.74 3.11 3.11 0 0 0 2.07.72h10.27a3.11 3.11 0 0 0 2.07-.72 2.21 2.21 0 0 0 .86-1.74v-13.52a2.19 2.19 0 0 0 -.86-1.73 3.11 3.11 0 0 0 -2.07-.72zm-1.54 12.31h-7.1a.52.52 0 0 0 -.41.19.58.58 0 0 0 -.18.43.6.6 0 0 0 .18.43.54.54 0 0 0 .41.18h7.1a.58.58 0 0 0 .42-.18.6.6 0 0 0 .18-.43.58.58 0 0 0 -.18-.43.55.55 0 0 0 -.42-.19zm0-3.68h-7.1a.54.54 0 0 0 -.41.18.6.6 0 0 0 0 .86.55.55 0 0 0 .41.19h7.1a.62.62 0 0 0 .42-1.05.58.58 0 0 0 -.42-.18z" fill="#fefefe"/></svg>