<svg viewBox="0 0 32.42 32.42" xmlns="http://www.w3.org/2000/svg"><rect fill="none" height="30.92" rx="8" stroke="#fff" stroke-miterlimit="10" stroke-width="1.5" width="30.92" x=".75" y=".75"/><path d="m26.65 9.89v12.77a1.63 1.63 0 0 1 -.5 1.19 1.6 1.6 0 0 1 -1.18.49h-16.81a1.59 1.59 0 0 1 -1.16-.49 1.63 1.63 0 0 1 -.5-1.19v-12.77a1.71 1.71 0 0 1 1.66-1.68h16.84a1.61 1.61 0 0 1 1.18.5 1.59 1.59 0 0 1 .47 1.18zm-1.65-.33h-16.84a.34.34 0 0 0 -.33.33v12.77a.33.33 0 0 0 .1.24.29.29 0 0 0 .23.1h16.84a.3.3 0 0 0 .23-.1.33.33 0 0 0 .1-.24v-12.77a.29.29 0 0 0 -.1-.23.3.3 0 0 0 -.23-.1zm-1 7.44v4.7h-14.83v-2l3.36-3.36 1.68 1.66 5.38-5.38zm-11.39-5.51a1.92 1.92 0 0 1 .59 1.43 2 2 0 0 1 -2 2 2 2 0 0 1 -2-2 2 2 0 0 1 2-2 1.93 1.93 0 0 1 1.41.57z" fill="#fefefe"/></svg>