<svg viewBox="0 0 194.18 376.58" xmlns="http://www.w3.org/2000/svg" xmlns:xlink="http://www.w3.org/1999/xlink"><clipPath id="a" transform="translate(0 -2.06)"><path d="m0 0h194.18v382.18h-194.18z"/></clipPath><linearGradient id="b" gradientUnits="userSpaceOnUse" x1="-.93" x2="179.89" y1="22.42" y2="334.93"><stop offset="0" stop-color="#33e5c8"/><stop offset=".25" stop-color="#3ddecd"/><stop offset=".67" stop-color="#59cadb"/><stop offset="1" stop-color="#72b8e7"/></linearGradient><clipPath id="c" transform="translate(0 -2.06)"><path clip-rule="evenodd" d="m156.43 53.52h11a2.19 2.19 0 0 1 1.2.21 1.3 1.3 0 0 1 .59.59 2.21 2.21 0 0 1 .21 1.2v4a1.2 1.2 0 0 1 -1.2 1.2h-11.8a2.32 2.32 0 0 1 -1.2-.2 1.37 1.37 0 0 1 -.59-.6 2.19 2.19 0 0 1 -.21-1.2v-3.2a2.21 2.21 0 0 1 .21-1.2 1.3 1.3 0 0 1 .59-.59 2.19 2.19 0 0 1 1.2-.21z"/></clipPath><clipPath id="d" transform="translate(0 -2.06)"><path clip-rule="evenodd" d="m170.05 56a1.25 1.25 0 0 1 0 2.42z"/></clipPath><clipPath id="e" transform="translate(0 -2.06)"><path clip-rule="evenodd" d="m33 53.83h.63a.63.63 0 0 1 .62.63v5a.63.63 0 0 1 -.62.63h-.63a.63.63 0 0 1 -.62-.63v-5a.63.63 0 0 1 .62-.63zm-2.81 1.25h.63a.63.63 0 0 1 .62.63v3.74a.63.63 0 0 1 -.62.63h-.63a.63.63 0 0 1 -.62-.63v-3.74a.63.63 0 0 1 .66-.63zm-2.81 1.25h.62a.63.63 0 0 1 .63.63v2.49a.63.63 0 0 1 -.63.63h-.62a.63.63 0 0 1 -.63-.63v-2.45a.63.63 0 0 1 .67-.67zm-2.81.94h.62a.63.63 0 0 1 .63.62v1.56a.63.63 0 0 1 -.63.63h-.62a.63.63 0 0 1 -.63-.63v-1.56a.63.63 0 0 1 .67-.62z"/></clipPath><clipPath id="f" transform="translate(0 -2.06)"><path clip-rule="evenodd" d="m41.45 58.7a2.18 2.18 0 0 1 1.38-.5 2.14 2.14 0 0 1 1.38.5l-1.38 1.38zm-1.55-1.55a4.36 4.36 0 0 1 5.86 0l-.88.88a3.13 3.13 0 0 0 -4.09 0zm-1.55-1.55a6.55 6.55 0 0 1 9 0l-.88.88a5.32 5.32 0 0 0 -7.19 0z"/></clipPath><path d="m185.35 355.11a17.68 17.68 0 0 1 -17.64 17.66h-141.23a17.69 17.69 0 0 1 -17.66-17.66v-329.52a17.68 17.68 0 0 1 17.66-17.59h141.23a17.67 17.67 0 0 1 17.64 17.64z" fill="#fff" transform="translate(0 -2.06)"/><g clip-path="url(#a)"><path d="m191.24 78.56v-53a23.6 23.6 0 0 0 -23.53-23.5h-141.23a23.59 23.59 0 0 0 -23.48 23.53v23.55a3 3 0 0 0 -3 2.94v5.92a3 3 0 0 0 3 2.9v17.66a3 3 0 0 0 -3 2.94v17.64a3 3 0 0 0 3 3v5.86a3 3 0 0 0 -2.95 3v17.63a3 3 0 0 0 3 2.95v223.6a23.59 23.59 0 0 0 23.53 23.53h141.13a23.59 23.59 0 0 0 23.53-23.53v-247.18a3 3 0 0 0 2.94-3v-23.5a2.94 2.94 0 0 0 -2.94-2.94zm-5.89 276.55a17.68 17.68 0 0 1 -17.64 17.66h-141.23a17.69 17.69 0 0 1 -17.66-17.66v-329.52a17.68 17.68 0 0 1 17.66-17.59h141.23a17.67 17.67 0 0 1 17.64 17.64z" fill="#ebebeb" transform="translate(0 -2.06)"/></g><g transform="translate(0 -2.06)"><path d="m67.66 27.07a1.47 1.47 0 0 1 -2.93 0 1.47 1.47 0 1 1 2.93 0z" fill="#ebebeb"/><path d="m75 28.53h44.13a1.47 1.47 0 1 0 0-2.94h-44.13a1.47 1.47 0 1 0 0 2.94z" fill="#ebebeb"/><path d="m97.08 343.35a11.77 11.77 0 1 0 11.79 11.76 11.77 11.77 0 0 0 -11.79-11.76zm0 20.58a8.82 8.82 0 1 1 8.84-8.82 8.83 8.83 0 0 1 -8.84 8.82z" fill="#ebebeb"/><path d="m167.76 46.19h-141.34a11.71 11.71 0 0 0 -11.71 11.71v267.85a11.71 11.71 0 0 0 11.71 11.71h141.34a11.71 11.71 0 0 0 11.71-11.71v-267.85a11.71 11.71 0 0 0 -11.71-11.71zm8.77 279.56a8.77 8.77 0 0 1 -8.77 8.76h-141.34a8.76 8.76 0 0 1 -8.76-8.76v-267.85a8.77 8.77 0 0 1 8.76-8.76h141.34a8.78 8.78 0 0 1 8.77 8.76z" fill="#ebebeb"/><path d="m176.53 325.75a8.77 8.77 0 0 1 -8.77 8.76h-141.34a8.76 8.76 0 0 1 -8.76-8.76v-267.85a8.77 8.77 0 0 1 8.76-8.76h141.34a8.78 8.78 0 0 1 8.77 8.76z" fill="url(#b)"/><path d="m156.43 53.52h11a2.19 2.19 0 0 1 1.2.21 1.3 1.3 0 0 1 .59.59 2.21 2.21 0 0 1 .21 1.2v4a1.2 1.2 0 0 1 -1.2 1.2h-11.8a2.32 2.32 0 0 1 -1.2-.2 1.37 1.37 0 0 1 -.59-.6 2.19 2.19 0 0 1 -.21-1.2v-3.2a2.21 2.21 0 0 1 .21-1.2 1.3 1.3 0 0 1 .59-.59 2.19 2.19 0 0 1 1.2-.21z" fill="#fff" fill-rule="evenodd"/></g><g clip-path="url(#c)"><path d="m156.43 53.52h11a2.19 2.19 0 0 1 1.2.21 1.3 1.3 0 0 1 .59.59 2.21 2.21 0 0 1 .21 1.2v4a1.2 1.2 0 0 1 -1.2 1.2h-11.8a2.32 2.32 0 0 1 -1.2-.2 1.37 1.37 0 0 1 -.59-.6 2.19 2.19 0 0 1 -.21-1.2v-3.2a2.21 2.21 0 0 1 .21-1.2 1.3 1.3 0 0 1 .59-.59 2.19 2.19 0 0 1 1.2-.21z" fill="#fff" opacity=".4" transform="translate(0 -2.06)"/></g><path d="m170.05 56a1.25 1.25 0 0 1 0 2.42z" fill="#fff" fill-rule="evenodd" transform="translate(0 -2.06)"/><g clip-path="url(#d)"><path d="m168.92 50.83h7.18v8.67h-7.18z" fill="#fff" opacity=".4"/></g><rect fill="#fff" height="4.69" rx=".31" width="12.49" x="155.68" y="52.71"/><rect fill="none" height="4.69" rx=".31" stroke="#3fbca4" stroke-miterlimit="10" stroke-width=".5" width="12.49" x="155.68" y="52.71"/><g fill="#fff" transform="translate(0 -2.06)"><path d="m148.35 60.41v-2.94l-1.62 1.47-.21-.23 1.83-1.71v-.17l-1.83-1.67.21-.23 1.62 1.47v-2.9l2.26 1.89-1.71 1.61 1.71 1.56zm.31-3.23v2.57l1.48-1.24-1.47-1.34zm0-.45 1.47-1.34-1.48-1.23z" stroke="#fff" stroke-miterlimit="10" stroke-width=".25"/><path d="m88.12 60.39v-1.09h-2.58v-.6l.55-.91.57-.92.58-.9c.19-.3.38-.59.57-.86h1v3.6h.75v.59h-.75v1.09zm-1.9-1.72h1.9v-3c-.15.22-.31.45-.46.7l-.48.74-.47.76z"/><path d="m90.72 57.47a.42.42 0 0 1 -.14-.33.44.44 0 0 1 .14-.34.45.45 0 0 1 .33-.14.48.48 0 0 1 .48.48.45.45 0 0 1 -.14.33.44.44 0 0 1 -.34.14.42.42 0 0 1 -.33-.14zm0 2.82a.45.45 0 0 1 -.14-.34.48.48 0 0 1 .47-.47.44.44 0 0 1 .34.14.45.45 0 0 1 .14.33.49.49 0 0 1 -.14.34.48.48 0 0 1 -.34.14.45.45 0 0 1 -.33-.14z"/><path d="m95.17 60.39v-1.09h-2.58v-.6l.55-.91.57-.92.58-.9c.19-.3.38-.59.57-.86h1v3.6h.75v.59h-.75v1.09zm-1.9-1.72h1.9v-3c-.15.22-.31.45-.46.7l-.48.74-.47.76z"/><path d="m100 60.39v-1.09h-2.58v-.6c.18-.3.36-.61.55-.91s.37-.62.57-.92l.57-.9c.2-.3.38-.59.57-.86h1v3.6h.75v.59h-.75v1.09zm-1.9-1.72h1.9v-3l-.46.7-.48.74-.47.76z"/><path d="m102.49 55.11h2a1.63 1.63 0 0 1 1.22.48 1.7 1.7 0 0 1 -1.23 2.92h-1.32v1.88h-.66zm.66.58v2.23h1.16a1.26 1.26 0 0 0 .88-.29 1.07 1.07 0 0 0 .31-.81 1.12 1.12 0 0 0 -.31-.84 1.24 1.24 0 0 0 -.88-.29z"/><path d="m112.46 60.39h-.62v-4l-1.67 4h-.56l-1.66-4v4h-.62v-5.28h.67l1.81 4.37h.06l1.81-4.37h.77z"/><path d="m33 53.83h.63a.63.63 0 0 1 .62.63v5a.63.63 0 0 1 -.62.63h-.63a.63.63 0 0 1 -.62-.63v-5a.63.63 0 0 1 .62-.63zm-2.81 1.25h.63a.63.63 0 0 1 .62.63v3.74a.63.63 0 0 1 -.62.63h-.63a.63.63 0 0 1 -.62-.63v-3.74a.63.63 0 0 1 .66-.63zm-2.81 1.25h.62a.63.63 0 0 1 .63.63v2.49a.63.63 0 0 1 -.63.63h-.62a.63.63 0 0 1 -.63-.63v-2.45a.63.63 0 0 1 .67-.67zm-2.81.94h.62a.63.63 0 0 1 .63.62v1.56a.63.63 0 0 1 -.63.63h-.62a.63.63 0 0 1 -.63-.63v-1.56a.63.63 0 0 1 .67-.62z" fill-rule="evenodd"/></g><g clip-path="url(#e)"><path d="m20.86 48.65h16.56v12.49h-16.56z" fill="#fff"/></g><path d="m41.45 58.7a2.18 2.18 0 0 1 1.38-.5 2.14 2.14 0 0 1 1.38.5l-1.38 1.38zm-1.55-1.55a4.36 4.36 0 0 1 5.86 0l-.88.88a3.13 3.13 0 0 0 -4.09 0zm-1.55-1.55a6.55 6.55 0 0 1 9 0l-.88.88a5.32 5.32 0 0 0 -7.19 0z" fill="#fff" fill-rule="evenodd" transform="translate(0 -2.06)"/><g clip-path="url(#f)"><path d="m35.23 48.65h15.21v12.49h-15.21z" fill="#fff"/></g></svg>