<svg viewBox="0 0 32.42 32.42" xmlns="http://www.w3.org/2000/svg"><rect fill="none" height="30.92" rx="8" stroke="#fff" stroke-miterlimit="10" stroke-width="1.5" width="30.92" x=".75" y=".75"/><path d="m26.4 11.11a8.61 8.61 0 0 1 -2 2.1v.5a11.75 11.75 0 0 1 -3.13 8 10.64 10.64 0 0 1 -8.4 3.56 11.19 11.19 0 0 1 -6.21-1.81 5.62 5.62 0 0 0 1 .05 8 8 0 0 0 5.06-1.75 4.09 4.09 0 0 1 -2.35-.83 4 4 0 0 1 -1.46-2 4 4 0 0 0 .76.1 4.22 4.22 0 0 0 1.1-.15 3.76 3.76 0 0 1 -2.38-1.38 4 4 0 0 1 -.93-2.59v-.1a3.83 3.83 0 0 0 1.81.56 3.91 3.91 0 0 1 -1.76-3.37 3.94 3.94 0 0 1 .49-2 11.07 11.07 0 0 0 8.37 4.21 5.6 5.6 0 0 1 -.1-.9 4 4 0 0 1 4.07-4.11 3.87 3.87 0 0 1 3 1.25 8.84 8.84 0 0 0 2.55-.95 3.72 3.72 0 0 1 -1.75 2.21 9.64 9.64 0 0 0 2.26-.6z" fill="#fefefe"/></svg>