<svg viewBox="0 0 32.42 32.42" xmlns="http://www.w3.org/2000/svg"><rect fill="none" height="30.92" rx="8" stroke="#fff" stroke-miterlimit="10" stroke-width="1.5" width="30.92" x=".75" y=".75"/><path d="m23.48 8.69a9.73 9.73 0 0 0 -7.13-3 9.73 9.73 0 0 0 -7.13 3 9.73 9.73 0 0 0 -3 7.13 9.66 9.66 0 0 0 2.38 6.45 34 34 0 0 1 4.75-1.69c.11-.07.16-.25.16-.53a3 3 0 0 0 -.21-1.27 8.08 8.08 0 0 1 -.48-1.64 4.7 4.7 0 0 1 -.73-1.74 2.91 2.91 0 0 1 0-1.48v-.1a5 5 0 0 0 -.16-2 3.37 3.37 0 0 1 .79-2.75 4 4 0 0 1 3.07-1.48h.95a3.79 3.79 0 0 1 3.06 1.48 3.34 3.34 0 0 1 .79 2.75 4.74 4.74 0 0 0 -.15 2 .16.16 0 0 1 0 .1 3.62 3.62 0 0 1 0 1.48 3.71 3.71 0 0 1 -.74 1.69 6.43 6.43 0 0 1 -.48 1.69 3.29 3.29 0 0 0 -.17 1.22c0 .35 0 .54.1.58q2.64.8 4.92 1.69a9.7 9.7 0 0 0 2.37-6.45 9.69 9.69 0 0 0 -2.96-7.13zm-14.89-.63a10.56 10.56 0 0 1 7.76-3.23 10.6 10.6 0 0 1 7.77 3.23 10.56 10.56 0 0 1 3.22 7.76 10.59 10.59 0 0 1 -3.22 7.77 10.59 10.59 0 0 1 -7.77 3.22 10.55 10.55 0 0 1 -7.76-3.22 10.6 10.6 0 0 1 -3.23-7.77 10.57 10.57 0 0 1 3.23-7.76z" fill="#fefefe"/></svg>