<svg viewBox="0 0 32.42 32.42" xmlns="http://www.w3.org/2000/svg"><rect fill="none" height="30.92" rx="8" stroke="#fff" stroke-miterlimit="10" stroke-width="1.5" width="30.92" x=".75" y=".75"/><path d="m11.93 16a12.21 12.21 0 0 0 1.07 1.75 13.59 13.59 0 0 0 2.9 2.9 14.42 14.42 0 0 0 1.77 1.08l1.9-1.92a.92.92 0 0 1 .43-.24.93.93 0 0 1 .47 0 8.44 8.44 0 0 0 1.53.43 10.41 10.41 0 0 0 1.58.12.89.89 0 0 1 .88.88v3a.83.83 0 0 1 -.26.6.85.85 0 0 1 -.62.26 14.25 14.25 0 0 1 -5.75-1.17 14.83 14.83 0 0 1 -7.83-7.86 14.41 14.41 0 0 1 -1.16-5.75.83.83 0 0 1 .16-.62.86.86 0 0 1 .63-.26h3a.85.85 0 0 1 .62.26.83.83 0 0 1 .25.62 9.31 9.31 0 0 0 .13 1.59 9.49 9.49 0 0 0 .36 1.51.79.79 0 0 1 0 .48 1 1 0 0 1 -.24.42z" fill="#fefefe"/></svg>