<svg viewBox="0 0 32.42 32.42" xmlns="http://www.w3.org/2000/svg"><rect fill="none" height="30.92" rx="8" stroke="#fff" stroke-miterlimit="10" stroke-width="1.5" width="30.92" x=".75" y=".75"/><path d="m19.29 17.36a.66.66 0 0 0 -.21-.51.72.72 0 0 0 -.52-.21.76.76 0 0 0 -.52.23.72.72 0 0 0 -.18.53.65.65 0 0 0 .21.49.73.73 0 0 0 .53.2.67.67 0 0 0 .49-.21.69.69 0 0 0 .2-.52zm4 0a.74.74 0 0 0 -.21-.53.72.72 0 0 0 -1 0 .74.74 0 0 0 -.21.53.69.69 0 0 0 .21.5.72.72 0 0 0 1 0 .69.69 0 0 0 .21-.48zm-8.24 1.86a4.37 4.37 0 0 1 .4-1.81 4.61 4.61 0 0 1 1.09-1.41 5.39 5.39 0 0 1 1.46-1 6 6 0 0 1 1.62-.47 6.48 6.48 0 0 1 2.33.06 5.88 5.88 0 0 1 2.05.91 5.3 5.3 0 0 1 1.19 1.12 4 4 0 0 1 .71 1.47 4 4 0 0 1 .07 2 4.7 4.7 0 0 1 -.86 1.77 4.76 4.76 0 0 1 -.41.47 3.6 3.6 0 0 1 -.47.39.13.13 0 0 0 0 .07.17.17 0 0 0 0 .1c.08.21.16.42.23.64s.14.43.2.64 0 0 0 0a.44.44 0 0 0 0 .1s0 .06 0 .07 0 0-.08 0h-.09c-.22-.11-.44-.23-.65-.36s-.42-.25-.63-.39a.62.62 0 0 0 -.29-.11.72.72 0 0 0 -.31.05 6.29 6.29 0 0 1 -1.35.31 5.79 5.79 0 0 1 -1.38 0 6.08 6.08 0 0 1 -1.76-.45 5.37 5.37 0 0 1 -1.52-1 4.7 4.7 0 0 1 -.95-1.15 4.6 4.6 0 0 1 -.52-1.4.28.28 0 0 0 0-.09.37.37 0 0 1 0-.11v-.26a1.77 1.77 0 0 1 -.08-.14zm-2.36-6.3a.84.84 0 0 0 -.23-.59.73.73 0 0 0 -.57-.24.81.81 0 0 0 -.58 1.38.77.77 0 0 0 .56.25.75.75 0 0 0 .58-.24.74.74 0 0 0 .24-.54zm3.43 0a.76.76 0 0 0 .23.58.74.74 0 0 0 .56.24.77.77 0 0 0 .58-.24.73.73 0 0 0 .23-.56.83.83 0 0 0 -.22-.59.75.75 0 0 0 -.57-.24.8.8 0 0 0 -.58.23.78.78 0 0 0 -.23.58zm4.61 1h-.14a6.68 6.68 0 0 0 -2.15.26 6.23 6.23 0 0 0 -1.94 1 5.64 5.64 0 0 0 -1.2 1.24 4.88 4.88 0 0 0 -.71 1.58 4.28 4.28 0 0 0 -.13 1.12 4.87 4.87 0 0 0 .15 1.13.11.11 0 0 1 0 .05h-.79a8.46 8.46 0 0 1 -.88-.11 5.24 5.24 0 0 1 -.86-.24h-.08-.08l-1 .57-.94.58h-.11a.11.11 0 0 1 -.12 0 .13.13 0 0 1 -.05-.12.49.49 0 0 0 0-.12c.09-.28.18-.57.26-.87s.17-.59.26-.87a.12.12 0 0 0 0-.1s0-.05-.06-.08a6 6 0 0 1 -1.16-1.09 4.54 4.54 0 0 1 -.81-1.5 5.08 5.08 0 0 1 -.19-2.51 5.31 5.31 0 0 1 1.07-2.27 5.8 5.8 0 0 1 1.62-1.44 7.43 7.43 0 0 1 2-.81 9.36 9.36 0 0 1 1.06-.17 7.42 7.42 0 0 1 3.63.62 6.36 6.36 0 0 1 2.11 1.58 5.68 5.68 0 0 1 .78 1.17 4.46 4.46 0 0 1 .44 1.35z" fill="#fefefe"/></svg>