<svg viewBox="0 0 32.42 32.42" xmlns="http://www.w3.org/2000/svg"><rect fill="none" height="30.92" rx="8" stroke="#fff" stroke-miterlimit="10" stroke-width="1.5" width="30.92" x=".75" y=".75"/><path d="m26 12.45c0 .76.06 2.13.06 4.12s0 3.35-.06 4.12a6.1 6.1 0 0 1 -1.61 4.18 6.08 6.08 0 0 1 -4.19 1.61c-.76.05-2.13.07-4.12.07s-3.36 0-4.12-.07a6 6 0 0 1 -4.18-1.61 6.1 6.1 0 0 1 -1.58-4.18c0-.77-.06-2.14-.06-4.12s0-3.36.06-4.12a6.11 6.11 0 0 1 1.62-4.19 6 6 0 0 1 4.18-1.61c.76-.05 2.14-.07 4.12-.07s3.36 0 4.12.07a6.08 6.08 0 0 1 4.19 1.61 6.1 6.1 0 0 1 1.57 4.19zm-8.89-4.07h-3.35c-.32 0-.73 0-1.26 0a9.35 9.35 0 0 0 -1.34.13 4.46 4.46 0 0 0 -.93.24 3.33 3.33 0 0 0 -1.14.75 3.27 3.27 0 0 0 -.75 1.15 4.46 4.46 0 0 0 -.24.93 9.21 9.21 0 0 0 -.1 1.42v1.25s0 .77 0 1.37v2 1.37s0 .73 0 1.26a9.06 9.06 0 0 0 .13 1.33 4.46 4.46 0 0 0 .24.93 3.27 3.27 0 0 0 .75 1.15 3.33 3.33 0 0 0 1.14.75 4.46 4.46 0 0 0 .93.24 9.35 9.35 0 0 0 1.34.13h1.26 4.73 1.25a9.21 9.21 0 0 0 1.34-.13 4.46 4.46 0 0 0 .93-.24 3.33 3.33 0 0 0 1.14-.75 3.44 3.44 0 0 0 .76-1.15 6.19 6.19 0 0 0 .24-.93 10.68 10.68 0 0 0 .13-1.33c0-.53 0-1 0-1.26v-1.43c0-.6 0-.93 0-1s0-.4 0-1v-1.36c0-.31 0-.73 0-1.25a10.86 10.86 0 0 0 -.13-1.34 6.19 6.19 0 0 0 -.24-.93 3.44 3.44 0 0 0 -.76-1.15 3.33 3.33 0 0 0 -1.18-.75 4.46 4.46 0 0 0 -.93-.24 9.21 9.21 0 0 0 -1.34-.13h-1.25zm5.19 2a1.19 1.19 0 0 1 .35.85 1.2 1.2 0 0 1 -1.2 1.19 1.2 1.2 0 0 1 -1.19-1.19 1.2 1.2 0 0 1 1.19-1.23 1.19 1.19 0 0 1 .85.39zm-2.55 2.55a5 5 0 0 1 1.49 3.63 5.1 5.1 0 0 1 -5.12 5.12 5.12 5.12 0 0 1 -5.12-5.11 5.12 5.12 0 0 1 5.12-5.13 4.94 4.94 0 0 1 3.63 1.5zm-1.28 6a3.32 3.32 0 0 0 0-4.71 3.33 3.33 0 0 0 -4.7 0 3.32 3.32 0 0 0 0 4.71 3.33 3.33 0 0 0 4.7 0z" fill="#fefefe"/></svg>