<svg viewBox="0 0 52.44 66.12" xmlns="http://www.w3.org/2000/svg" xmlns:xlink="http://www.w3.org/1999/xlink"><linearGradient id="a" gradientUnits="userSpaceOnUse" x1="39.29" x2="6.67" y1="55.38" y2=".79"><stop offset="0" stop-color="#417de8"/><stop offset="1" stop-color="#13fbe2"/></linearGradient><path d="m47.51 1.18h-43.07a3.81 3.81 0 0 0 -3.59 4v56.06a3.55 3.55 0 0 0 3.59 3.53h43.07a3.56 3.56 0 0 0 3.59-3.53v-56a3.82 3.82 0 0 0 -3.59-4.06z" fill="url(#a)"/><g fill="#fff"><path d="m46.74 0h-41.04a5.7 5.7 0 0 0 -5.7 5.7v54.72a5.7 5.7 0 0 0 5.7 5.7h41a5.7 5.7 0 0 0 5.7-5.7v-54.72a5.7 5.7 0 0 0 -5.66-5.7zm-41.58 1.66h42.08a3.48 3.48 0 0 1 3.51 3.46v51.92h-49.05l-.05-51.92a3.48 3.48 0 0 1 3.51-3.46zm40.36 62.69h-39.82a4.1 4.1 0 0 1 -4.05-3.73l.05-2.44h49.09v2.44c0 2.06-2.67 3.73-4.61 3.73z"/><path d="m5.7 15a.56.56 0 0 0 .57-.57v-8.16h8.55a.57.57 0 0 0 0-1.14h-9.12a.56.56 0 0 0 -.57.57v8.75a.56.56 0 0 0 .57.55z"/><rect height="1.53" rx=".77" width="6.64" x="22.9" y="60.67"/></g></svg>