<svg viewBox="0 0 46.65 46.46" xmlns="http://www.w3.org/2000/svg" xmlns:xlink="http://www.w3.org/1999/xlink"><linearGradient id="a" gradientUnits="userSpaceOnUse" x1="34.7" x2="11.24" y1="54.7" y2="8.98"><stop offset="0" stop-color="#417de8"/><stop offset="1" stop-color="#13fbe2"/></linearGradient><path d="m46.65 22.34-23.33-22.34-23.32 22.34h5.33v24.12h35.53v-24.12zm-37.77 20.55v-24.13l14.44-13.85 14 13.41v24.57z" fill="#fff"/><path d="m6.54 45.47v-27.17l16.78-15.31 16.15 15.36v27.13z" fill="url(#a)"/><g fill="#fff"><path d="m20.24 24.9-.95-1.37a6.72 6.72 0 0 0 -1.66 9.32 6.63 6.63 0 0 0 9.27 1.67 6.72 6.72 0 0 0 1.66-9.32 6.59 6.59 0 0 0 -1.66-1.67l-.9 1.37a5 5 0 0 1 1.24 7 5 5 0 0 1 -7 1.25 5 5 0 0 1 -1.24-7 4.75 4.75 0 0 1 1.24-1.25z"/><path d="m22.26 20.65h1.67v6.7h-1.67z"/></g></svg>