<svg viewBox="0 0 55.03 35.92" xmlns="http://www.w3.org/2000/svg" xmlns:xlink="http://www.w3.org/1999/xlink"><linearGradient id="a" gradientUnits="userSpaceOnUse" x1="41.47" x2="15.89" y1="41.58" y2="-3.52"><stop offset="0" stop-color="#417de8"/><stop offset="1" stop-color="#13fbe2"/></linearGradient><path d="m52.26 31.58a.22.22 0 0 1 -.21.23h-48.62a.22.22 0 0 1 -.21-.23v-30.18a14 14 0 0 1 2.36-.32l44.71-.32a19.45 19.45 0 0 1 2 2.35z" fill="url(#a)"/><path d="m54.14 31.36h-1.38v-28a3.37 3.37 0 0 0 -3.36-3.36h-43.77a3.37 3.37 0 0 0 -3.36 3.36v28h-1.39a.89.89 0 0 0 -.88.89v1.65c0 1.58 1.38 2 3 2h49.27c1.57 0 2.76-.44 2.76-2v-1.65a.89.89 0 0 0 -.89-.89zm-50.92-27.63a2.38 2.38 0 0 1 2.55-2.65h42.94c2.18 0 3.14 1.37 3.14 3.25v27.06h-48.63zm51 30.41c0 .61-.67.93-2.23.93h-49.23c-1.37 0-1.85-.29-1.85-.89v-2.06h22.83v.62c0 .85.73.81 1.58.81h4.44c.85 0 1.52 0 1.52-.81v-.62h22.89z" fill="#fff"/><path d="m54.14 34.14c0 .61-.67.93-2.22.93h-49.19c-1.37 0-1.84-.29-1.84-.89v-2.06h22.83v.62c0 .85.73.81 1.59.81h4.43c.85 0 1.52 0 1.52-.81v-.62h22.88z" fill="#3c88e7"/></svg>