<svg viewBox="0 0 47.68 75.09" xmlns="http://www.w3.org/2000/svg" xmlns:xlink="http://www.w3.org/1999/xlink"><linearGradient id="a" gradientUnits="userSpaceOnUse" x1="21.46" x2="21.46" y1="17.98" y2="114.79"><stop offset="0" stop-color="#4f55ea"/><stop offset="1" stop-color="#13fbe2"/></linearGradient><linearGradient id="b" gradientUnits="userSpaceOnUse" x1="21.46" x2="21.46" y1="-35.6" y2="61.66"><stop offset="0" stop-color="#13fbe2"/><stop offset="1" stop-color="#4f55ea"/></linearGradient><linearGradient id="c" x1="42.07" x2="8.51" xlink:href="#a" y1="83.55" y2="8.66"/><path d="m9 71.58c.27 1.62 2.64 3 4.16 3h16.43c1.52 0 4-1.37 4.28-3l1.63-9.58h-28.08z" fill="url(#a)"/><path d="m7.15 13.67h28.61l-1.66-9.67c-.27-1.61-2.62-3-4.17-3h-17.09c-1.55 0-3.76 1.37-4 3z" fill="url(#b)"/><g fill="#fff"><path d="m29.81 75.09h-16.71a5.61 5.61 0 0 1 -5.38-4.49l-1.72-9.6a1.2 1.2 0 0 1 1.17-1.4h28.59a1.15 1.15 0 0 1 .91.43 1.17 1.17 0 0 1 .26 1l-1.74 9.6a5.61 5.61 0 0 1 -5.38 4.46zm-20.81-4.42c.27 1.62 2.64 3 4.16 3h16.43c1.52 0 4-1.37 4.28-3l1.63-9.6h-28.08z"/><path d="m44.28 38.14h-2.56a1.19 1.19 0 0 1 -1.19-1.14v-10.78a1.19 1.19 0 0 1 1.19-1.22h2.56a3.41 3.41 0 0 1 3.4 3.4v6.31a3.4 3.4 0 0 1 -3.4 3.43zm-2.62-1.27h2.82a2.25 2.25 0 0 0 2.08-1.87v-6.78a2.07 2.07 0 0 0 -2.08-1.92h-2.82z"/><path d="m35.76 15.5h-28.61a1.18 1.18 0 0 1 -.91-.43 1.2 1.2 0 0 1 -.26-1l1.74-9.6a5.61 5.61 0 0 1 5.38-4.47h16.71a5.6 5.6 0 0 1 5.38 4.49l1.74 9.6a1.16 1.16 0 0 1 -.26 1 1.18 1.18 0 0 1 -.91.41zm-28.61-1.83h28.61l-1.66-9.67c-.27-1.61-2.62-3-4.17-3h-17.09c-1.55 0-3.76 1.37-4 3z"/></g><path d="m41.86 52.84a8 8 0 0 1 -7.94 7.94h-24.92a8 8 0 0 1 -7.94-7.94v-30.59a8 8 0 0 1 7.94-7.94h24.92a8 8 0 0 1 7.94 7.94z" fill="url(#c)"/><path d="m34.57 13.11h-26.23a8.36 8.36 0 0 0 -8.34 8.35v32.17a8.36 8.36 0 0 0 8.34 8.37h26.23a8.36 8.36 0 0 0 8.34-8.35v-32.19a8.36 8.36 0 0 0 -8.34-8.35zm7.29 39.73a8 8 0 0 1 -7.94 7.94h-24.92a8 8 0 0 1 -7.94-7.94v-30.59a8 8 0 0 1 7.94-7.94h24.92a8 8 0 0 1 7.94 7.94z" fill="#fff"/></svg>