<svg viewBox="0 0 695.78 334.03" xmlns="http://www.w3.org/2000/svg"><g fill="none" stroke="#fff" stroke-miterlimit="10" stroke-width="3"><path d="m654.26 15.38h-597a11.15 11.15 0 0 0 -11.16 11.15v280a11.15 11.15 0 0 0 11.15 11.15h597a24.16 24.16 0 0 0 24.16-24.16v-84.62c-.85-5.06-7.84-6.47-7.84-6.47q-13.51-3.24-13.88-13.74v-47.08c3.74-8.33 7.78-9.19 13.88-11a11.08 11.08 0 0 0 7.84-7.79v-83.29a24.16 24.16 0 0 0 -24.15-24.15z"/><path d="m652.65 1.5h-609.52a41.63 41.63 0 0 0 -41.63 41.63v247.77a41.63 41.63 0 0 0 41.63 41.63h609.52a41.63 41.63 0 0 0 41.63-41.63v-247.77a41.63 41.63 0 0 0 -41.63-41.63zm-614.48 193.2a9 9 0 0 1 -9 9h-7.78a9 9 0 0 1 -9-9v-55.37a9 9 0 0 1 9-9h7.79a9 9 0 0 1 9 9zm640.25-71.85a11.08 11.08 0 0 1 -7.84 7.79c-6.1 1.78-10.14 2.64-13.88 11v47.08q.36 10.5 13.88 13.74s7 1.41 7.84 6.47v84.6a24.16 24.16 0 0 1 -24.16 24.16h-597a11.15 11.15 0 0 1 -11.16-11.18v-280a11.15 11.15 0 0 1 11.15-11.13h597a24.16 24.16 0 0 1 24.16 24.15z"/></g></svg>