<svg viewBox="0 0 823.65 823.65" xmlns="http://www.w3.org/2000/svg" xmlns:xlink="http://www.w3.org/1999/xlink"><linearGradient id="a" gradientUnits="userSpaceOnUse" x1="424.78" x2="406.25" y1="1525.66" y2="-67.79"><stop offset="0" stop-color="#5c1169"/><stop offset="1" stop-color="#affbff"/></linearGradient><path d="m413.18 745-6.62.77 9.38 2.89 3-.13.39-1.09-2.44-1.22zm-14.18-5.56-1.86 1.41-3.92-.06-2.37 2.31 3.79.19 4.87-.45 8.22-.64-1.8-1.86-4.36.26zm35.5-.19-6.43 1.75-4.69.45-4.38-1.24-5.65.9.07 1.54 9.37.45 10.65-1.48zm28.56-1-2.18.7-4.95.51-6.09 1.35-.84 1-7 2-3.09 2.7-.64 1.41.84.45 6-1.22 4.62-3.34 6-1.6 7.38-2.38 2.63-1.41zm201.23-8.41-1.61.77-2.95 1.92-4.94 3.21-3.16 2.26-.77-.32-2.44 2.25-4.23 3-3.41 1.67-5.78 2.8-4.3 2.7-2.7 1.6-3 2.44-.84 1.28-3.4 2.76.77.07 4.62-2.18 8-4.56 2.89-2.06 3.96-2.45 4.81-3.21 4-2.5 4.24-2.51 2.24-1.54 2.57-1.47 4-3-.89.13h-.84l3.87-2.9zm-348.8-8.41-4.56 3.4 6.29 1.48 1.35 2 12.71 3.79 2.83-.13 5.13 1.15 8.15 2.64 6.61 1.47 7.32 1.09 6.36.39 7.76 2.31 8-1.16-8.73-3-10.59-1.67-2.64-3-13.09-3.46-1.54 1.6-13.42-2.18-1-1.67-2.95-.77-5.65-2.63zm200.72-2.76-1.54 1.8-1.29 1.86.52 3.21 3.72-3.66.06-2.12zm168.09-1.67c-.29.27-.54.58-.83.84h-.39zm-220.48-1.92-7.19.77 1.35 1.93 4.94.51 2.63-1.8zm16.82-3.27-8.73 1.15-1.74 2.76 4.88-.32 4.05-.77 5.84-.32 5.9 1.22-2.5-3.28zm211.88-8.35-1.48.26-2.56.64-1 .13-1.48.32-2.05.64-2.06 1.41.07.71 1.92.26 2.06-.39 2.44-.9 2-1zm-108.28-9-12 1h-11.43l-7.19 1-4.94-.45-5.78-.32-6.1 1.31-7.89 4.62-5.85 6.23-7.06-1.53-1.86-7.51-1.09-1.6-11.17-.2-3.59 2.12-9.5 2.57 2.95 2h6.26l2.76 2.44 10.21-1.6.57 1.15-5 .77-7.51 2.89 5.26 1.54v2l1.54 1.48 2.7-.84 2.05-2.63 10.42 2.48 5.64-.77 13 1.09 3.09 3 1.47 4.43-4.3 2.18-3.14 4.17 8.53-2.12 1.74-1.6 6.74-.9 5.58 1.93 6.8-1.67 3.6-.39 5.26-3-.51-2.88 4.11-2.64 5.58-3 8.15-.9 2.89 2.63 3.34 1 4.49.9 6.16-1.8 5.2-1.61 1.35.45 4-1.92.9-1.48-6.22.9 1.92-1.54-4.6 1.16.51-2-3.59 1.54-3.47-3-5.32-.77-1.16-2.5 5.84-2.57-1.35-1.86-10.39 1-.77-2.38-3.47-1.09zm-134.16-2-7 4.11-8.28.58-9-.45-5.58-1.41-6.1 3.78-1.54 2.12-3.6 7.45-1 3.91-3 3.08 2.18 3.28 3 .06 1.09 4.49-2 4.24 3 1.35 4.56-.64-.32-6.62-.58-5.45 4.75-1.54-.51 4.68 5.14 2.64-.9 1.79 1.73 1.29 7-2-3.32 3.8 2.82 1.47 3.79-1.41.07-3-6.36-5.2 1.28-1.67-6.74-6 6.3-2.06 3.14-2.95 3.08.58.58-2.31-13.29 2.12-3.91 2.24-6.42-4.36 1-3.79 6.29-.77 11.93-.51 6.87.7 5.39-1.22 5.72-5.45zm20.41-4.46-2.37 2.12-1.41 4.24 2.12 6.29 2.88 2.89 2-.84-2.95-2.31 1.09-3.14 3.66.06.39-4.49-.71-2-4.17-.07zm233.2-7.7-.58 1.15.9.52 1.73-1.67zm-72.09-2.63-3.6 1.63.45 2.5-3.45 3.2-1.86 2.24-3.53 1.86-.45-2.24-.9.51-1.09 2.57-3.4 1.73-5.52 1.54-.64 1.61 3.47-.13 5-.71 3.28-1.35 3.2-2.37 3.47-2.5 1-1.74 3.21-1.73 2.24-3.72.32-2.64zm72.86-.77-1.86.51-.9 3 .25.58 1.1-1 1.09-.45zm-26.77-.07-1.54.13-3.46 1.48-.65 1.92h1l3.21-1.54 2.12-1.41zm-21.05-.38-.39.9 2.12.64 2.38-.32 1.15-.84-2-.25zm27.92-.58-1 .51-2.95 1 1.48 1.34 3.66-2.31zm-38.19-1-.9.9 1 2.89 2.31 1.61 2.31.44 1.67-1.21 1-1.74-2.57-.13-2.57-1.47-1.67-.2zm26.76-1.6-4.17.58-2.44.32-.9 1 1.93.32 2.76-.13 4-.64-.12-.77zm-45.13-.39-3.28.06-1.73 1.86 4.36-.45 3.41.52 2.63.32 1.28 1.22 1 2.24 2-2.11-.57-2.12-2.19-.45-2.31-.9-2.6-.07zm51.92-2.51-1.79 1.16.7 1.93 3.28 1.34 1-1.28-1.8-.77zm-289.29-5.84-3.63 4.24-5.52 3.53-6.1 2.63-2.83 1.8-3.55 3.14-5.13 3.86-8.47.32-3 .64-1.48 4.3-5.45.32-5.2-2.37-4.17 2.88-.84 4.56 1 4.56 3.41 4.68 3.53 1.8 1.1 6.58 5.78 1.22 4.68.26 2.57 2.57 8.41-1 3.6 1.8 5.07.64 2.82 3.08 8.09-1.67 1 1.74 2.76-7.13.13-4.81 6.87-3.15-.26-4.49 2.38-3.4 8.47-.45-8-4.94 1.22-2.38-5.2-5.13 4-4.69 5.31-1.67-1.29-2.63 4.82-.26.51-2.12-6-1.73-4.65-1.66-.26-2.38-3.66-3zm61.37-16.94.51 4.43-4.94.45-1.16 2.63-5.31 1.9-2.57-2.5-3.79 2.31-4.49 1.73-2.76 4.88 1.22 1.6 5.2-3.27 3.34.06 2.24-2.44 4.5 2.44-2.12 2.83 2.05 3.91 8.35 2.7 2.05-2.7-2.38-4 3.28-3.08 2.69 5.52 2.31-5.32-.44-3.09-.78-3.72-.57-2.12-.64-2.82zm-208.93-1 .45 2.88 6.54 8.09 4.88 4.49 3.34 5.52 5.91 4.95 2.44 4.68 1.92 5 5.91 5.71 5.2 8.15 3.46 4.43 5.2 5.07 3 3.53 8.92 5.65 6 4.94 7.57 1.28.07-7 1.6-5.59-3.4-3.59-5.14-1.41-2.43-3.15-1.22-3.66-2.44-.64-4-2.5 2.76-3.53-5.2-3.4-3.92-5.14-5.71-4.88-6.87-1.73-6.29-7.25-3.59-3.21-5.07-5-5.59-7-10.14-4.1zm505.15-4-.64.25-1.22 1.74-1.36 1.42-2.05 3-.45 1.34 1.73-1.79 2.5-3.08zm-305.71-3.09-5.14 5.91 1.1-4-3.86.45-.77 3.72-1.73 1.67-1.41 1.6 4.36 3.85 2.19-1.79 2.18-3.79 2.5-2zm-32.09-.13-3.66 5.84-4.3 4-5.07 3.4-3.54 3.92 9.44-5.2 3.71-3.93 4.69-3.21zm16.68-3.21 1.1 2.76-.52 3 .32 2.76 4.43-1.93 3.21-2.56.13-2.51-4.49.2zm23.3-4.88-6.74.26 4.37 4.3.13 2.25-4.11-.26 1.15 3.53 2.12.19.39 4.11 3.34-1.54-1.8-3.53-.19-1.92 5.39 1.22-2.12-6.55zm305.92-1.41-.83 1.09-2.57 3.73-1.16 1.54-2.18 2.95-.19 1 2.63-3.53 2.63-3.66.39-.57zm-340.19-3.08 3.59 4.62 3 3 1.8-5.27-2.42-2.14zm2.63-31.39-2.25 5.78-.64 9.82-2.82-2 .25 6 1 2.69 3.47 3.53.9-2.24 2.05 1.41-2.18 1.6-.32 2.51 3.46 1.28 6.29-1 4.5 3.53 1.79-2.31 2.57 3.08 5.52 2.76.64-2.82-2.31-1.35.64-3.34-8.73-3-3.08.83-3.66-.58-1.6-4.87 1-5 4-2.18 1.73-5.27-2.37-4.49 1.19-2.77-.64-1.61-2.16 1.75-4.17-1.74zm-264.07-13.35-3.59 7.58.06 8.47 2.25 5.84 4.88 1.54 2.5-.26 1.41-5.22-2-7.32-2.2-5.36zm193.66-.83-7.39.9-3.46 2.44-.19 5.52 5.32 2.69 6-2.31 1.8-3.53 3.08-2.44-1.35-2.63zm75.22-30.36-5.2 5.13-3.78 6.61.77 4.88 3.46 5.52 2.83-5.39 3.85-10.72 1-4zm71.83-69.26-2 3.27-3.4-.25-2.7 4.68.32 3.28 4.11 1.34 1-4.3 2.76-2.12 2.69 1.8 2.64-4.75-1-2.24zm-492.9-51.8c.12 2.9.34 5.81.52 8.73-.19-2.91-.39-5.81-.52-8.73zm523.77-5.8-5.07 2.69-1.15 5 2.69 7.51-1.47 9.3-2.51 3.47-6.61 8.73-4.23-2.5-3.66 13.54-6.23-.26-11 4-3.59 5.39-5.4 4.43-2.67 4.7-5.37 2.83 2.89 4.43 4 1.54-.9 6.42 3.21 2.31 3.59-3.4 2.64-12.33-6.49-4.3 6.81-1.09 6.42-4.36 9.75-3.34 1 5.14 4.24 1.92 6.8-9.56 9.82-2.7 6.42-5 1.8-5.58-1.67-3.21.83-6-1.73-7.06 3.21-8.28-1.22-5.65zm-4.68-29.66.06 5.78 1.16 9.95-5.14 1.8-1.15 6 2.31 6.74 5.58-1.61.77-8.34 9 2.5 2.31-8.15 6.48-4.17-3.46-7.26-2.38 4-3.73-.58-4.3-1.15zm-519.09-.93c-.32 6.94-.41 13.94-.38 21 0-.86-.06-1.7-.07-2.56 0-6.2.18-12.33.45-18.44zm2.31-28.5c-.76 6.63-1.34 13.35-1.81 20.09.45-6.74 1.05-13.45 1.81-20.09zm784.12-18.55-.26 1 .07 1.22.12.58.84-.65-.13-1zm3-3.79-.25.06.06 1.93h.19l.71.51.38-1.41.07-.32-.07-.51zm-783.39-2.63c-.78 4.44-1.61 8.85-2.25 13.35.64-4.49 1.46-8.92 2.25-13.35zm785.52-.58-.51 2.12.26.9.51-2.38zm4.5-1.54-.45.13-.32.38-.64 1-.13.32.19.7.51.64.32 1.61.2.77 1 1 .64 1.54.51-.52-.25-1.47-.2-2.31-.25-2.89-.13-.39zm-2.83 0-.57.45-.52 1.22.13.9.13.25.32-.19.64.26.07-1.93zm-289.55-4.56-1.41 1.41 2.57 2.7-2.63 4.17 2.5 9.44 4.49 6 2.57 9.18.51 5.46 2.7 7.25 1.41 6.87 2.44 5.52 1.48-6.16 4.68 3.08-1.28-4.82-6.48-5.71-.32-10.65 7.06.26-8.22-10.66-3.92-6.35-2.11-6.68-3.53-6.1zm-366.18-66.26 2.31 2.44 3.66-1.22 2.57 2.05 4.17 1.67.32 3.91 2.12 3-2.63 3.6-4.94 4.23-1-3.59-2.35-2.09-3.53 3.47-1.28-3.79-1.48 1.74-.19 3.08-3.28 6 .71 5.71-1.18 2.35-2.31 1.29-1 1.41-2.18 4.36 3.4-3.33 2.82 1.47-1.92 3.92-.9 5.65-3.34-1.42-1-4.62-4 3.53 1.16 2.7-3.41 2.63.33 4.56-4.56 4.94-2.39 4.35-1.15.89-4.55-4.41-2.31-6.29.64-5.19-1-4.63 2.44-4.87 2-2.57 1.67.19 1.8-1.09 3.66-3.21 1.92 2.57.58-2.44-.64-1.93 2.24-5.32 1.48-4.43 3.59-9.57 3.27-2.82 3.15-7.58zm-62-11.92-1.61 2.7-.39 2.56 2 2.51.32-.45.71-1.16 2 1-1.6-2.44-.19-3-1 .39-.07-.26zm4.23-37.74-1.6.83-1.55 5.83-.64.64-.39 5.65 1.22-.71-.27-1.78.71-.58.64-3.33.19-3zm374.67-8.41-2.12 1.22-.84 2.82.45.2 4.24-.39 2.89-.9-1-1.47zm153.28-9.31-1.29 1.54v3.08l2.25-.44 1.8-.9-.32-2.12zm-142.11-3-4.95.13-3.46.26.64 2 4.3 1.09 3-.52zm-18-.58-4.36.84-1.8 1.6.51 4.3 4.95 3.08 2.37-2.11 6.48-1.74-.83-4.68zm139-.7-1.86 1.6-2.51.71-.06 1.73-1.86.51 2.18 1.61.84-.13.64-2.12 1.54-.13 2.12-.77-.45-2.44zm-58-14.25-3.27 1-1 1.16.13.32 1 3.53 2 1 1-1.79 1.09-2.12-.26-2.44zm-140.62-2.39-1.28.38-5.59 6.92 8.8-.45 1.15-2.31-2.24-3.91zm243.79-5.14-2 .26-.52 1.54.77 1.93 1.93 3.53 2.82 1 1.74-.64-2.06-3.91zm-245.91-7.31-2.82.51-4.94 2.63.83 1.54-1.47 4.17.83 2.76 2.7 2.7 3.21.06 2.43-4.94-.12-6.1zm-282.87-1.25-1.93 1-4.42 7-1.22 2.37-2.7 4.17 1.8-.83 1.54-1.61 2.82-1.09.71-2.69 1.09-3.53zm212.85-.39-2.64 1.93h-7.44v1.6l-7.06.26-3.4 1.86-2.19-.77-3.33 2-.07 3.66-2.5 2 2.5 5.39 1.16.58 3-5.9 4.96-3.22 7.38-1.41 7.32-1.79h8.66l5.78 1.35 6.42 1.48 2.44-.71 1.41-2.31-2.63-1.22-3.79-.19-4.11-2.63-6.74-1.16zm-192.57-23.78-2.95 2.31-5.2 3.4-1.86 2.12.58.58-1.16 1.76 5.39-3.08 4.24-4.11-.38-1zm6.29-2.18-1.28.19-3.47 2.5-1.79 2.18 2.82-.83 4.24-2.76zm216.77-.07.51 1.8-2.31.25-1.22 1.48 1.54.58 1.15-.32.9.58 1.41.7 1.16-.13.9-1.67-1.48-.32-1.79.13 1.73-.83-.64-1.16zm294-14.38 1.67 2.89-.13 1.09 1.8.71 2.24.32 1-.9 2-.26 1.61-1-.52-1.15-3.02 1.1zm-447.58-4.94-2.5 1-4.5 3.79 3.79.32 3.21-1.6zm135.88-.19-2.37.7-1.61-.64-2.05 2 2.5 2.18 1.8-1.6 2.7-.58zm15.15-3.21-3.46.9-.45 1.22-1.93.19-1.73 2.76.45 2.57 3.66 1 2.63-1.86 2.05-2.18-1.92-.77 1.92-1.22zm-2.12-6.23-5.58.19-6.48 1.48-2.57 1.41-2.06-1-5 2.24-.19 1.35 5.52.51 1 .9 4.88.52 2.12 2.44 6-3.15 2.76-1 .19-1.22-2.18-.51.38-1.22 2.57-.32zm313.5-.19-1.8.32v2.31l-1.35.64-1.09.45 1.22 2.63.32 1.54.64 2.76 1.35.65 2.12-.13-.9-2.83h1.09l.06-2.11 1.22-.32-1.15-4.18zm-166-16-4.63 1.16 2.06 1 1.2 1.4 5.59 1.15 6 .9.19-1.67-2.31-1.54-4.17-1.35-1.09-.89zm-15.74-2.44.06 1.42.26.51 2.5.19.83-.25-1.47-1.35zm5.39-1.54-1.93.32.45 1.48 1.93 1 2.5.06.45-1.92zm29.14-1.86-1.22 1.86-.64 1.48 2.24 3.06.13 1.93 3.92 4 2.95-1.67 4.88.7 5.84.71 2.31.32 1-3.59 2.12-1-5.84-3.53-2.51.32-5.52-1-6.87-2.38zm-41.42-5.6-1.47 1.41-1.35 1.8 1 2.76 1.22 1.67 1.86-1v-1.54l2.44-.06-2.12-1.67-.26-2zm22-1.67-3.15.45-2.34 1.22 1 1 1.93.45-1.35 1.1-2.09 1.33.51 1.16 2.89.06 3.47-3.21 1.67 1.86-1.35 2.76.9 3.34 2.57.52h7l-.38-1.74-5.53-4.63 4.75 1.48 1.67-.64-1.87-1.61-5.39-1.92zm-27.16-.39-1.79.9-.07 1.74.32.57 1.29.9 1.73-1.28 1.16-1.35v-1.19zm-.41-2.94-.57.32.12 1 2.44 1.28.84-1-2.12-1.41zm-9-.2-4.82 1.67-2.56.45.38 1.67-1.28 2.63 1.09 1.35 1 1.48-.77 2.37 2.31.83.52-1 1.21.26 1.93-.71 2.5-1 1.29-1.8.19-1.61-2-1 1.92-.45 1.48-1.09.18-1.85-2-1.53zm-222.54-.9-3.66 1.29-4.75.58 1 1-2.12.9-1.28-.64-1.93.71-3.66 3.08-4.57 2.18-2.5.07 4-3.79h-2.64l-3.85 1.8 1.16-2.38-2.5 1-4.77 4.3 1.18-2.17-.9-2.83-2.31 1.61-.13 1.48-2.89 2.56.51 1.29-2.12 1.47-2.76 4.37-3.08 3.72.58 1.86 3.4-1.73.39 1 3-.45 3.47-3.47 2.56-1.15 7-2.64 2.28-1.83 8.47-3.27 2.57-2.57 2.57 1.67 3.66.26 2.31-2.57 1.48-2.25 3.2 2.06 2.06-2.63 2.12-1.74-2.31-1.54zm268.82-1-4.5.38v1.22l2.12 1.29 1.16.12zm-21-1.8-3.85 1.54-2.12 1.41-1 1.8.71-.26 1.55 1.17 3.46.32 1.22 1 3.53-1.92-2.5-1.22 2.63-1.35-.77-1.35zm-4.43-4.24-2.38.65-.64 1.15-.06 1.61 3.14.32 2.7-.77-.84-1.61zm-248-.06-5.91 1.67-2.31-1.35-4.62 3.53-2.18 4 2.12 1.28 3.78-.83 1.84.9 5.59-2.83 1.86-1.92-.26-1.61zm221.12-3.08-5.58 1-.51.89 2.69.52-.32.83-2.76.58-1.54 1.22-2.76.58-2 1 .13 2.12-1.22.52 1.54.83-4.07-.26-1.15.64-2.83.26-3.08 3.08-2.18 1-3.08 2.31 2.32.16-1.16.84-2.56.71-2.57 1.79-.13 1.16 1.6 1.28 1.8.64 2.25.58 1.73.45 1.73.58 2.7-.32.19.57 2.63.39 1.74-.06 1.47-.39 2.12-1.93.13 1.42.9.51 2.44-1 2.25.07 1.09.25 2-.12 1-1.29v-1.58l.65-1.73-.65-1.93-3.91-1-2.18-1.16 2.76-.9.57.71 2.89 1.15 1.16-2-.45-2 1.41-1.09 2.95-.06 2.25-1-1.48-1.42.07-2.82 2.31 2.76 1.09.06 1.67-2.63 3.4.26 1.48-1.54-2.66-1.21-1.86-1.15-5-1zm59.83-1.54-2.12.7 1.09 2.89.58 2.89-2.89 1.61-3.72 2.5-.32 1.92.57 1.42 2 .7 4.18-2.57 2.88-.12-3.85 2.56-.45 1.61 4.24.51-.9 2.38 4.48 2.32h-3.2l.13 1.47 6.55 2.57 3.15.52 5.32.44-.51-2.63-2.05-2.12 5.19 2.83 1.48-1-1.73-2-3.33-2.97-1.48-2.89 2.83 1.54 1.73 2.06 3.08 2.05 1.48.83 2.76-2.44-1.93-1.21-.47-2.32 1.68-1.23-2.5-1.92-5.84-4-4.94-2.12-2.4-1.44-1.8-2.64-2.69-2.5-2.31.19-.5 1.43zm-16.88-.39-4.05 1.93.77 2.37-3.53.32-.77 1 3.34 1.22 1 1.6h4l1.22-2.5 2.67 2.27 1.47-.64-.64-4.18.45-1.47-1.35-1.16zm-6-1.41-4.75 1-2.83-.45-5.77 1.26 2.38 2 3.27 1.67 2.7.13 2.56-.64 2.06-1.22 2.37-2.7zm-33.45-1.73-1.73.57-.58 1.48.84 1.73 2.5 1 3.53.77 3.21.19 2.12 1.09 1.92 1 .2 1.1.9 1.41-1.67 1 .06 1.54 2.7 1.22.25 1.67 2.44 1.54 2.19-.9-.26-1.67-2.38-1.73.2-2 1.73-1.48 1.48-1.79-3.15-2.76-2.31-1.42-3.59-1.22-5.46-1.15-1.93-1.09zm47.5-3.47-.25 1.48-.2.7.52 1 .9 1.73 3.14-.13 3 .39-.71-2.35-2.12-.7-1.61-2.06zm-51.54-4.3-.38.9 2.31 2.5 4.1 1.41 1 .07 1-1.09-.83-2.25-.45-.32-2.5-.13-2.11-.5zm-136.74-2.81-7.26 2.11.71-1.92-8.22 3.47-3.78 1.79-1.29 1.48-3.53 5.2.77 2.82 5.59-1 2.5 1.09 3.72-2.25 1.09-3 3.92-1.29 1.09-2.89 6.36-.89 2.88-2.12-.89-1.93-5.91 2.26-1.28-.39zm146.47-13.55-2.31.45-.51.32-.71 1.09 1.54 1.16 2.57.13 2.18-1.22.32-1.41zm63.68-2.31 1.73 1.93 1-.07-.57-1.28 2.37-.32-.13-.26zm-44.81-2.69 1.42 1.22 2.31.45-.84 1 2.51 1.61 2.14 1.69.9 1 1.86.13-.7 1.09 1.67.84 3.5-1.55 2.63-1.42h3.91l-4.17-1.22.64-1.34-5.58-.45-4.24.13-.51-1.35-4-1.8zm7.77-.52-.51.39 4.11 1.22 3.46-.13v-.71l-2.12-.7zm-4.56-3.85-2.37.64.38.65 1.22.32 1.86-.26.33-.06-.2-.78zm-45-6.61.32.77 3.01 1.54 3.72 2.38-7.31-2.51-4-.9-1.48 1.54 1.48 2.38 1.09.71 3.79 1.47 2.63 1.73-.9 1.42-3.88-.07-3.92-2.76-3.46-1.24-5.59 2.76-1.09 1.8 4.43.32 3.49 2.65 4.11 1 5.58 2.37-5.13.9 1.54 2.95 1.73 1.48 5.17 1.83 1.47 2.31h4.53l-.45 1.41 2.11 2 3.6 2.57 2.82-.77 4.75.19-1.92 1.86.7 4.11 5.91.19 4.11-1.73-.39 2.31-3.34 1.41 5.52.9 3.21-.45 4.37-1.8 2.89-2.89-2.89-1.16 3.66-.32-.58-1.54-3-1.67-3.79-2.37-7.64-3.08-4.56-.77-1.86.51-1.09-1.35-2-.64-1.31-2.29 2.06-.38-4.43-1.93-3.21-2-.45-1-.13-1.28 5.07-1.93 1.8-1-.45-1 6.23.83 5.39 1.16 3.4-1.22-1.8-1.29-8.92-1.47-.45.64-3.59-1.86-3.92-1.86 1.48-.45-3.21-1.61-6.36-2.05zm-61.56 0-6.8 1.09-6.31-.58-4.75 1.09v2.12l.13 1.8 2.76 1.22-3.5 2.72-.13 1.73 1.49 1.58-1.09 1.93-3.46 1.6-3 1.61-1.73.64-3.72 3.4-.37 3.51-1.28 1.8-2.57 1-5.52 3.53-2.95 4.43-1.93 4.62 3-1.29 5.39-2.5-.32 2.25 3.27 1.28-4.6-.12-3-.07-2.64 2.25 4.11 1.35 4.88.13 3.4-.64.13 1.09-5.13.83 1.86 1 4.94.45-2.31 1.28-1.61 1.61 1 1.15 3.6-.06-3.08 2.11 5.71 1-1.09 1.09 4.17 2 4.75-.07-.71 2.06-1.73 1.28 4.43.84 5.2 3.05 2.07 2.27 2.31 2.76 2.38-1.16-2.12 2.4.64 1 .39 4.23 2.69.84 3.08-1 1.93-3.53.51-2.37 1.61 2.37 2.24.83.27-1.97h3.92l2.63-1.6 1 .45-4.1 2.24-2.83 1.67.32 2.06 7.71.51 6-1.73 2.35-1.16.06-1.8 3-.51 1.73-3.08-.51-1.8-3.28-1.86 2.63 1 1.48.06 2.76 1.29 2-2.63 1.35 1.28 2.95-.19 3-.71 2.44-1.09-.26-2 1.61-.39 4.36-2.63 1.48-1.54-3.08-1.73.06-.19 5.58.57 1.29-.38-2.06-1.16.13-1.47 1.09-.26 5.91-1.16.83-1.47-2.79-1.99-6.29-1.66 3.21.06 4.49-.64-2-2.7-1.66-1.41-4.24-.06-4.56-.13-3.65-.46-4.75-2.12v-1.5l-2.5-1.38-2.76-3.6-2-2.25-1.53-1.15 1.93-3.21-2-.64-2.19.58-2.31-.9-4.55-1.61 5 .39 2.18-.2.58-1.73-.58-2-3.32-.68-2.12.58-1.22.58-2.44 1.35-.32-2.32.58-1.34 3.59-1.42 1.8-3.4-2.13-.81.45-2-4.81-1.93-1.22-2.12-2.12-1.28-6.87-2.05-3.34-1.67zm38.72-18.49c1.5 0 3 .12 4.49.13h.39c6.9.08 13.77.29 20.6.71h.06l1 .38-4.81.07 4 .45 7 .45 10.44.57 6.67.39c.9.11 1.81.2 2.7.32l-2.76-.19-7.9-.26-6.22-.38-4.31.12-4.81-.32-6.8-.38-9.76-.45h-7.81l-5.65.64-7.35.45-3 .39-3.08.51.77 1 1.86.32h3.41l1.86.9 2.76.32 6.54.19 3.66.77 5.22.85-1.67.9 4 1.93 4.37 2.37 2.37 1.8 2.63-.71 4.17-1.67 5.78-.44 2.18 1.22 3.21.64-.04 2.32-1 1.54 6 1 .57.9 3.28 1.8 2.5 1.15 3.08-.06 3.21.83 4.94 1.74h2.63l2-3.09.2-1.86 6.09-.7-2.88-2.06-1-1.73.83-.9 3.34-.38 5.65.19 7.12 1-1.73-1.16.77-1.8 4.17-.19 3.86.64 4.3 2.25.57 1.53-1 1.15-2.57.58 3.92 1.35 6 2 2.82 1.67 3.79 1.86 1.23 1.39 2.37 1.67 5 3 5.26 1.87-.64.89-2.5-.77-4-.83.06.58 5.94 1.59-1.48 1.34 3.92 2.31-4.24 1.1-1.09.12.45-.57 2-.2-1.92-1.92-1.8-.32-1.41 1.6.45 1.54.13.07-.77.06h-7l-6.23-.38-3.66-1.22-2.31 1-3.53-.19-4.1-1.42-5.27.07-2.05.58-5.07.77-2.18.83-1.87-1.54-4-.83-6.93.12-1.47 1.08.45 1.79-3.14.84-1.06 1.37 1.86 2.18 3 1.41 2.95 1.22 3.34-2.7 4.23-1.41 4.75-.7.26 2.37-3.08 1.41.64 2.51 5.65-.52-3.47 2.31 3.21 2.19-3.59.32-1.35 3.85.26 2 1.84 1.56 5.14-.52 4.56-2.37-.71-2 .13-2.44 4.75-1.54 1.63.87 4.49-.77-3.68 1.77 1.92 2.44 2.57.64 2.38-1.22 2.95 1.8 3.91 1.67 1.48 3 2.57 1.34-.71 2.12.32 1.41 1.93 1 2.37 1.54 2.83.51.32-2 4.49 1-1.14 2.18 2.37 1.09 5.14 4 1.67 3-4.88-1.73-.71 2.5 1.8 1.42 1 2.24 1 3.85-.58 2.57 1 1.93 2.18.45 2.37 1.92-4.49.45 5.6 1.88-3.92 2.89-.06 1.09 3.14.32 2.18 1.22-2 1.09 3 2.69 3.92 2.64.25 2.5 2.83 2.25 3.27 1.79v1.8l-2.37 2.38-.77 3-.52 1.74-1.54 2.31 1.42 2.5-.71 1.15-.39 3.15-2 3.08.65 1.93-1.22 2.24-1.61-.51-.58 2.7 1.22 1.15-3.21.26-1.73 2 3.08 3.72-.77 1.35 2.18 4.3.33 1.92 2.56 3 3.08 1.8 2.19 3.53-1 3.27 2.89 2.63 3.08-1.47 3.41-.45 3.65.19 3.28-1.22 4.43.26-1.11 4.36-3.09-1.86-.57 1.61 1.34 6 1.42 4.17 4.75-.51 2.88.58 2.7-2.31.39-3.34 1.92-1-1.22-1.34-.7-3 .32-1.34 2 2.76 1.47-.65 3 1 1.48 2.63-1 1.35 2.44 3.34-1.48 1-.19 2 2.89 2.57 2.69 3.85 3.15 2.95 3.27-.26 3.4 2.06 2.12-.77 3.53-.39-.06-3.91 2.63-.39 2.05 1.74 3.66 1.86.45-1.54-1.67-4 3.21.7-2-1.86h3.47l-1.86-2.63 1.22-.26-1.29-4 3.34 3.21 4.49 2.89 1.67 3.21 1.09 1.28 2.64 5.91 2.05 2.82-.32 3.86 2.25 5.07.83 3.91 1.54 4.94 1.09.26.13-6-1.16-3.66-1.09-4.17-1-3.66 1-1.67-1.84-4.56-2.57-2.5-2.25-6-2.61-2.13-1.47-3.66-2.18-4.17-4.11-4.62-3.15.51-4.09-5.64-4-3.53-3.4-4.56 1.54-.07 1.86 3.47 6 3.72 3.66 1.22-1.22-3.46-2.12-3.15-1.27-3.43-.45-1.54-4.3-1.16-1.47-3.21 2.43-2 2.19-4-1.09-3.66 1.28-3.72.58-2.12 4.75-3.47.77-2.5-1.35-4.11-.58-2.37h4.88l3.14-2.18 4.63.57.64-1.92 1.35-.9 2.76.77 2.18-2.25 4.11.77.19-3 3.4 1.41 3.66-.13-1.22-4.69.83-1.41.84-4.17-.32-.38 3.21.32 3.46.83 1.8 1.22h-3.27l1.47 3.85 1.16.71 1.6-.07 3.41.58 5.84 1.93 8.73 4.49 5.07 3.4 2.56.64 3.6 1.87 4 2.76 1-.52 3 1.54 1.35-.64.19-.71 1 .71 3 .71 1-.84 1.61 1-.2-.45-.64-.83c70.35 73.6 113.87 173.06 113.87 282.68 0 120.53-52.54 228.77-135.69 303.73l.13-.25-2.19 1.22 1.29-1.93 1.79-2.05 3.15-2.83 1.09-1.47-4 2.88-3.27 2.33-2.2 2.56-1.93 1.54-1.41.64-1.15.83-3.21 2.38-4.17 2.89-3.86 3.21.45.06-.7 1 4.94-3.4 1-.07-2 2.63 1.47-.83 3.6-3.08 3.34-2.18 2.18-1.29.38-.06a411.54 411.54 0 0 1 -101.22 65.08l2.89-1.66 2.95-1.61 3.34-2 2.69-1.61 3.47-2.24 4.81-2.64 4.11-2.82 2.44-2 1-1.22 3.14-2.63 1.8-1.54 2-2.25-1-1 1.41-1.8.9-1.41-.19-1.48-3-.32h-2l-3-.06.52-2.7-1.61 1-1.73-.32-2.57 1.6-.9-2.44-2.57-.64 1.1-1-3.47.13h-3.66l-6 .65-1.35-1.55 1.1-2-.84-2.37-1.48.13-.51-1.48-.58-2.63 1-1.86-2.7-.45-1.73-.9-4.37 2.7-1.73-2.25.45-1.41-.13-2.06-2-1.28v-1.54h-1.54l-.13-2.38-1.6-1.47-2.57 2.25-.32 1.15-1.54 2.57-1.81 2.56.83 1-1.41 1.15-1.29 3.15.39 1.92-.64 1.22.58 1.48-2.46 3.43-1.22 2.11-1.6 1.93-1.67 2.18-4.51 2.25-5.84.45-.78-.84-3.27-.06-1.8.45-4.36-1-3.21-.45-4.88-.07-5-1-.32-.9 2.57-2.25 2.18-2.24-.57-1.35 2.31-.64 2.76-2.06 2-2.43-2.83-1.29-1.67 1.09-2.5.13-4 1.93-4.11-.39-1.93.71-5.65.06-3.53-1-4.42-.25-3.73 1.09 4.94.58-.06 1.92-5.78 1.61-3.46.06-4.3 1.93-3.15 2.56 1 .84-3.21 1.35-3.47 3.33 1.29 1.8-4.37.19-4.23.45-3.66-1.79-5-1.22-3.4.83-3 .71-.19 1-3-.19-.13 1-3.53.84-1.81 1.62-3.85 1.93-.9 2.69-3-.64-2.24 1.8 2.37 1.47-2.89.77-2.82-2.76-4.88 3-.19 1.8-.32 1.28-4.07 1.66-1.79 1.67-3.66 1.42-7.13.89-3.72-.06-1.73.26-1 .64-4 .25-5.27 1-1.86-.45-3 .13-5.07.83-3.14 1.09-5.33.58-2.72 1.75-.71-2.18-2.5 1.8.9 1.67-.77 1.22-1.22.57-.51 1.42 1.54.83.77.84 3.4 2.11.32 1.22-2.05-1-3.28-1 2.51 2.38-3-1.22 1 1 3.91 2 1 1.73 2.89 1 .26.58 2.69 1.41-.06 1.09 1.15 1.09 3.53 1.93.84 1-.51 1.09.32.51-1 .26-2.89.07.07.77 3.21.45 6.42 1.09 4 .19 4.23.13 2.83-.32 2.89-.32 1.73.06 3.53-.71 4.11-.06 4.23-.19 5.27.13 3.72-.2 5.07-.25 2.31-.71 1.29-.83 5.26-.65 6.61-1.22 5.71-.38 7-1.16 8-1.47 10.85-1.54 5.33-.07 4.17-.58 7-.32-1.29.58h2.7l2.89.45-.77.77 4-.32 3.08-1.54 4-1.28 5.65-2.38-.32 1.16-2.76 1.22-1.61 1-3.63 1.44 5.2-1.35 3.59-1.6.45.7-2.44 1.1 5.14-1.1 2.11-.12.52.25-.07.64 2.51-.19 4.62-1.09 2.89-.77 2.63-.71 3.34-.83a407.51 407.51 0 0 1 -129.66 21.31c-191.75 0-352.72-132.6-397.2-310.73l-.44-6.1-1-4.75-.45-2-.32-1.73-.26-1.61-.26-1.41-1-5-.45-3.08-.32-3.78.32.38-.13-2.31.26-.38-.07-2.83.45 1.48.19-.84.9 1.48.26-.06.26-1.48 1.67-.71 1.66.77 2.89 2.31 2.25.71 3-1.28 2.53-1.65 3-3.47 2.63-3.79 2.25-3.53 1.92-4.42 1-.9.7-2.83 1-2.63.32-1.54-1-1.73-1.6-.39-1.41-2-1.29-1.35-.78-1.42-1.31-2.5-1-.71-1.15-2-2.25-2.56-2.25-4.63-2.05-3.2-.9-2.4-.19-4.37.19-3.08-.26-2.5-.32-3.47 1.29 1.48.64-2 .06-2.7-.25-4 .06-3.28.13-5.52.25-5.56-.07-11.36.32-5.13 1.54-5.91 1.8-8.6.32-4.49.19-3 2.44-7.7 2.46-5.81.64.13 2.25-6.29.45-1.86 1.6-9.76 1.8-3.27.64.06 2.7-9.37 1.6-4.17 1.48-4.24 4.69-10.65 3.21-7.32 3.53-6.55h.41l-4.75 9.63-1.35 4.11-1 2.95.71.26 1.86-1.22 2.69-2.51 1.54-.64-.51.84-1.41 1.28-1.22 1.41-1.93 1.86.26 2.19-1.89 5.51-2.24 6.54-2 5.33-.51 2.38-1.35 3.78-.71.84-1.41 4.23-.16 3.52-.64 4-2.5 8.09-1.61 2.76-1.73 4-1.61 7.89.13 2.89-.83 6.74-1.48 5.46-1.09 6.8v4.24l-.77 2.43-.13 3-.64 2.82-.72 2.44-.58.45-.71 2.82-.38-.7-.33 3.46-1 4.75-.2 2.32-1 2.69-.45 4.3 1.09 3.53.71.84.9 2.5.64-.58.58.84.83-.32.58.89 1.73 3.73 1.61 2 1.86.57.58 1.67 1.09 1.8 3.21.39 4.62 4.87 3.27 2.25.71-1.73 1.28-1.48 2.44 1.8 1.35 1.73 2.57 1.15 1.41 2.95 1.93.58.77-2.19 1.6.33 1.87 2.76 1.09-.2 1.28-2.24 2.7.57 1.41 2 .58-.25 1-4.24 1.53-2.17 1.22-.45 1.29 2.19 2.76-2.25 2-.06 1.22-.9 2.57-1.86.51-1.22-.9-2.19-.06-2.95v-5.07l-1.41-3.4-1.86-3.79-.77-4.3.51-5.58 1.8-4.95.83-.45 1.41-1.92-.06-1-1.8.7-3.43.85-3.85.39-3.66.83-1.49-2.69-2-3.73-2.37-2.5.64-1.61-.51-.51.58-2.82 2.11-2.25 1.67-3.21.2-2.95-1-.58-2.12 1.67-1.92 4.11.32-1.93.64-2.31.19-2.69.65-2.38 1.22-1.24 1.09-2.44-.2-5.14.71-2.56-.26-3.28 1.93-6.16 1.86-5.26.9-.84 1.09-3.14 1 2.76 2-.45.19 4.3 1.67 1.41-2.82 10.08-1.33 7.72 1.41 5.52.19 8.35 2.27 6.87 4.11 1.47 2.69 2.12.84 2.89-2.19 8.54 3.06 5.24 2.83 5.65 5.39 9.18 5.2 4.62 5.91 6.1 7.38 5.77 1.15 7.32-.45 5.26 2.38 4.18 3 9.24.39 3.4-2.76.39 3.07 11.83 2.89 3.27 7.64 1.61-.9 6.16-2.12 7.19-.77 8.53-1 12.78 2.5 11.1.06 4.17-.25 8 1.6 7.31 1.35 3.94 1 7 1.22 9.37 4.24 8.41 2.31-.26 2.23-2.62 5.07 1.41-1.41-2.82 3.08-2.76 2.82 1.34 1.48-9.63 3.27-4.1.58-5 .38-8.28 2.51-3.53 2.56 1.1 5.27.64h3l.58-2.7 6.23-1 4.94-1.66 7.77-4 8.92-.26 3.85-2.31.71-4.81 7.25 1.8 3.85 1.73 1.29-1.93 2.11 1.48 1.48 1.41 1-.83 2.18 2.31 2.57-2.82.06-2.83 5.26 2.38 1.67 4.62.52 3.46-.32 3.34 1.09 3.92 3.33 6.67 3.41 2.06-1.16 2 3.6 8.79.44 6.23-3.27 6.86 3.66 2.76 3.47 1.67 7.7-2.12 4.56-1.79 2.11 5.9.26 8 1.28 7.83 2.32 3.85-1.16 6.29 1.93 4.11-2.44 3.91.32 4.43-2.38 5-1 3.34 1 3.46 1.34-3 3 3.53 3.34 4.18 1 3 2.57 2.83 1.35 2.69-.9 3.86 2.31 3.53.77 4.68 3.79 4.49.77 2.89 8 6 6.42 5.2 4.87.64.2-1.67-2.64-5.2-2.43-1.93-.36-3.24-.65-1.93.84-2.31-.32-3.72-2.76-4.24-3.85-4.17-1.54-.9-3.41-3.65-4-1.67-3.53-4.11-1-5.2-2.38-5.84-4.3-1.35-.13-4.3 2.57-4.56 4.24-7.64 1.15-6.41 5.78 1.41-1.41 4.49 5.71 1.22 5.78 4.11 2.95 6.8 2.5 3.66 5.65 2 4.81 4.3-2.11 3.53 2.31 4.18 8.79-3.85 5.84-3.91 8.09-2.57 5.91-3.08 1.41-10.4-2.51-11.68-3.78-5.59-5.84-4.75-5.59-9.24-4.49-7.57 1.86-4.11 6-5.14 9.24-4.17 3.15-.64 8.6 3.27-1.73 2.31 1.41 4.95 3.72.06 2.7-6.55 7-.25 9.44-2.44 3.85-3 2.18 2.32 4.17-2.64 7.45-.38 9.31-5.14 9-5.9 6.1-8 5.19-8.86 4.56-7.44 3.53-.65 1.54-5.45.84-5.65-3.66-2-1.54-3.66 3.85-1.93v-5.13l-4.24-5.27-3.72-6.35-2.31-6.93-6.36-3.86 3-4.87 5.65-3.6 2.7-3.79 8.08-2.18-1-3.66-3.73-.12-5.07-2.7-6.35 5.07-4.49-2.05-.13-3.21-4.62-1.22-2.83-4.88 2.89-3.27 5.46-.26 3.46-4.56 6.16-4.94 4.69-2.57 2.95 3.66-4.23 4.88 1.21 2.76-2.95 3.34 6-2.06 4-3.46 7.64-2.44 2.7 1.79 3.2.58.45 1.09-1.19 3.94.51 1.28-1.22.9-1.41 3.21 1.61 1.09 1.47.51.26 1.35 1.67-.7.58-1.42 2.82 1.16 4.3 5.78-4.17 1.47 3 7.13-.7 5.39.9 3.72 5.26-1 4.43-3.34 5.13-1.93 1.8-4.11-.83-8.08-1.85-4.41-5.59-7.83-3.4-2.76-2.31-1 .58-.84-.07-3.08 2.18-2.12 3.53-1.54 1.8-2.31.84-1.34 2.63-1.93-.77-5.07 1.28-2.57 2-2.69 2.06.12.51-2.44 6.16-6.16 3.72 2.89 3.21-.64 6.1-5.33 2.44-4.75 5-9.43 4.68-9.63.45-5.14 4.3-11.74-1-11.56-1.93-8.28 1.22-7.76-1.93-5.78-8-6-4.49.64-1.6 4.05-4.3-.65-3.08-3.91-6.49.45 10.66-19.39 7.31-16.11 10.34-5.39 10.53-2.5 2.43-4.69 5.33-1.09 2.12 4.69 4.49-2.83 6-4.88-4.62-2.56 1.09-13.87 5.65-5.84 7.13 6 2-10.46-2.12-5.65 2.57-2.44 4.24 9.24-1.22 7.58-.52 8.92-.32 10.53-3.85 3.91 1.54 3-.51 5.07 3.21 9.44 9.43 13 6.42 8.41 3.66 3.72 1.93-8.66-2.57-6.94 4.11-4.36-3.15-7.64 3.53-6.48-3-1.8-2-5.78 2.57-2-5.58-8.79-4.11.77-1.73-2.31-.77-7.77-1.93-4.36 4-1.61.58-4.17 2.76 1.28 2.7-9.17 6.55 1-1.29-3.15.13-6-.32-6.55 1.15-2.31 1.35-9.18 4.5-2.7-1-1.8-2.43-1.67-2.25-.32-5.52-2.65-4.43-.84 2.5-2.05-.45-4.36-1.54-3-3.33-1.22.38-3.21 1.8 2 2.82.52.84-2.7 2.31-1.22 2.82 1.41 3.47-1.41 3-.13 1.35-1.73-.77-1.67-5.84-3.85 1.16-3.59-1.67-3.6-7.7.26-3.92 4.43 4.62 2.44-2.31.25-3.59-2.63-9.12.58-7.57.77-4.37.38-6.54 2.19-2.7 3.21-6.29 3.08 1.6 2.76 4.63 1.92-.45 3.34-7.39-2-2.69 3-4.3 1.35-3.08 2.31-1.61 2.63-3.59-.12-3-4.05-3.33-1.35-4.37 1.16-7 4.88-7.9-2.12-3.66-2.76-19.51 2-1.67 3.34 3.66 5.26h-3.85l-1 2.12-4.81-1-3.28 2.38-4.23-2.25-.71 6.93-4.11-2.12-3.66-4.68.84-2.76-1.67-3.92-3.79-3-3.21.32-4.36-.9.19 4.81-8.79-.83-.45-3-6.38-1.23-3.34.77-1.09 1.54-.45-4.11-2 1-2.63-1.86-2.25-1.22 1.8-1.6 5.46-3 2.31-1.61.77-3.21-1.09-2.37-3.28-3.34-4.75-.71-1.79 1.22.32-3-3.28-1.54 2.51-1.1-2-2.37-4.37 1.67-2.37 2.12-1.48 2.5-2.88-.84-5 2-.7-1.67-4.37-.83-1.35 1.35-4.55-.84-4.82 1.48-1.83-.72-4.3 2.76-.71 3.47-4-1-3.77-2.23-3.59-.51-4.49 5.65-2.06 5.33-.64-4.88-3.66-1.8-4.56.19-2.63 4.18-.9-2.19 5.2-4.36 1.87-3.34-.84-.45-3.08 3.79-6.1 1.28-1.92 5.59-6.23 4.11-2.31 3.14 1.6 1.8-4 2.82-1.58 3.65-3.92 1.29-2.88 2.27-3.34-.26-2.57 1.22-1.48-2.52 10.66-4.36 4-2.82 1-4.63 7.12-6.54 3-3.85.64-2.25 5.52-2.83 2.44-2.88-2.31-4.24-2 .06-5.68 3.34-7.45 1.8-1.73 1.48-3.41 4.3-3 1.73 1.28 2.18-1 1-1.15 4-3.85 1.54.51-10.72-.26-3.4-2.18-5.72-2.57.58-2 4.05-5.33 1 2-4.36-4.3-.71-2.31-3-2.89.06-.7-2.5 4.75-.65-.52-1.47-8.73-2.89-4.88-2.18-4.23 1.73-2.63-2.18 1.54-2.63 3.53-1.8 1.79 1.92 3.09-2.88.19-6-3.53 3.21-4.17.9-3.28 3.47-4.81 1 1.6-3-.19-2-7.57-1.86-4.37 3.59-2-1.09 3-6.93-2.63-.38-2.61 2.63-3.14 1 1.41-2.44 1.54-3.59 9.63-4 4.42-5.07 1 1.22-3.6 10.91 2.51 2.57 4 .71 4.3-2.06 2.69-2.76 6-9.82 1-5.45 3.85-4.18-2.44-1.15 4.24-3 1.86 1.74 4.94-6.42-1.15-2.7.64-3-5.14-1.6.9-2.89-2.05-3.34-6.74-3.85-3.72-2.5-10.28-3.28-6.93-2.87-4.05-3.47-1.6-5.13-2.44-1.67-13.65 2.11-6.55 1.73-4.94 3.85-.51 3.08 4.05 3.6-4.37 2.31-9.11 3.79-7.45 3.91-5.77 2.38-1 3.08 3.85.19-1.73 3.53 4.88-.13 9.56-1.86.58 2.25 6.16.45 4-3.28 4.88-2.76 8.15-.32 4.18 3.15 4.3 2.31 4-1.22 4.1 1 1.22 3.08-3.48 3.69-2.76 1-1.16-1-6.22-3.21-3.54-1-3.46-.19-5.91 2.69-6 1.22-2.5 3-3.6 2.5.64 3.66 1.8 3.66.13 4.36-3 3.79-3.33-1.6v-2.53l1.28-3.15-.51-3-1.22-2.63-3.6 1.41-2.37 2.44.57.71-3.46 1-4.63 1.22.19-2.12 4.88-3.78-1.54-1.86h-3.47l-4.42 1.54-5 2.44-1-3.21-2.38.32.84-2.83 1.47-.77 1.8-3.21-.71-2.88-1-3.6-.84-1.41 2.31-2 3.6-3.85-.84-1.16.32-2.57 2-.51 2.64-3.21 2.18-.58 3.08-1.47 3 .9-1 1 1.8.13 1.6-1.67 1.73-.71 1.42.39 2.88-.58-.51-1.73-1.09-.58.9-2.18-1.29-.39-1.28-.06-5.65 1.35-3.67 1.85-3.14.9-2.38 1.22-1.58-1.12 1.47-.83 1.1-2.25-.84-.26 1.61-2.37.25-3.21-5.84-.45-.38-1.09.64-2 .9-2.18-3.34.25 1.65-5.61 4.3-3.15-6 2.31 5.45-5.07 2.44-3.34-3.5 1.25-5.77 4.82-4.14 2.86-7.32 4.68-8.15 2.83-1.1-.52 4.69-5.07 2.18-2.44 3.85-3.53 4.11-4 4.56-3.85 1.86-3-3 1.8-2.5 1-1.35.71-2 1.16-1.67.83-1.41.45-1.22.51.13-.51-2 1-2.18 1.48-1.86 1.6-2.44 1.54-2.18 1.21-1.45 1.44-2.31 2-.58.71-3.72 3.29-2.94 2.25-2.38 2-2 1.86.07.39-.84 1.22-3.14 3.28-3.85 4.3.64.58-1.5 2.12 1.87-.84.06 1 3.34-2.7 2.12-.51.57.83 1.16-.45-2.44 3.85.45 1.67 2.63-1.48 2.31-.89-1.92 4.1-5.46 7.26.71 1.79-.52 1.22 1 .9-.19 1.22-3 3.53-1.48 2-5.07 3.6-3.85 3.85-4.46 5.05-3.28 4-1.47 2.89-2.44 2.76-1.73 2.95-2.38 2.4-1.15 1.92-2.64 2.7-3.08 3.34-.64-.19-2 1-1.35 1-.18 1.23 3-.71-.25 1.42 2.11-1.22 2.57-3.92 2.38-.39-1.8 3.79-2.7 3.6 1.42-.45.89-1 3.41-4.88 2.24-3.66 2.83-4.36.51.45 1.35-1.54 1-2.89 5.32-6.29 4.56-4.05 3.85-4.62 2.89-2.37 1.22-.32 2.44-1.41.51 1.86-1.79 3.08-.13-.52-.07-.06-1.67.77-2.05 1.86 1.73-.06-1.67 2.63-1.66 1-2.64 2.76-.12-.51-4.56 5-2.61 4.13-2.37 3.14-2.76 4.5-1.4 2.24-1.79 2.06-.58 1-.9 1.15-1.35.45-3.08 1.87-2.25 1.86-2 3.27-1 .77-.45.9-1.34 1.22-3 3.91-2.38 3.15-3 3-3.73 4.3-2.62 4.92-.45 2.63 4-4.75v2.12l2.43-3-1.73 4.62 2.44-2.11 1.61-3 2.37-3.79.77.71 2.44-3.6 2.89-3 .83-.06-2.6 3.86-.32 2.12.45 1.41 3-4.62.52 3.72-.65 2.31-.38 2.44-1 .71-2.25 2.88 2.25 1.22 1.28.52.06 4.36 1.16-.26 1.67-4.49 1.8-1.86 2.82-3.27 3.4-1.22 2 .45 6-3.28-.51 1.48 1.09 1 1.28-1 3.79.12 2.89-.64.7 2.83-1.92 1.54-1 6.42-1.1 1.86-1.9-2.21-1 .06-1.22 5-2.37 1-.9 2.83 3.46 2.63 1.48 3.21 1.86-.71-.83-3.4 1-2.63 3.15-2.63 2.31 1.6.77 3 2.12 1 .9 2.44 1.54 2.38-1.16 1-3.14-3.4-1.67 3.53-4.82.45-1.21-1.93-2.44 5.4-1 5.64-3.08 8.16-1.09 2.69-.07 2.5-1.15 3.73-3 3.91-2.11 1.35-3.66-2.12-.39-3.59-1.67-3.72.77-7.13 2.31-9.44-.77-6.16-1.66-3.27-3.21-2 .57-7.77-3.53 1.22.13-5.78-4-.77-2.38 4.24-3.33 1-2.64 5-4.42 6.29-.13 4.37-2.45 6.07.52 2.31 1.79-.77v4.56l-2.12 5.52 1 5.71 2.76.33-.58 4.42.71 2.06-1.8.13-1.67 3.48-1.86.84-3 3.78-.19.07-3.08 1.09-3.4 2.12-.07-.07-1 .52-3 2.5-1.86 1-.2.58-1.34.26-1.16-1-.06-3.66.64-4.49-1.22.45 1.73-3.4.39-3.6-.39-3.46-1-.52-1.09-2 .65-2.69 1.28-5.59 1.28-5.26.52-5.65 1.41-2.37 1-4.75.83-2 .26-1.61 2-3.21 1.86-6.55.13-2.37-1.1-1.22-1.47.51-3 3.92-1.15-.26-.32-1.09 3-6.48 3.4-7.51 1.97-4.56 3.91-5.2 3.8-7.07 2.05-4 .45-1.42 3.47-5.9 1.32-2.03 2.25-2.56 1.05-2.09 2.44-2.5.64 1 3.08-2.25 1.67-2.12 1.8-1.34 1 .38 1-.83.13-2.12 2-1.41 1.86-3 .58-2.95 1.22-2.38 1.86-2.18 2.37-4 .64-2.38 1.8-2.24 3.85-5.84 3.85-5.59 1.55-2.69.32-1.16 2.63-3.34 1-2 1.35-1.54 4.11-4.17 2.89-3.08 3.47-3.08 2.5-2.44-1 .39-1 .32 1.35-1.48.32-1.09c71.97-62.62 165.63-100.84 268.25-100.84zm0-2c-117.46-.05-223.31 49.63-298.41 128.77-5.13 5.28-10.12 10.82-15 16.56-1.84 2.17-3.78 4.22-5.58 6.42q-9.33 11.47-18 24c-4.78 6.81-9.16 13.88-13.54 21-38.6 62.68-61.3 136.2-61.3 215.03 0 227.08 184.75 411.82 411.83 411.82s411.82-184.74 411.82-411.82-184.74-411.83-411.82-411.83z" fill="url(#a)"/></svg>