<svg viewBox="0 0 114.69 36.35" xmlns="http://www.w3.org/2000/svg"><g fill="#fff"><path d="m68.63 4-.69 1-.94 1.11-.9 1.22-.9 1.23-1.41 1.91c-.49.67-1 1.32-1.49 2s-.89 1.21-1.34 1.82c-.31.41-.63.81-.94 1.23s-.6.85-.91 1.27l-.72.95-.7.95-1.35 1.78c-.24.33-.47.68-.71 1l-.88 1.16c-.32.43-.6.88-1 1.28s-.33.56 0 .91.8 1 1.19 1.56l1.11 1.53c.36.49.74 1 1.1 1.46l1 1.33 1.06 1.4.79 1.07a4 4 0 0 1 .26.35 1.27 1.27 0 0 1 .13.32.94.94 0 0 1 -1 1.11c-1.6 0-3.2 0-4.8 0h-9.4a.85.85 0 0 1 -.78-.47.91.91 0 0 1 .08-1c.45-.63.9-1.25 1.36-1.86.57-.78 1.16-1.55 1.73-2.32.45-.61.88-1.23 1.33-1.83s.89-1.17 1.33-1.75c.28-.38.57-.77.84-1.17a.39.39 0 0 0 0-.35c-.29-.4-.6-.78-.9-1.17l-.86-1.18-1.13-1.52-1.17-1.59-1.02-1.46-1-1.28-1.12-1.5c-.38-.5-.75-1-1.12-1.52s-.91-1.21-1.36-1.81l-.88-1.17c-.45-.61-.91-1.21-1.36-1.81-.24-.31-.46-.63-.69-1l-.67-.89-.97-1.3c-.22-.3-.43-.63-.66-.93a.27.27 0 0 0 -.23-.07.22.22 0 0 0 -.09.19v8.32 17 2.88 1.51a1 1 0 0 1 -.45.89.86.86 0 0 1 -1.06-.15.87.87 0 0 1 -.22-.7c0-1.53 0-3 0-4.58 0-.93 0-1.85 0-2.78 0-1.67 0-3.34 0-5 0-1.29 0-2.59 0-3.89q0-3.69 0-7.38c0-1.5 0-3 0-4.51s0-3.14 0-4.71a.85.85 0 0 1 .64-.88.92.92 0 0 1 1 .4c.52.7 1.05 1.39 1.57 2.08l1.29 1.75 1.38 1.81 1.16 1.57 1.37 1.8 1.09 1.5 1.11 1.48 1.27 1.82c.24.32.49.62.73.94s.6.84.91 1.25.62.81.92 1.21l.92 1.24 1.11 1.51 1.16 1.57c.14.19.28.37.43.55s.26.06.35-.06c.47-.64.94-1.27 1.4-1.91l1.33-1.86c.36-.48.74-.95 1.1-1.43l1.11-1.53c.32-.43.64-.84 1-1.27s.6-.84.9-1.25.71-.94 1.06-1.41.8-1.11 1.21-1.65.72-1 1.08-1.45.62-.86.94-1.28l.87-1.17c.26-.36.51-.72.78-1.07l.84-1.13 1-1.27 1.13-1.53c.23-.32.47-.64.72-.95a.94.94 0 0 1 1-.32 1.14 1.14 0 0 1 .59.9q0 7.1 0 14.19 0 9.37 0 18.75a.92.92 0 0 1 -1.25.89 1 1 0 0 1 -.57-.83c0-2.06 0-4.12 0-6.17 0-3 0-6.08 0-9.12q0-6.68 0-13.36v-1.2a1 1 0 0 0 -.06-.2zm-16.18 29.15h4.88a.82.82 0 0 0 .22 0c.11 0 .15-.09.07-.2-.2-.26-.38-.52-.57-.77l-1.34-1.77-1.3-1.77-1.83-2.49c-.11-.14-.28-.18-.36-.07l-.65.88-.94 1.28-.93 1.26-.9 1.2-.9 1.2-.76 1c0 .06-.08.15-.06.19a.29.29 0 0 0 .19.11h1.57z"/><path d="m0 17.73c0-5.43 0-10.87 0-16.3a.93.93 0 0 1 .89-.89h5 2.74 2l2.37-.04h5.14 4.18 4.11a1 1 0 0 1 1 .48.65.65 0 0 1 .07.6.88.88 0 0 1 -.89.66h-24.56c-.31 0-.37.08-.37.38v7.73 5.61.66a.3.3 0 0 0 .32.33h5.35 6 11.83 1.36a.94.94 0 0 1 .92.5.68.68 0 0 1 .05.6.89.89 0 0 1 -.93.63h-24.53c-.29 0-.35.07-.35.35v3.86q0 5.07 0 10.14c0 .26.11.37.37.37h5.54 9 4.79 5.15a1 1 0 0 1 1 .56.72.72 0 0 1 0 .5.9.9 0 0 1 -.87.66h-25.78a.93.93 0 0 1 -.85-.88c.01-5.6-.05-11.06-.05-16.51z"/><path d="m104.89 13.2v10.58a16 16 0 0 1 -.1 1.7 12.73 12.73 0 0 1 -.31 1.36c-.08.32-.16.65-.27 1a5.45 5.45 0 0 1 -.32.75c-.08.18-.16.35-.25.52a9.1 9.1 0 0 1 -.49.93 15.55 15.55 0 0 1 -1.15 1.56c-.53.59-1.11 1.13-1.69 1.66a11.1 11.1 0 0 1 -1.3 1 11.31 11.31 0 0 1 -1.23.68c-.4.2-.8.38-1.2.55a3.57 3.57 0 0 1 -.6.21l-1 .28-.94.21a13.52 13.52 0 0 1 -3.81.14 11.49 11.49 0 0 1 -1.93-.35 12.54 12.54 0 0 1 -1.8-.57 12.14 12.14 0 0 1 -1.86-.87 15.92 15.92 0 0 1 -1.9-1.35 20.19 20.19 0 0 1 -1.56-1.51 11 11 0 0 1 -.71-.94c-.18-.25-.36-.5-.52-.76s-.33-.6-.48-.9-.24-.48-.34-.73a4.19 4.19 0 0 1 -.22-.59c-.1-.31-.2-.62-.27-.94a15.81 15.81 0 0 1 -.33-1.8 16 16 0 0 1 -.06-1.83c0-5 0-10 0-14.94 0-2.34 0-4.69 0-7a1 1 0 0 1 .46-.95 1 1 0 0 1 1.09.09 1 1 0 0 1 .23.66q0 6.06 0 12.11v11a8.21 8.21 0 0 0 .37 2.25c.09.33.17.66.28 1a6.54 6.54 0 0 0 .32.59c.1.19.18.38.28.56a7.48 7.48 0 0 0 .51.86c.37.5.75 1 1.16 1.45a8.91 8.91 0 0 0 1 .93 12.89 12.89 0 0 0 1.35 1 11.75 11.75 0 0 0 1.42.71c.45.2.93.37 1.4.53a7 7 0 0 0 .93.24 12.84 12.84 0 0 0 3.66.19 15.72 15.72 0 0 0 1.77-.33c.33-.07.67-.16 1-.26a8.33 8.33 0 0 0 .82-.34c.33-.15.67-.3 1-.47a5.51 5.51 0 0 0 .78-.46 14.19 14.19 0 0 0 1.32-1 10.23 10.23 0 0 0 1.13-1.15 11.64 11.64 0 0 0 .89-1.2 7.7 7.7 0 0 0 .54-1c.2-.4.37-.8.54-1.2a5 5 0 0 0 .23-.75 9.64 9.64 0 0 0 .28-2.07v-3.8c0-1.05 0-2.1 0-3.15 0-1.41 0-2.82 0-4.22 0-.52 0-1 0-1.56 0-1.31 0-2.62 0-3.93 0-.9 0-1.8 0-2.69 0-1.28 0-2.56 0-3.83a1 1 0 0 1 1.3-1 .75.75 0 0 1 .58.66v1.49q.01 5.51 0 10.99z"/><path d="m114.66 17.48q0 7.08 0 14.17v2.32a1 1 0 0 1 -1.35.87.94.94 0 0 1 -.57-1q0-16.42 0-32.85a1.06 1.06 0 0 1 .56-1 1.05 1.05 0 0 1 1.2.36 1.49 1.49 0 0 1 .18.85q0 8.1 0 16.19z"/></g></svg>