<svg viewBox="0 0 62.52 62.52" xmlns="http://www.w3.org/2000/svg"><path d="m48.53 62.48-13.26-1.37 2.36-22.56 8.09.83 1.35-6-8.84-.91.69-6.71c.24-2.34 1.13-5.38 6.08-4.87l3.07.31.53-5.1-5.1-.52c-5.9-.61-9.79 2.66-10.42 8.74l-.78 7.54-6.36-.66-.61 6.11 6.38.65-2.37 22.54-21.34-2.21a8.89 8.89 0 0 1 -7.95-9.76l4.18-40.53a8.9 8.9 0 0 1 9.77-7.95l40.54 4.18a8.91 8.91 0 0 1 7.94 9.77l-4.19 40.54a8.91 8.91 0 0 1 -9.76 7.94zm-10.25-3.82 10.54 1.09a6.14 6.14 0 0 0 6.74-5.49l4.19-40.55a6.15 6.15 0 0 0 -5.49-6.71l-40.55-4.23a6.17 6.17 0 0 0 -6.71 5.49l-4.23 40.56a6.17 6.17 0 0 0 5.49 6.75l18.64 1.92 1.8-17.11-3.79-.38a2.61 2.61 0 0 1 -2.32-2.84l.64-6.4a2.59 2.59 0 0 1 2.84-2.32l3.79.39.49-4.83c.8-7.68 5.94-12 13.43-11.19l5.25.54a2.61 2.61 0 0 1 2.31 2.85l-.56 5.39a2.59 2.59 0 0 1 -2.84 2.31l-3.22-.33c-2.53-.26-2.88.54-3.07 2.43l-.42 4 6.29.64a2.61 2.61 0 0 1 1.83 1.07 2.57 2.57 0 0 1 .43 2.08l-1.42 6.32a2.6 2.6 0 0 1 -2.79 2l-5.5-.57z" fill="#5ec5de"/></svg>