<svg enable-background="new 0 0 189 395.5" viewBox="0 0 189 395.5" xmlns="http://www.w3.org/2000/svg" xmlns:xlink="http://www.w3.org/1999/xlink"><linearGradient id="a" gradientUnits="userSpaceOnUse" x1="96.1447" x2="92.8547" y1="-130.0699" y2="525.6002"><stop offset="0" stop-color="#864fc3"/><stop offset=".2" stop-color="#7b64bd"/><stop offset=".4" stop-color="#6e76b7"/><stop offset=".6" stop-color="#5d86b1"/><stop offset=".8" stop-color="#4395ab"/><stop offset="1" stop-color="#00a4a4"/></linearGradient><path d="m69.1 7.6c2.2.6 3.9 2.3 4.5 4.5 1 3.5 1.5 5.8 6.3 8h27.1c4-.1 6.7-2.8 7.9-8 1.8-7.8.8-4 3.7-4.5h48.7c7.7 0 13.9 6.3 13.9 13.9v343.5c0 3.5-2.8 6.4-6.4 6.5h-161.2c-3.5 0-6.4-2.9-6.4-6.5v-343.5c0-7.7 6.2-13.9 13.9-13.9z" fill="#fff"/><path d="m0 23.7v345.8c0 14.4 11.6 26 26 26h139.2c13.1 0 23.8-10.6 23.8-23.8v-348c0-13-10.6-23.7-23.7-23.7 0 0 0 0-.1 0h-141.4c-13.1 0-23.8 10.5-23.8 23.7 0-.1 0 0 0 0zm108.1 350.9c4.1 0 7.4 3.3 7.4 7.3 0 4.1-3.3 7.4-7.3 7.4h-27.3c-4.1 0-7.4-3.3-7.4-7.4s3.3-7.4 7.4-7.4h27.2zm-39.2-365.6c.2 0 .5 0 .7.1 2 .7 3.5 2.3 4.1 4.3 1 3.4 1.5 5.6 5.8 7.7.3.2.7.2 1 .2h26.4c4.6-.1 7-2.7 7.8-7.9.6-3.3 2-4.5 3.7-4.5h48.3c7.6 0 13.8 6.2 13.8 13.8v340.9c0 3.5-2.8 6.4-6.3 6.4h-160c-3.5 0-6.3-2.9-6.3-6.4v-340.8c.1-7.6 6.2-13.7 13.8-13.8z" fill="url(#a)"/><circle cx="87.8" cy="13.8" fill="#ac9be1" r="2.4"/><circle cx="101" cy="13.8" fill="#ac9be1" r="2.4"/><path d="m108.1 374.6c4.1 0 7.4 3.3 7.4 7.3 0 4.1-3.3 7.4-7.3 7.4h-27.3c-4.1 0-7.4-3.3-7.4-7.4s3.3-7.4 7.4-7.4h27.2z" fill="#fff"/></svg>