<svg enable-background="new 0 0 692.8 331" viewBox="0 0 692.8 331" xmlns="http://www.w3.org/2000/svg"><path d="m651.2 0h-605.7c-25.1 0-45.5 20.4-45.5 45.5v243.9c0 23 18.7 41.6 41.6 41.6h609.5c23 0 41.6-18.6 41.6-41.6v-247.8c.1-23-18.6-41.6-41.5-41.6zm-614.5 189.3c0 7.1-5.8 12.9-12.9 12.9s-12.9-5.8-12.9-12.9v-47.6c0-7.1 5.8-12.9 12.9-12.9s12.9 5.8 12.9 12.9zm640.2-68.6c0 .4 0 .8-.2 1.1-1.1 3.5-4 6.3-7.6 7.2-5.9 1.7-9.8 2.5-13.5 10.2-.2.5-.4 1.1-.4 1.7v46.2c.2 7 4.9 11.6 13.9 13.7 13.5 3.2 7 1.4 7.8 6.5v84.7c0 13.3-10.8 24.2-24.2 24.2h-597c-6.2 0-11.2-5-11.2-11.1v-280.1c0-6.1 5-11.1 11.2-11.1h597c13.3 0 24.1 10.8 24.2 24.1z" fill="#fff"/><g fill="#ebebeb"><path d="m23.8 128.8c7.1 0 12.9 5.8 12.9 12.9v47.6c0 7.1-5.8 12.9-12.9 12.9"/><path d="m23.8 202.2c-7.1 0-12.9-5.8-12.9-12.9v-47.6c0-7.1 5.8-12.9 12.9-12.9"/></g></svg>