<svg viewBox="0 0 49.5 56.02" xmlns="http://www.w3.org/2000/svg"><g fill="#5ec5de"><path d="m33.29 2.42-1.73-.42a3.93 3.93 0 0 0 -.46-.08.65.65 0 0 0 -.62.33l-4 6.18c-.07 0-.07 0-.07-.07l-.84-7.26a.65.65 0 0 0 -.41-.57 4.11 4.11 0 0 0 -.45-.13l-1.71-.4a.5.5 0 0 0 -.56.21.7.7 0 0 0 -.15.56l1.47 13.57a.63.63 0 0 0 .21.4.83.83 0 0 0 .39.23l1.08.25a.94.94 0 0 0 .44 0 .63.63 0 0 0 .36-.26l7.33-11.52a.81.81 0 0 0 .16-.53.53.53 0 0 0 -.44-.49z"/><path d="m40.81 13.63a6.48 6.48 0 0 0 1.87-1.42 4.41 4.41 0 0 0 1.07-2 6.13 6.13 0 0 0 .14-2.48 3.91 3.91 0 0 0 -.89-1.86 5.23 5.23 0 0 0 -1.76-1.31 11.89 11.89 0 0 0 -2.53-.86l-3.1-.7a.7.7 0 0 0 -.87.56l-2.92 12.44a.71.71 0 0 0 .08.53.73.73 0 0 0 .46.34l1.8.42a.73.73 0 0 0 .56-.1.72.72 0 0 0 .31-.44l.56-2.39s0-.13.27-.16h.34.33a1.07 1.07 0 0 1 .3.09h.05l1 3.38a1.1 1.1 0 0 0 .12.33.8.8 0 0 0 .48.27l2 .47c.45.1.61-.1.68-.23a1 1 0 0 0 0-.57l-.82-3.63a.72.72 0 0 1 0-.42 1 1 0 0 1 .47-.26zm-.73-3.19a2.28 2.28 0 0 1 -.75.52 3.11 3.11 0 0 1 -1 .25 4 4 0 0 1 -1.33-.12l-.45-.09c-.07 0-.09 0-.1-.07a.29.29 0 0 1 0-.21l.87-3.72a.13.13 0 0 1 .08-.11.18.18 0 0 1 .14 0l.46.11a7.31 7.31 0 0 1 1.22.38 2.53 2.53 0 0 1 .86.54 1.56 1.56 0 0 1 .43.75 2.41 2.41 0 0 1 0 1.09 1.59 1.59 0 0 1 -.43.68z"/><path d="m2 38.76a1.66 1.66 0 0 0 2-1.26v-.22a1.66 1.66 0 0 0 -1.25-2 1.67 1.67 0 0 0 -2 1.27l-.06.22a1.68 1.68 0 0 0 1.31 1.99z"/><path d="m47 26.49c-4.45-6.38-11.66-4.83-14.55-3.87a9.32 9.32 0 0 1 -3 .5 3.15 3.15 0 0 1 -.58 0 3.63 3.63 0 0 1 -.55-.22 9.41 9.41 0 0 1 -2.47-1.79c-2.17-2.14-7.95-6.73-14.76-3-4.73 2.6-7.63 9.26-9.23 14.39a1.68 1.68 0 1 0 3.2 1c2-6.42 4.72-10.85 7.65-12.46 4.66-2.56 8.75.42 10.78 2.43a12.32 12.32 0 0 0 3.38 2.42 5.62 5.62 0 0 0 1.24.47 6.48 6.48 0 0 0 1.31.13 12.45 12.45 0 0 0 4.11-.67c2.7-.9 7.7-1.76 10.74 2.6 3.77 5.43 1 18.07-.49 22.06a3.67 3.67 0 0 1 -1.16 1.62 2.54 2.54 0 0 1 -2 .56c-1.6-.2-4.46-1.66-9-7.5a12.39 12.39 0 0 0 -6.62-4.45 5.29 5.29 0 0 0 -.54-.13 12.42 12.42 0 0 0 -7.9 1c-6.56 3.28-9.79 3.32-11.32 2.79a2.56 2.56 0 0 1 -1.55-1.37 4 4 0 0 1 -.3-1 3.92 3.92 0 0 1 0-.84 1.67 1.67 0 0 0 -3.39-.22 6.5 6.5 0 0 0 .07 1.59 6.92 6.92 0 0 0 .57 1.88 5.87 5.87 0 0 0 3.47 3.12c.24.08.49.16.75.22 3.1.72 7.43-.31 13.19-3.13a9.15 9.15 0 0 1 5.77-.76l.34.08a9.17 9.17 0 0 1 4.84 3.24c4.24 5.51 7.91 8.38 11.2 8.79a5.9 5.9 0 0 0 4.5-1.26 7.05 7.05 0 0 0 2.22-3.11c1.29-3.5 5.08-18.02.08-25.11z"/><path d="m17.25 24.46a1.67 1.67 0 0 0 -2 1.25l-.55 2.36-2.36-.55a1.67 1.67 0 1 0 -.76 3.26l2.36.55-.56 2.36a1.68 1.68 0 0 0 3.27.76l.55-2.36 2.36.55a1.67 1.67 0 0 0 .76-3.26l-2.32-.55.55-2.36a1.67 1.67 0 0 0 -1.3-2.01z"/><path d="m38.94 29.33a1.87 1.87 0 1 0 1.4 2.25 1.87 1.87 0 0 0 -1.4-2.25z"/><circle cx="36.7" cy="38.94" r="1.87" transform="matrix(.2286907 -.97349913 .97349913 .2286907 -9.6 65.76)"/><path d="m34.42 32.38a1.87 1.87 0 1 0 1.4 2.25 1.87 1.87 0 0 0 -1.4-2.25z"/><path d="m40.62 37.68a1.87 1.87 0 1 0 .85-3.68 1.87 1.87 0 1 0 -.85 3.65z"/></g></svg>