<svg viewBox="0 0 349.76 303.75" xmlns="http://www.w3.org/2000/svg" xmlns:xlink="http://www.w3.org/1999/xlink"><linearGradient id="a" gradientUnits="userSpaceOnUse" x1="91.28" x2="64.86" y1="-144.96" y2="311.27"><stop offset="0" stop-color="#864fc3"/><stop offset=".2" stop-color="#7b64bd"/><stop offset=".4" stop-color="#6e76b7"/><stop offset=".6" stop-color="#5d86b1"/><stop offset=".8" stop-color="#4395ab"/><stop offset="1" stop-color="#00a4a4"/></linearGradient><linearGradient id="b" x1="314.91" x2="311.85" xlink:href="#a" y1="-54.85" y2="336.45"/><g fill="#fff"><path d="m312.38 214.32-7.6 5.45a14.52 14.52 0 1 0 16.91 23.6l7.6-5.45a14.52 14.52 0 0 0 -16.91-23.6z"/><path d="m314.12 148 14-10.21a17.27 17.27 0 0 0 -20.36-27.89l-14 10.21a17.27 17.27 0 0 0 20.36 27.89z"/><path d="m337.81 163a16.26 16.26 0 0 0 -13.41-6.33 23.09 23.09 0 0 0 -13.4 4.52l-16.19 11.81a22.57 22.57 0 0 0 -8.87 13 15.81 15.81 0 0 0 2.38 13.1 16.24 16.24 0 0 0 13.4 6.33 23.09 23.09 0 0 0 13.44-4.55l16.16-11.79a22.51 22.51 0 0 0 8.86-13 15.81 15.81 0 0 0 -2.37-13.09z"/></g><path d="m114.93 10.68c6.56 4.35 12.69 15.49 16.81 30.55 3.55 13 5 27.33 3.56 35a342.17 342.17 0 0 1 -11.51 43.77c-1 3.22-3.32 7.9-3.32 11-1.47 5.43 7.73 9.38 7.73 9.38.18-15.3 8.55-32.12 10.63-38.92 1.84-6.84 3.68-14.55 5.4-23.58s.27-24.45-3.73-39c-.43-1.57-.94-3.33-1.55-5.22a56.45 56.45 0 0 0 -5.63-14l-2.9-4.83s-3.83-5.26-4.31-5.74-4.49-4.62-6.69-5.74c-2.63-1.35-4.51-2.45-6.85-2.9a27.42 27.42 0 0 0 -8.82-.18 25.85 25.85 0 0 0 -7.56 3.53c-9.57 6.36-8.88 21.39-8.27 34.64.26 5.63.5 11-.15 14.26-6.54 33.24-22.07 61.6-35.77 86.62-12.79 23.36-23.84 43.53-25 62.59-1.93 32.73-4.92 57.92-26 84.22a4.53 4.53 0 0 0 .7 6.38 4.48 4.48 0 0 0 2.84 1 4.54 4.54 0 0 0 3.55-1.7 112.48 112.48 0 0 0 21.77-42.51c3.71-13.82 5.14-28.17 6.24-46.85 1-17 11.6-36.37 23.87-58.77 14-25.59 29.91-54.6 36.71-89.22.87-4.39.6-10.24.32-16.43-.48-10.32-1.06-23.15 4.23-26.67 5.02-3.36 9.37-3.56 13.7-.68z" fill="url(#a)"/><path d="m349 178.11a24.25 24.25 0 0 0 -19.49-30.11l3.95-2.88a26.35 26.35 0 0 0 -15.55-47.62 33.47 33.47 0 0 0 -5.77.64 52.26 52.26 0 0 0 -10.1 4.7l-8.77 6.8c-8.27 4.44-14.27 13.5-15.36 20.36a26.15 26.15 0 0 0 4.75 19.6 26.46 26.46 0 0 0 15 10l-8.22 6a31.62 31.62 0 0 0 -12.35 18.4 24.27 24.27 0 0 0 20.2 30.21c-6.55 3.2-7.22 14.56-7.41 16.94a23.92 23.92 0 0 0 4.17 14.22 23.62 23.62 0 0 0 9 7.54l4 1.78 5 .5h1.1a23.36 23.36 0 0 0 13.85-4.44l7.6-5.44a23.6 23.6 0 0 0 5.4-32.93 23.64 23.64 0 0 0 -12.89-9l9.54-7a31.63 31.63 0 0 0 12.35-18.27zm-59-33.88a17.27 17.27 0 0 1 3.76-24.12l14-10.21a17.15 17.15 0 0 1 10.16-3.32 17.27 17.27 0 0 1 10.2 31.21l-14 10.21a17.15 17.15 0 0 1 -10.12 3.32 17.34 17.34 0 0 1 -14-7.09zm42.64 73.44a14.51 14.51 0 0 1 -3.35 20.25l-7.6 5.45a14.4 14.4 0 0 1 -8.44 2.72 14.52 14.52 0 0 1 -8.47-26.32l7.6-5.45a14.53 14.53 0 0 1 20.26 3.35zm-1.32-28.59-16.16 11.79a23.09 23.09 0 0 1 -13.44 4.55 16.24 16.24 0 0 1 -13.4-6.33 15.81 15.81 0 0 1 -2.38-13.1 22.57 22.57 0 0 1 8.87-13l16.19-11.8a23.09 23.09 0 0 1 13.44-4.55 16.26 16.26 0 0 1 13.37 6.36 15.81 15.81 0 0 1 2.37 13.1 22.51 22.51 0 0 1 -8.86 12.98z" fill="url(#b)"/><path d="m1.7 292.51a4.48 4.48 0 0 0 2.84 1 4.54 4.54 0 0 0 3.55-1.7 112.48 112.48 0 0 0 21.77-42.51c3.71-13.82 5.14-28.17 6.24-46.85 1-17 11.6-36.37 23.87-58.77 14-25.59 29.91-54.6 36.71-89.22.87-4.39.6-10.24.32-16.43-.48-10.32-1.06-23.15 4.23-26.67 5-3.34 9.37-3.56 13.7-.68 6.56 4.35 12.69 15.49 16.81 30.55 3.55 13 5 27.33 3.56 35a342.17 342.17 0 0 1 -11.51 43.77c-1 3.22-2 6.3-2.92 9.33a69.75 69.75 0 0 0 -2.59 18.67v29.22l-23.86 105.26-38.22 21.27z" fill="#fff"/></svg>