<svg enable-background="new 0 0 259.2 346.4" viewBox="0 0 259.2 346.4" xmlns="http://www.w3.org/2000/svg" xmlns:xlink="http://www.w3.org/1999/xlink"><linearGradient id="a"><stop offset="0" stop-color="#864fc3"/><stop offset=".2" stop-color="#7b64bd"/><stop offset=".4" stop-color="#6e76b7"/><stop offset=".6" stop-color="#5d86b1"/><stop offset=".8" stop-color="#4395ab"/><stop offset="1" stop-color="#00a4a4"/></linearGradient><linearGradient id="b" gradientUnits="userSpaceOnUse" x1="288.9011" x2="19.8622" xlink:href="#a" y1="86.0159" y2="362.4659"/><linearGradient id="c" gradientUnits="userSpaceOnUse" x1="137.3442" x2="133.0988" xlink:href="#a" y1="-102.4951" y2="283.8405"/><path d="m167 236.8-28.5 21.3s-47.5 28.4-66.2 40.3c-10.2 6.5-19.8 10.3-29.1 14-6.9 2.7-14.1 5.6-21.3 9.5-7.6 4.1-11.8 8.3-17.7 14.1-.9.8-1.8 1.7-2.7 2.7-1.8 1.8-1.8 4.6-.1 6.4.9.9 2.1 1.4 3.3 1.4 1.1 0 2.3-.4 3.2-1.3 1-1 1.9-1.9 2.8-2.7 5.7-5.7 9.2-9.1 15.6-12.5 6.8-3.7 13.4-6.3 20.4-9 9.7-3.8 19.7-7.8 30.6-14.8 20.9-13.3 63.9-40.4 64-40.7 0 0 20.9-13.3 28.4-20.3 14.9-13.9 27.8-22 27.8-22l-6.8-5.5z" fill="url(#b)"/><path d="m37.9 119.5c-2.8 0-5.6-.4-8.4-1.2-6.8-2-11.6-5.7-13.5-7.1-.2-.1-.3-.3-.4-.3.2.1-4.6-2.5-3.4-6.8l5.4-.5c1.5-.1 2.4.7 3.3 1.3 1.5 1.2 5.5 4.2 10.8 5.8 6.4 1.9 12.7.8 18.6-3 14.3-9.3 159.6-98.2 164.8-101 3.8-2 14.1-7.2 23.3-6.4 7.6.7 11 2.7 15 7.1 7.1 7.7 6.8 13.3 3.3 21.9-4 9.9-36.9 27.9-36.9 27.9s-7.8 4.4-15.1 9.7c-6.2 4.5-14.9 11.4-20.9 18.5-3.7 4.4-5.6 9.9-6.2 17.6l-7.9-.6c.7-9.4 3.2-16.4 8-22.1 6.5-7.8 15.7-15.1 22.3-19.9 7.7-5.6 35.1-22.7 35.1-22.7s13.5-8.1 15.2-12.4c1.9-4.9 1.6-9.1-3-13.3-6.1-5.4-16-3.1-22.6-.2-6.3 2.8-154.7 92.5-170 102.5-4.3 2.8-8.8 4.5-13.5 5-1.1.2-2.2.2-3.3.2z" fill="url(#c)"/></svg>