<svg viewBox="0 0 48.54 42.38" xmlns="http://www.w3.org/2000/svg"><path d="m13.75 13.5a2.66 2.66 0 0 0 -1.88 4.55 2.55 2.55 0 0 0 1.88.78 2.67 2.67 0 0 0 1.88-4.55 2.58 2.58 0 0 0 -1.88-.78zm21.16 0a2.57 2.57 0 0 0 -1.88.78 2.64 2.64 0 0 0 0 3.77 2.66 2.66 0 0 0 3.76-3.77 2.57 2.57 0 0 0 -1.88-.78zm-10.66 0a2.57 2.57 0 0 0 -1.88.78 2.64 2.64 0 0 0 0 3.77 2.66 2.66 0 0 0 3.76-3.77 2.57 2.57 0 0 0 -1.88-.78zm22.28 16.81a2 2 0 0 1 -2 2h-6.17v5.21l-5.09-5.21h-29.27a2 2 0 0 1 -2-2v-26.31a2 2 0 0 1 2-2h40.51a1.93 1.93 0 0 1 1.42.59 1.94 1.94 0 0 1 .6 1.41zm-2.02-30.31h-40.51a3.88 3.88 0 0 0 -1.51.3 4 4 0 0 0 -1.31.88 7.24 7.24 0 0 0 -.82 1.31 3.33 3.33 0 0 0 -.36 1.51v26.31a3.69 3.69 0 0 0 .36 1.59 4.24 4.24 0 0 0 .82 1.25 4.17 4.17 0 0 0 1.31.85 4.06 4.06 0 0 0 1.51.33h28.44l7.93 8.05v-8.05h4.14a4 4 0 0 0 3.67-2.43 3.69 3.69 0 0 0 .36-1.59v-26.31a3.33 3.33 0 0 0 -.36-1.54 6.77 6.77 0 0 0 -.83-1.31 3.84 3.84 0 0 0 -1.3-.85 3.88 3.88 0 0 0 -1.54-.3z" fill="#fff"/></svg>