<svg viewBox="0 0 42.13 45.19" xmlns="http://www.w3.org/2000/svg"><path d="m9.17 1.7a10.86 10.86 0 0 0 -1.84.3 6 6 0 0 0 -2.12 1l-.29.31a11.59 11.59 0 0 0 -1.07.79 5.12 5.12 0 0 0 -1.06 1.14 5.64 5.64 0 0 0 -.79 1.43 4.6 4.6 0 0 0 -.28 1.92 12.49 12.49 0 0 0 .84 3.82 34.81 34.81 0 0 0 2.17 4.68 59.93 59.93 0 0 0 3.51 5.59c1.41 2 3.06 4.23 4.95 6.63a55.64 55.64 0 0 0 6.3 6.53 45.07 45.07 0 0 0 5.92 4.44 26.49 26.49 0 0 0 5 2.48 10 10 0 0 0 3.38.73 4.14 4.14 0 0 0 1.93-.67 11.39 11.39 0 0 0 1.9-1.48 14.89 14.89 0 0 0 1.53-1.91 11.61 11.61 0 0 0 1-1.79 1.87 1.87 0 0 0 .15-1.4 2.34 2.34 0 0 0 -.32-.59c-.28-.19-1.3-.84-3.08-1.95l-4.2-2.6a3.19 3.19 0 0 0 -.82-.42 2.26 2.26 0 0 0 -.8-.12 1.43 1.43 0 0 0 -.6.12 1 1 0 0 0 -.29.21l-.44.47a11.8 11.8 0 0 1 -.92.88 3.45 3.45 0 0 1 -1.27.75 3.34 3.34 0 0 1 -1.4.15 3.85 3.85 0 0 1 -1.46-.24 4.13 4.13 0 0 1 -1.38-.85c-.35-.33-1-1.07-2.09-2.23s-2.23-2.43-3.46-3.82-2.36-2.81-3.51-4.13-2-2.35-2.56-3.07a4.67 4.67 0 0 1 -.76-1.42 4 4 0 0 1 -.15-1.55 3.49 3.49 0 0 1 .4-1.22 4.59 4.59 0 0 1 .72-1 3.86 3.86 0 0 1 .82-.84c.29-.21.57-.42.83-.63l.19-.1a1.46 1.46 0 0 0 .56-1.18 2.17 2.17 0 0 0 -.13-.84c-.14-.33-.76-1.58-1.84-3.74s-1.73-3.43-1.94-3.82a1.67 1.67 0 0 0 -.47-.58 1.19 1.19 0 0 0 -.76-.18zm24.62 43.49a11.48 11.48 0 0 1 -3.93-.81 30.05 30.05 0 0 1 -5.41-2.66 45.54 45.54 0 0 1 -6.23-4.63 48.84 48.84 0 0 1 -6.3-6.73q-2.92-3.7-5.16-6.83a46.33 46.33 0 0 1 -3.62-5.88 30 30 0 0 1 -2.28-4.92 14 14 0 0 1 -.86-4.08 6.55 6.55 0 0 1 .36-2.52 9 9 0 0 1 1-1.94 16.26 16.26 0 0 1 1.34-1.3l1.17-1 .29-.21a6.51 6.51 0 0 1 2.71-1.29 13.59 13.59 0 0 1 2.24-.39 2.59 2.59 0 0 1 1.82.49 3.55 3.55 0 0 1 .94 1.22c.22.32.88 1.58 2 3.78s1.74 3.51 1.89 3.89a2.54 2.54 0 0 1 .28.94 3.35 3.35 0 0 1 0 1 5.36 5.36 0 0 1 -.46 1.12 3.49 3.49 0 0 1 -.76.93l-.2.11a13.42 13.42 0 0 0 -1.31 1.1 2.27 2.27 0 0 0 -.8 1.48 1.49 1.49 0 0 0 .08.85 3 3 0 0 0 .48.83c.63.78 1.5 1.83 2.62 3.16s2.27 2.67 3.45 4 2.28 2.59 3.29 3.69a19.91 19.91 0 0 0 2 2 3.05 3.05 0 0 0 .82.57 1.69 1.69 0 0 0 .81.17 1.92 1.92 0 0 0 .9 0 1.58 1.58 0 0 0 .69-.43 9.15 9.15 0 0 0 1-1l.29-.36h.06a3.72 3.72 0 0 1 .59-.42 2.68 2.68 0 0 1 1.41-.26 3.56 3.56 0 0 1 1.26.2 7.14 7.14 0 0 1 1.28.61q1.74 1 4.56 2.79l2.82 1.75.1.1a3.46 3.46 0 0 1 1 1.46 3.2 3.2 0 0 1 -.31 2.62 14.47 14.47 0 0 1 -1.18 2 15.5 15.5 0 0 1 -1.87 2.22 12.48 12.48 0 0 1 -2.29 1.78 5.15 5.15 0 0 1 -2.58.8z" fill="#fff"/></svg>