<svg viewBox="0 0 121.97 112.24" xmlns="http://www.w3.org/2000/svg" xmlns:xlink="http://www.w3.org/1999/xlink"><linearGradient id="a" gradientUnits="userSpaceOnUse" x1="21.23" x2="134.11" y1="7.48" y2="146.66"><stop offset="0" stop-color="#00dfff"/><stop offset=".33" stop-color="#38c2f9"/><stop offset=".63" stop-color="#65abf4"/><stop offset=".86" stop-color="#819df1"/><stop offset="1" stop-color="#8b98f0"/></linearGradient><g stroke-miterlimit="10"><path d="m85.4 1.2-49.2.16a10.28 10.28 0 0 0 -9 5.31l-24.71 44.62a10.31 10.31 0 0 0 0 10l25.08 44.51a10.31 10.31 0 0 0 9 5.24l49.21-.16a10.32 10.32 0 0 0 9-5.31l24.7-44.57a10.3 10.3 0 0 0 0-10.05l-25.08-44.51a10.29 10.29 0 0 0 -9-5.24z" fill="url(#a)" stroke="#f2f2f2" stroke-width="2.4"/><g fill="#fff" stroke="#fff"><path d="m53.23 63.47a.9.9 0 0 0 -.64-.37.91.91 0 0 0 -.7.24l-1.2 1.12-1.52-2.29a.86.86 0 0 0 -.62-.38.89.89 0 0 0 -.7.21l-5.91 5.15a.84.84 0 0 0 -.07 1.22.87.87 0 0 0 .67.3.94.94 0 0 0 .57-.22l5.15-4.45 1.13 1.71-1.51 1.41a.89.89 0 0 0 -.28.61.91.91 0 0 0 .13.48 1.71 1.71 0 0 0 .11.14.89.89 0 0 0 1.25 0l2-1.91 1.23-1.14 2 2.82a.85.85 0 0 0 .74.37.88.88 0 0 0 .49-.15.86.86 0 0 0 .22-1.21z"/><path d="m60.93 49.42a7.31 7.31 0 0 0 5.12-2.16 7.08 7.08 0 0 0 -.15-10.12 7.38 7.38 0 0 0 -10.3.15 7.06 7.06 0 0 0 .15 10.11 7.3 7.3 0 0 0 5.18 2.02zm-4.06-10.92a5.59 5.59 0 0 1 7.8-.11 5.35 5.35 0 0 1 .11 7.66 5.6 5.6 0 0 1 -7.8.11 5.36 5.36 0 0 1 -.11-7.66z"/><path d="m37.45 55.71-10 27.9a.86.86 0 0 0 .12.79.87.87 0 0 0 .73.36l66.29-1a.93.93 0 0 0 .72-.38.88.88 0 0 0 .09-.8l-10.81-27.58a.88.88 0 0 0 -.83-.56l-10.76.19.41-.41a17 17 0 0 0 -.41-24.22 17.72 17.72 0 0 0 -24.71.36 16.94 16.94 0 0 0 .36 24.25l.42.39-10.8.16a.86.86 0 0 0 -.82.55zm29.82 4.66 12.52-.18 1.48 5a37.66 37.66 0 0 1 -9.54.33c-5.68-.66-8 3.14-8.07 3.3a.59.59 0 0 1 0 .08 6.13 6.13 0 0 1 -4.07 3c-3.2.86-5.21 3.71-5.9 4.85l-15.54.25 4.26-16.25 12.51-.18 5.63 5.37a1.14 1.14 0 0 0 .23.15.93.93 0 0 0 .4.09.47.47 0 0 0 .17 0 .8.8 0 0 0 .45-.24zm17.26 15.94-28.74.41a8.32 8.32 0 0 1 4.21-3.14 8 8 0 0 0 5.19-3.88c.18-.27 2-2.92 6.32-2.41a39.1 39.1 0 0 0 10.24-.38zm-39.41-33.81a15.16 15.16 0 0 1 4.44-11 15.89 15.89 0 0 1 22.2-.32 15.22 15.22 0 0 1 .33 21.82l-1.89 1.92-3.94 4-5.11 5.17-5.26-5-6-5.72a15.21 15.21 0 0 1 -4.77-10.87zm5.74 14.18 2.27 2.16-11.42.16a.89.89 0 0 0 -.85.65l-4.72 18a.88.88 0 0 0 .86 1.08l17.17-.25 31.55-.48a.92.92 0 0 0 .69-.35.83.83 0 0 0 .14-.76l-5.25-17.82a.89.89 0 0 0 -.86-.63l-11.44.17 2.19-2.22 12-.17 10.11 25.87-63.75.91 9.36-26.16z"/></g></g></svg>