<svg viewBox="0 0 121.51 112.24" xmlns="http://www.w3.org/2000/svg" xmlns:xlink="http://www.w3.org/1999/xlink"><linearGradient id="a" gradientTransform="matrix(.99998026 .00628314 -.00628314 .99998026 -6.31 17.65)" gradientUnits="userSpaceOnUse" x1="27.77" x2="140.39" y1="-10.69" y2="128.16"><stop offset="0" stop-color="#00dfff"/><stop offset=".33" stop-color="#38c2f9"/><stop offset=".63" stop-color="#65abf4"/><stop offset=".86" stop-color="#819df1"/><stop offset="1" stop-color="#8b98f0"/></linearGradient><path d="m85.57 1.5-48.94-.3a10.31 10.31 0 0 0 -9 5.23l-25.1 44.32a10.31 10.31 0 0 0 -.06 10l24.53 44.65a10.3 10.3 0 0 0 9 5.34l48.95.3a10.31 10.31 0 0 0 9-5.23l25.05-44.33a10.3 10.3 0 0 0 .07-10l-24.54-44.64a10.26 10.26 0 0 0 -8.96-5.34z" fill="url(#a)" stroke="#f2f2f2" stroke-miterlimit="10" stroke-width="2.4"/><g fill="#fff"><path d="m48.62 79.94a19.3 19.3 0 0 1 -8.14-15.69l.12-19c0-.55 0-1.11.09-1.66a1.12 1.12 0 0 0 -1-1.2 1.14 1.14 0 0 0 -1.24 1c0 .61-.09 1.23-.09 1.85l-.12 19a21 21 0 0 0 2.43 9.92 22.06 22.06 0 0 0 6.62 7.54 1.17 1.17 0 0 0 1.6-.22 1.07 1.07 0 0 0 -.27-1.54z"/><path d="m53.93 82.67a21.79 21.79 0 0 1 -2.07-.83 1.17 1.17 0 0 0 -1.53.5 1.08 1.08 0 0 0 .53 1.47 24 24 0 0 0 2.3.93 1.31 1.31 0 0 0 .38.06 1.11 1.11 0 0 0 1.08-.73 1.08 1.08 0 0 0 -.69-1.4z"/><path d="m82.09 59.52a1.12 1.12 0 0 0 -1.15 1.09v3.89c-.07 10.7-9.19 19.36-20.34 19.29a20.62 20.62 0 0 1 -2.36-.15 1.13 1.13 0 0 0 -1.27 1 1.1 1.1 0 0 0 1 1.22 23.06 23.06 0 0 0 2.63.16c12.4.08 22.56-9.55 22.63-21.47v-3.89a1.12 1.12 0 0 0 -1.14-1.14z"/><path d="m61 23.81a22.94 22.94 0 0 0 -13.45 4.19 21.61 21.61 0 0 0 -8.11 10.7 1.08 1.08 0 0 0 .73 1.3 1.15 1.15 0 0 0 1.44-.7 19.44 19.44 0 0 1 7.29-9.61 20.58 20.58 0 0 1 12-3.73c11.15.07 20.17 8.83 20.1 19.54v10.72a1.15 1.15 0 0 0 2.29 0l.06-10.68c.05-11.9-9.98-21.66-22.35-21.73z"/><path d="m45.23 70.34a1.08 1.08 0 0 0 -.53 1.47 17.47 17.47 0 0 0 6.4 6.93 18.39 18.39 0 0 0 16.84 1.26 1.08 1.08 0 0 0 .58-1.45 1.16 1.16 0 0 0 -1.52-.55 16.09 16.09 0 0 1 -14.68-1.08 15.28 15.28 0 0 1 -5.58-6 1.16 1.16 0 0 0 -1.51-.58z"/><path d="m71.6 77.53a1.2 1.2 0 0 0 .76-.27 16.79 16.79 0 0 0 6.12-12.78l.12-19a16.45 16.45 0 0 0 -3.37-10.11 1.17 1.17 0 0 0 -1.6-.24 1.07 1.07 0 0 0 -.25 1.53 14.39 14.39 0 0 1 2.94 8.8l-.12 19a14.64 14.64 0 0 1 -5.34 11.14 1.06 1.06 0 0 0 -.11 1.55 1.14 1.14 0 0 0 .85.38z"/><path d="m69.7 33.23a1.21 1.21 0 0 0 .65.2 1.15 1.15 0 0 0 .94-.47 1.07 1.07 0 0 0 -.29-1.53 17.35 17.35 0 0 0 -2.74-1.51 1.15 1.15 0 0 0 -1.51.53 1.08 1.08 0 0 0 .55 1.46 15.34 15.34 0 0 1 2.4 1.32z"/><path d="m63.9 28.6a18.32 18.32 0 0 0 -3-.26c-9.8-.06-17.83 7.55-17.89 17l-.11 18.43a1.14 1.14 0 0 0 2.28 0l.12-18.43c.05-8.2 7-14.84 15.59-14.79a17.19 17.19 0 0 1 2.59.23 1.15 1.15 0 0 0 1.32-.89 1.1 1.1 0 0 0 -.9-1.29z"/><path d="m50 38.34a1.08 1.08 0 0 0 .3 1.53 1.18 1.18 0 0 0 1.59-.29 10.9 10.9 0 0 1 9-4.51 10.59 10.59 0 0 1 10.71 10.41l-.08 12.29a1.14 1.14 0 0 0 2.28 0l.08-12.28a12.82 12.82 0 0 0 -13-12.62 13.2 13.2 0 0 0 -10.88 5.47z"/><path d="m48.88 49.07a1.11 1.11 0 0 0 1.12-1.07v-2.63a1.15 1.15 0 0 0 -2.29 0v2.63a1.11 1.11 0 0 0 1.17 1.07z"/><path d="m47.64 64.29a12.51 12.51 0 0 0 6.64 11 1.14 1.14 0 0 0 .56.14 1.12 1.12 0 0 0 1-.55 1.08 1.08 0 0 0 -.43-1.5 10.3 10.3 0 0 1 -5.48-9.07l.07-11.94a1.14 1.14 0 0 0 -2.28 0l-.08 11.93z"/><path d="m73.76 64.45v-2a1.14 1.14 0 0 0 -2.28 0v2a10.59 10.59 0 0 1 -10.84 10.27 11.66 11.66 0 0 1 -2.57-.31 1.15 1.15 0 0 0 -1.39.79 1.11 1.11 0 0 0 .83 1.34 13.56 13.56 0 0 0 3.11.37 12.82 12.82 0 0 0 13.14-12.46z"/><path d="m69.16 45.58a8.27 8.27 0 0 0 -8.16-8.17 8.49 8.49 0 0 0 -6 2.26 7.78 7.78 0 0 0 -2.53 5.7l-.12 18.95a1.14 1.14 0 0 0 2.28 0l.12-19a5.67 5.67 0 0 1 1.84-4.14 6.19 6.19 0 0 1 4.41-1.57 6 6 0 0 1 5.89 6l-.08 10.39a1.11 1.11 0 0 0 1.13 1.11 1.13 1.13 0 0 0 1.15-1.11z"/><path d="m57.08 65.62a6 6 0 0 0 12 .07v-5.3a1.14 1.14 0 0 0 -2.28 0v5.31a3.7 3.7 0 0 1 -7.39-.05l.06-9.4a1.14 1.14 0 0 0 -2.28 0l-.06 9.4z"/><path d="m63.16 66.33a1.11 1.11 0 0 0 1.15-1.09l.13-19.73a3.57 3.57 0 0 0 -3.44-3.51 3.66 3.66 0 0 0 -2.67.94 3.39 3.39 0 0 0 -1.14 2.5v6.15a1.14 1.14 0 0 0 2.28 0v-6.14a1.22 1.22 0 0 1 .42-.92 1.33 1.33 0 0 1 1-.35 1.35 1.35 0 0 1 1.25 1.35l-.14 19.7a1.11 1.11 0 0 0 1.16 1.1z"/></g></svg>