<svg viewBox="0 0 58.23 47.36" xmlns="http://www.w3.org/2000/svg"><g fill="#fff"><path d="m20.75 1.7c1.79 0 3.3.13 3.65.17a20.53 20.53 0 0 1 5.11 1.38 17.71 17.71 0 0 1 9.18 7.88 14.19 14.19 0 0 1 .84 1.9 23.69 23.69 0 0 0 -4.28.58 22.34 22.34 0 0 0 -7.62 3.27 18 18 0 0 0 -6.77 8.12 14.53 14.53 0 0 0 -1.06 7.09c.05.45.12.9.21 1.33a20.54 20.54 0 0 1 -3.51-.42l-1.44-.34-.67-.17a3.83 3.83 0 0 0 -.88-.1 3.63 3.63 0 0 0 -1.84.5c-.89.5-1.78 1-2.66 1.53v-.06l.22-.81.06-.23a7.3 7.3 0 0 0 .18-.71 3.1 3.1 0 0 0 -1.16-3.06l-.53-.43c-.41-.33-.8-.64-1.16-1a15.32 15.32 0 0 1 -4-5.57 13 13 0 0 1 -.82-3.15c0-.19-.1-1.28-.1-2.06a18 18 0 0 1 .23-2.34 13.59 13.59 0 0 1 2.27-5.33 17.66 17.66 0 0 1 6.23-5.46 19.75 19.75 0 0 1 4.89-1.88 20.63 20.63 0 0 1 4.47-.62h1m0-1.7h-1a22.55 22.55 0 0 0 -4.81.66 21.16 21.16 0 0 0 -5.36 2.05 19.52 19.52 0 0 0 -6.82 6 15.33 15.33 0 0 0 -2.53 5.91 18.51 18.51 0 0 0 -.27 2.71c0 .81.08 2 .11 2.29a14.9 14.9 0 0 0 1 3.6 16.93 16.93 0 0 0 4.39 6.19c.56.51 1.17 1 1.75 1.46a1.41 1.41 0 0 1 .57 1.43c0 .27-.14.54-.21.81-.29 1.09-.58 2.17-.86 3.26a.65.65 0 0 0 .23.7.6.6 0 0 0 .4.16.65.65 0 0 0 .33-.1l.29-.14c1.5-.87 3-1.75 4.51-2.61a2 2 0 0 1 1-.27 2 2 0 0 1 .48.06c.72.17 1.43.35 2.16.51a23 23 0 0 0 4.83.49h.79c.28 0 .31-.1.26-.36a28 28 0 0 1 -.54-2.85 13 13 0 0 1 .94-6.27 16.28 16.28 0 0 1 6.15-7.38 20.59 20.59 0 0 1 7-3 22.09 22.09 0 0 1 4.92-.55h.82c.37 0 .4-.08.29-.51a16 16 0 0 0 -1.47-3.9 19.48 19.48 0 0 0 -10-8.63 22.19 22.19 0 0 0 -5.51-1.54 37.27 37.27 0 0 0 -3.88-.19zm-6.31 13.15a2.11 2.11 0 0 1 0-4.22 2.11 2.11 0 0 1 0 4.22zm10.62 0a2.1 2.1 0 0 1 0-4.2 2.1 2.1 0 0 1 0 4.2z"/><path d="m40.6 17.85a20.68 20.68 0 0 1 2.82.2 16.37 16.37 0 0 1 9.43 4.52 12 12 0 0 1 3.15 5.06l.11.36a7.32 7.32 0 0 1 .41 1.74 13.7 13.7 0 0 1 0 2.09c-.05.37-.13.78-.24 1.28a11.65 11.65 0 0 1 -3.37 5.9c-.51.5-1.08 1-1.69 1.47a3 3 0 0 0 -1.12 3.44l.1.38c-.44-.25-.86-.49-1.26-.75a3.75 3.75 0 0 0 -2-.59 5.86 5.86 0 0 0 -1.55.24 17.5 17.5 0 0 1 -4.65.61c-.63 0-1.28 0-1.93-.09a17.51 17.51 0 0 1 -3.67-.71c-4.4-1.42-7.4-3.84-9.18-7.38a10.37 10.37 0 0 1 -1-6.06 12.1 12.1 0 0 1 5-8.26 16 16 0 0 1 5.66-2.76 18.89 18.89 0 0 1 5-.68m0-1.7a20.28 20.28 0 0 0 -5.45.74 18 18 0 0 0 -6.24 3.05 13.77 13.77 0 0 0 -5.67 9.39 11.89 11.89 0 0 0 1.2 7c2.14 4.27 5.73 6.8 10.17 8.23a19 19 0 0 0 4 .8 20.89 20.89 0 0 0 2.09.1 19.26 19.26 0 0 0 5.1-.67 4.28 4.28 0 0 1 1.1-.18 2.05 2.05 0 0 1 1.08.38c.82.52 1.68 1 2.51 1.47.45.28.88.6 1.33.89a.38.38 0 0 0 .16 0h.14a.91.91 0 0 0 .37-1c-.26-1-.53-1.94-.79-2.92a1.33 1.33 0 0 1 .56-1.69c.62-.51 1.24-1 1.81-1.58a13.41 13.41 0 0 0 3.77-6.75c.11-.5.2-1 .26-1.39a13.66 13.66 0 0 0 .06-2.44 10.34 10.34 0 0 0 -.59-2.49 13.51 13.51 0 0 0 -3.59-5.75 18.23 18.23 0 0 0 -10.38-5 22.49 22.49 0 0 0 -3.06-.22zm5.19 12.06a2.1 2.1 0 0 1 0-4.19 2.1 2.1 0 0 1 0 4.19zm-10.29 0a2.1 2.1 0 0 1 -2.07-2.1 2.12 2.12 0 0 1 2.07-2.12 2.1 2.1 0 0 1 0 4.19z"/></g></svg>