<svg viewBox="0 0 53.65 45.35" xmlns="http://www.w3.org/2000/svg"><path d="m27.9 18.61-.5 1.56 1.89 1.38 6.42-1.11.92 6.45 4.93 3.58 3.44-.54.44 3.36 5.13 3.71-3.81 5.24-23.17-16.82-1.26.84a14.63 14.63 0 0 1 -3.61 1.55 15.38 15.38 0 0 1 -3.85.56 13.22 13.22 0 0 1 -3.73-.71 13 13 0 0 1 -3.55-1.86 12.81 12.81 0 0 1 -3.53-3.8 13.14 13.14 0 0 1 -1.7-4.6 13.44 13.44 0 0 1 .18-5.09 12.55 12.55 0 0 1 2.09-4.7 13 13 0 0 1 3.86-3.53 13.62 13.62 0 0 1 4.78-1.73 13 13 0 0 1 4.91.21 12.7 12.7 0 0 1 4.75 2.17 13.07 13.07 0 0 1 2.85 2.8 13.27 13.27 0 0 1 1.83 3.33 15.44 15.44 0 0 1 .65 3.84 15.08 15.08 0 0 1 -.36 3.91zm-3.68-15.61a15 15 0 0 0 -5.45-2.58 15.16 15.16 0 0 0 -5.84-.24 16.05 16.05 0 0 0 -5.54 2 14.78 14.78 0 0 0 -4.54 4.14 14.48 14.48 0 0 0 -2.47 5.49 16 16 0 0 0 -.19 5.88 15 15 0 0 0 2 5.48 15.22 15.22 0 0 0 4.11 4.42 15.49 15.49 0 0 0 4.19 2.17 14.52 14.52 0 0 0 4.43.73 15.87 15.87 0 0 0 4.46-.6 14.75 14.75 0 0 0 4.07-1.89l23.8 17.31 6.4-8.8-6.18-4.5-.64-4.64-4.71.74-3.46-2.51-1.2-7.6-7.53 1.1a15 15 0 0 0 .51-4.45 15.9 15.9 0 0 0 -.79-4.42 14.59 14.59 0 0 0 -2.07-4 14.92 14.92 0 0 0 -3.36-3.23zm-7.22 13.56a1.1 1.1 0 0 0 -.2-1.56l-5.24-3.81a1.1 1.1 0 0 0 -1.54.24 1.1 1.1 0 0 0 .24 1.57l5.24 3.82a1.1 1.1 0 0 0 1.5-.26z" fill="#fff"/></svg>