<svg viewBox="0 0 13.96 22.16" xmlns="http://www.w3.org/2000/svg" xmlns:xlink="http://www.w3.org/1999/xlink"><linearGradient id="a" gradientTransform="matrix(.99999903 -.00139626 .00139626 .99999903 -26.33 47.41)" gradientUnits="userSpaceOnUse" x1="33.25" x2="33.55" y1="-50" y2="-21.7"><stop offset="0" stop-color="#fff"/><stop offset="1" stop-color="#6ee5f8"/></linearGradient><path d="m2 9 3.79-4.62.02 16.62a1.11 1.11 0 0 0 .35.81 1.08 1.08 0 0 0 .82.35 1.2 1.2 0 0 0 1.17-1.16v-16.65l3.85 4.65a1.11 1.11 0 0 0 1.64 0 1.12 1.12 0 0 0 .36-.86 1.09 1.09 0 0 0 -.33-.82l-5.81-6.99a1 1 0 0 0 -.42-.26 1.5 1.5 0 0 0 -.44-.07 1.68 1.68 0 0 0 -.5.07 1.06 1.06 0 0 0 -.41.26l-5.75 7a1.09 1.09 0 0 0 -.34.83 1.12 1.12 0 0 0 .33.84 1.06 1.06 0 0 0 .82.36 1 1 0 0 0 .85-.36z" fill="url(#a)"/></svg>