<svg viewBox="0 0 121.98 112.24" xmlns="http://www.w3.org/2000/svg" xmlns:xlink="http://www.w3.org/1999/xlink"><linearGradient id="a" gradientTransform="matrix(.99999925 -.00122173 .00122173 .99999925 -2.78 18.69)" gradientUnits="userSpaceOnUse" x1="24.07" x2="137.02" y1="-11.38" y2="127.88"><stop offset="0" stop-color="#00dfff"/><stop offset=".33" stop-color="#38c2f9"/><stop offset=".63" stop-color="#65abf4"/><stop offset=".86" stop-color="#819df1"/><stop offset="1" stop-color="#8b98f0"/></linearGradient><g opacity=".94"><path d="m85.52 1.2-49.2.06a10.28 10.28 0 0 0 -9 5.28l-24.82 44.63a10.29 10.29 0 0 0 0 10l25 44.57a10.29 10.29 0 0 0 9 5.27l49.2-.06a10.3 10.3 0 0 0 9-5.29l24.84-44.62a10.31 10.31 0 0 0 0-10l-25-44.56a10.3 10.3 0 0 0 -9.02-5.28z" fill="url(#a)" stroke="#f2f2f2" stroke-miterlimit="10" stroke-width="2.4"/><g fill="#fff"><path d="m35.73 39.39a1.58 1.58 0 0 1 -1.6-1.56l-.08-6.44a1.59 1.59 0 0 1 1.56-1.61l6.44-.08a1.59 1.59 0 0 1 .05 3.17l-4.86.06.06 4.86a1.59 1.59 0 0 1 -1.57 1.6z"/><path d="m86.64 38.77a1.59 1.59 0 0 1 -1.64-1.57v-4.86l-4.86.06a1.58 1.58 0 1 1 0-3.16l6.44-.08a1.58 1.58 0 0 1 1.6 1.56l.09 6.44a1.59 1.59 0 0 1 -1.63 1.61z"/><path d="m42.74 83.77-6.44.08a1.58 1.58 0 0 1 -1.6-1.57l-.09-6.44a1.59 1.59 0 0 1 3.17 0l.06 4.86 4.86-.06a1.59 1.59 0 1 1 0 3.17z"/><path d="m87.21 83.22-6.45.08a1.59 1.59 0 0 1 0-3.17l4.86-.06-.06-4.85a1.59 1.59 0 1 1 3.17 0l.08 6.44a1.58 1.58 0 0 1 -1.6 1.56z"/><path d="m61.67 77.09a20.59 20.59 0 1 1 20.33-20.84 20.64 20.64 0 0 1 -20.33 20.84zm-.48-38a17.43 17.43 0 1 0 17.65 17.2 17.44 17.44 0 0 0 -17.65-17.21z"/><circle cx="54.99" cy="50.24" r="1.58" transform="matrix(.53 -.85 .85 .53 -16.69 70.49)"/><circle cx="67.67" cy="50.09" r="1.58" transform="matrix(.52710412 -.84980071 .84980071 .52710412 -10.57 81.18)"/><path d="m61.55 67.59a9.41 9.41 0 0 1 -3.71-.7 9.62 9.62 0 0 1 -3-2 9.4 9.4 0 0 1 -2.08-3 1.58 1.58 0 1 1 2.9-1.27 6.38 6.38 0 0 0 3.34 3.38 6.33 6.33 0 0 0 5-.11 6.24 6.24 0 0 0 2-1.38 6.35 6.35 0 0 0 1.34-2 1.58 1.58 0 1 1 2.93 1.2 9.29 9.29 0 0 1 -2 3 9.69 9.69 0 0 1 -3 2.08 9.55 9.55 0 0 1 -3.72.8z"/><path d="m61.6 59.58h-.6a.8.8 0 0 1 -.82-.79l-.06-7.79a.8.8 0 0 1 .8-.81h.56a.82.82 0 0 1 .82.79l.1 7.82a.82.82 0 0 1 -.8.78z"/></g></g></svg>