<svg viewBox="0 0 50.3 42.18" xmlns="http://www.w3.org/2000/svg"><path d="m36 11.61a3.19 3.19 0 0 1 1.12.22 2.08 2.08 0 0 1 .89.67 2.66 2.66 0 0 1 .56.9 2.94 2.94 0 0 1 .22 1.12 2.87 2.87 0 0 1 -.22 1.17 2.8 2.8 0 0 1 -.56.84 2.08 2.08 0 0 1 -.89.67 3.19 3.19 0 0 1 -1.12.22 3 3 0 0 1 -1.17-.22 3.3 3.3 0 0 1 -.95-.67 3 3 0 0 1 -.56-.84 2.87 2.87 0 0 1 -.22-1.17 2.94 2.94 0 0 1 .22-1.12 2.82 2.82 0 0 1 .56-.9 3.3 3.3 0 0 1 .95-.67 3 3 0 0 1 1.17-.22zm12.1 25.88-12-12.39-6.78 6.58-14.53-15.36-12.6 16.13v-30.26h45.91zm-45.91-1.81 12.6-16.26 14.27 15.36 6.78-6.59 11.49 11.62h-45.14zm-2.19-35.68v42.18h50.3v-42.18z" fill="#fff"/></svg>