<svg viewBox="0 0 121.96 112.24" xmlns="http://www.w3.org/2000/svg" xmlns:xlink="http://www.w3.org/1999/xlink"><linearGradient id="a" gradientTransform="matrix(.99998026 .00628314 -.00628314 .99998026 -3.74 17.66)" gradientUnits="userSpaceOnUse" x1="25.37" x2="138.14" y1="-10.75" y2="128.29"><stop offset="0" stop-color="#00dfff"/><stop offset=".33" stop-color="#38c2f9"/><stop offset=".63" stop-color="#65abf4"/><stop offset=".86" stop-color="#819df1"/><stop offset="1" stop-color="#8b98f0"/></linearGradient><path d="m85.93 1.5-49.21-.3a10.3 10.3 0 0 0 -9 5.21l-25.18 44.33a10.3 10.3 0 0 0 -.06 10l24.6 44.62a10.28 10.28 0 0 0 9 5.33l49.21.3a10.3 10.3 0 0 0 9-5.21l25.13-44.28a10.3 10.3 0 0 0 .07-10l-24.6-44.68a10.3 10.3 0 0 0 -8.96-5.32z" fill="url(#a)" stroke="#f2f2f2" stroke-miterlimit="10" stroke-width="2.4"/><g fill="#fff"><path d="m53.76 78.5a5.85 5.85 0 1 0 6 5.82 5.91 5.91 0 0 0 -6-5.82zm0 8.43a2.58 2.58 0 1 1 2.62-2.6 2.61 2.61 0 0 1 -2.58 2.6z"/><path d="m74.68 78.4a5.85 5.85 0 1 0 6 5.81 5.91 5.91 0 0 0 -6-5.81zm0 8.42a2.58 2.58 0 1 1 2.62-2.59 2.61 2.61 0 0 1 -2.58 2.59z"/><path d="m92.18 40.26a3.36 3.36 0 0 0 -2.58-1.19l-51.86.26-1.07-5a3.28 3.28 0 0 0 -2-2.32l-7.27-3.01a1.67 1.67 0 0 0 -2.18.85 1.62 1.62 0 0 0 .87 2.15l7.32 3 8.26 38.29a3.32 3.32 0 0 0 3.27 2.59l39.88-.2a1.64 1.64 0 1 0 0-3.27l-39.88.2-1-4.65 41.17-.21a3.33 3.33 0 0 0 3.25-2.62l4.52-22.13a3.23 3.23 0 0 0 -.7-2.74zm-7.11 24.26-41.85.21-4.77-22.14 51.16-.25z"/></g></svg>