<svg viewBox="0 0 35.43 49.61" xmlns="http://www.w3.org/2000/svg"><path d="m32.44 38.09a9.44 9.44 0 0 0 1.22-4.87 7.62 7.62 0 0 0 -.44-2.66 10.09 10.09 0 0 0 -1.33-2.43 8.67 8.67 0 0 0 -2.21-2.13 11.75 11.75 0 0 0 -3.21-1.44c-.52-.15-1.41-.37-2.66-.66h-.11l-.45-.11-2.32-.67-1.44-.33v-15.15a11.77 11.77 0 0 1 2.1.44 10.33 10.33 0 0 1 3.1 1.33 7.48 7.48 0 0 1 3.31 4.76h4.2a14.68 14.68 0 0 0 -.88-2.43 9.26 9.26 0 0 0 -3.1-3.55 13.5 13.5 0 0 0 -4.74-2.19 26.05 26.05 0 0 0 -2.55-.55l-1.44-.25v-3.43h-3.49v3.43l-1.55.23a13 13 0 0 0 -2.22.44 15 15 0 0 0 -4.54 2 10.36 10.36 0 0 0 -3.15 3.13 8.2 8.2 0 0 0 -1.11 4.43 10.63 10.63 0 0 0 .33 2.55 10.52 10.52 0 0 0 1.24 2.28 10.69 10.69 0 0 0 2.55 2.11 19 19 0 0 0 4.1 1.55c.59.15 1 .26 1.21.33l.89.28a3.29 3.29 0 0 0 .89.16l1.36.31v16.75a21.27 21.27 0 0 1 -2.22-.45 12.5 12.5 0 0 1 -4-1.66 10.1 10.1 0 0 1 -2.87-3.32 8.59 8.59 0 0 1 -.91-2.66h-4a13 13 0 0 0 1.1 3.55 10.35 10.35 0 0 0 3.32 3.87 15 15 0 0 0 5.1 2.33 17.44 17.44 0 0 0 2.88.59l1.55.22v3.66h3.54v-3.7l1.66-.11c.52-.07 1.48-.26 2.88-.55a17.67 17.67 0 0 0 5-2 10.79 10.79 0 0 0 3.41-3.43zm2.44-8.09a11.58 11.58 0 0 1 .55 3.21 11 11 0 0 1 -1.55 5.87 10.87 10.87 0 0 1 -3.88 3.92 18.73 18.73 0 0 1 -5.54 2.33c-.81.15-1.88.29-3.21.44v3.88h-7.08v-3.92c-.14 0-1.18-.22-3.1-.66a14.76 14.76 0 0 1 -5.64-2.55 12.76 12.76 0 0 1 -3.88-4.52 13.94 13.94 0 0 1 -1.55-6.11h7.64a7.63 7.63 0 0 0 .78 3.66 7.59 7.59 0 0 0 2.32 2.54 13 13 0 0 0 3.43 1.55v-13.29l-3-.66a15.36 15.36 0 0 1 -4.54-1.77 12.9 12.9 0 0 1 -3-2.55 7.75 7.75 0 0 1 -1.53-2.88 10 10 0 0 1 -.44-3.1 10.47 10.47 0 0 1 1.34-5.31 11.91 11.91 0 0 1 3.64-3.77 19.11 19.11 0 0 1 5.1-2.21 14.4 14.4 0 0 1 2.43-.45v-3.65h7.09v3.65l2.66.67a17.58 17.58 0 0 1 5.31 2.43 12.26 12.26 0 0 1 3.66 4.1 11.47 11.47 0 0 1 1.33 5.15h-7.64a7.08 7.08 0 0 0 -2.88-5.1 14.75 14.75 0 0 0 -2.44-1.11v11.69l1.33.33c.59.15 1.07.26 1.44.34s.9.2 1.6.38l1.39.39a17.44 17.44 0 0 1 3.65 1.66 10.88 10.88 0 0 1 2.66 2.42 8.83 8.83 0 0 1 1.55 3zm-7.53 6.2a5.3 5.3 0 0 0 .44-2.2 4.71 4.71 0 0 0 -1.1-3.43 6.9 6.9 0 0 0 -2.55-1.57l-2.88-.88v11.88c.44-.07 1-.18 1.55-.33a9.91 9.91 0 0 0 3-1.44 4.22 4.22 0 0 0 1.54-2.02zm.55-6.87a6.29 6.29 0 0 1 1.67 4.67 7.16 7.16 0 0 1 -.57 3 7.33 7.33 0 0 1 -2.21 2.66 11.25 11.25 0 0 1 -3.44 1.66c-.51.15-1.14.3-1.88.45l-2 .11v-16.08l2.21.55c.74.23 1.78.56 3.1 1a9.36 9.36 0 0 1 3.12 1.99zm-13.73-9.62v-10.19c-1.18.37-1.95.63-2.32.78a6.39 6.39 0 0 0 -1.85 1.7 3.74 3.74 0 0 0 -.78 2.55 4.05 4.05 0 0 0 1.44 3.43 10 10 0 0 0 3.51 1.73zm-.33-11.85 2.16-.33v14.47l-2.44-.67a12.56 12.56 0 0 1 -4-2.1 5.91 5.91 0 0 1 -2.1-4.76 5.77 5.77 0 0 1 1.22-3.66 7.31 7.31 0 0 1 2.43-2.1 13.45 13.45 0 0 1 2.73-.85z" fill="#fff"/></svg>