<svg viewBox="0 0 51.9 44.31" xmlns="http://www.w3.org/2000/svg"><path d="m47.6 42.15h-43.3a2.09 2.09 0 0 1 -1.52-.63 2.08 2.08 0 0 1 -.63-1.52v-25.95h47.6v25.95a2.15 2.15 0 0 1 -2.15 2.15zm-45.45-37.85a2.15 2.15 0 0 1 2.15-2.15h10.89a2.08 2.08 0 0 1 1.52.63 2.09 2.09 0 0 1 .63 1.52v3.3h30.26a2.15 2.15 0 0 1 2.15 2.15v2.15h-47.6zm45.45 1.14h-28.11v-1.14a3.62 3.62 0 0 0 -.37-1.64 7.85 7.85 0 0 0 -.89-1.39 4.21 4.21 0 0 0 -1.39-.95 4.29 4.29 0 0 0 -1.65-.32h-10.89a4.21 4.21 0 0 0 -1.64.32 4.11 4.11 0 0 0 -1.39 1 7.33 7.33 0 0 0 -.89 1.34 3.63 3.63 0 0 0 -.38 1.64v35.7a3.7 3.7 0 0 0 .38 1.65 7.66 7.66 0 0 0 .89 1.35 4.26 4.26 0 0 0 1.39 1 4.21 4.21 0 0 0 1.64.32h43.3a4.21 4.21 0 0 0 1.64-.32 4.4 4.4 0 0 0 1.4-1 8.19 8.19 0 0 0 .88-1.39 3.57 3.57 0 0 0 .38-1.61v-30.25a4 4 0 0 0 -.38-1.75 4.66 4.66 0 0 0 -.88-1.33 4.4 4.4 0 0 0 -1.4-1 4.21 4.21 0 0 0 -1.64-.23z" fill="#fff"/></svg>