<svg enable-background="new 0 0 109 25" height="25" viewBox="0 0 109 25" width="109" xmlns="http://www.w3.org/2000/svg" xmlns:xlink="http://www.w3.org/1999/xlink"><defs><path id="a" d="m4.305 10.824c.101 1.915 1.539 3.047 1.539 3.047 2.318 2.26 7.93 5.115 9.234 5.764.018.006.085.029.125-.02 0 0 .054-.043.026-.113h.001c-3.572-7.812-8.457-13.733-8.457-13.733s-2.657 2.526-2.468 5.055"/><clipPath id="b"><use xlink:href="#a"/></clipPath><clipPath id="c"><use xlink:href="#d"/></clipPath><path id="d" d="m4.874 21.787c1.013 1.809 2.719 3.211 4.497 2.781 1.226-.307 4.004-2.248 4.921-2.902l-.002-.002c.07-.064.045-.117.045-.117-.023-.084-.12-.084-.12-.084v-.004z"/></defs><g fill="#262729"><path d="m45.914 13.947h-5.293v-4.661h-2.344v11.554h2.344v-4.694h5.293v4.694h2.343v-11.554h-2.343z"/><path d="m59.118 15.896c0 1.879-.933 2.883-2.627 2.883-1.703 0-2.641-1.031-2.641-2.961v-6.525h-2.344v6.604c0 3.252 1.806 5.115 4.955 5.115 3.177 0 5-1.9 5-5.209v-6.517h-2.343z"/><path d="m86.207 17.23-2.625-7.945h-1.912l-2.623 7.945-2.552-7.938h-2.493l4.025 11.548h1.942l2.627-7.588 2.625 7.588h1.958l4.014-11.548h-2.429z"/><path d="m95.396 15.867h4.263v-2.103h-4.263v-2.366h6.189v-2.105h-8.5v11.539h8.723v-2.105h-6.412z"/><path d="m104.604 9.286h2.312v11.539h-2.312z"/><path d="m71.381 18.428 1.037 2.404h2.456l-5.04-11.479-.047-.066h-2.049l-5.089 11.546h2.392l.982-2.236.071-.168h5.287zm-2.65-6.218 1.67 3.866h-.005l.113.268h-3.544l.112-.268h-.005z"/></g><g fill="#cf0a2c"><use xlink:href="#a"/><path clip-path="url(#b)" d="m4.114 5.772h11.137v13.894h-11.137z"/><use xlink:href="#d"/><path clip-path="url(#c)" d="m4.88 21.467h9.492v3.533h-9.492z"/><path d="m14.476 20.707c.045-.072-.035-.139-.035-.139l.001-.002c-4.103-2.77-12.056-7.023-12.056-7.023-.723 2.238.251 4.045.251 4.045 1.013 2.145 2.948 2.795 2.948 2.795.894.367 1.787.393 1.787.393.14.025 5.556.002 7.007-.004.063-.002.097-.065.097-.065"/><path d="m15.096 1.73c-.407.036-1.504.286-1.504.286-2.473.639-3.057 2.887-3.057 2.887-.452 1.414.011 2.967.011 2.967.826 3.667 4.888 9.693 5.761 10.957.061.064.11.041.11.041.094-.027.087-.117.087-.117l.001.002c1.346-13.456-1.409-17.023-1.409-17.023"/><path d="m18.189 18.865c.089.035.136-.053.136-.053.896-1.297 4.935-7.291 5.756-10.943 0 0 .447-1.769.016-2.967 0 0-.611-2.282-3.087-2.885 0 0-.714-.18-1.471-.287 0 0-2.769 3.568-1.423 17.031h.002c.01.085.071.104.071.104"/><path d="m20.4 21.471s-.082.01-.104.07c0 0-.02.084.036.125l-.001.002c.895.643 3.605 2.539 4.913 2.908 0 0 2.414.826 4.511-2.785l-9.355-.324z"/><path d="m32.241 13.523s-7.94 4.266-12.046 7.039h.001s-.074.049-.047.135c0 0 .038.072.096.072 1.469.004 7.034.01 7.174-.018 0 0 .719-.027 1.609-.369 0 0 1.979-.631 3.006-2.881-.001.001.916-1.835.207-3.978"/><path d="m19.444 19.615s.065.047.126.006v.002c1.338-.666 6.906-3.502 9.213-5.752 0 0 1.46-1.175 1.536-3.06.169-2.618-2.463-5.042-2.463-5.042s-4.872 5.903-8.441 13.696h.002c.001 0-.04.09.027.15"/></g></svg>