<svg viewBox="0 0 63.49 53.13" xmlns="http://www.w3.org/2000/svg"><g fill="#5ec5de"><path d="m26.09 47.83-10.35-5.69-3.87 1.13a3.4 3.4 0 0 1 -4.19-2.27l-7.55-26a3.38 3.38 0 0 1 2.31-4.18l36.76-10.68a3.29 3.29 0 0 1 2.57.28 3.34 3.34 0 0 1 1.62 2l7.55 26a3.4 3.4 0 0 1 -2.31 4.19l-24.87 7.2zm-10.09-8.11 6.4 3.51-1.44-5 27-7.86a1.11 1.11 0 0 0 .81-1.37l-7.54-25.93a1.18 1.18 0 0 0 -.54-.68 1.17 1.17 0 0 0 -.86-.09l-36.77 10.7a1.12 1.12 0 0 0 -.76 1.39l7.54 26a1.16 1.16 0 0 0 .54.67 1.12 1.12 0 0 0 .86.09z"/><path d="m51.09 53.13-1.93-6.63-14.06 4.08a3.36 3.36 0 0 1 -4.18-2.3l-2.2-7.57 2.16-.63 2.2 7.57a1.14 1.14 0 0 0 .54.68 1.16 1.16 0 0 0 .86.09l16.22-4.71 1.21 4.18 3.8-5.64 4.72-1.37a1.14 1.14 0 0 0 .77-1.4l-5.35-18.38a1.13 1.13 0 0 0 -1.4-.77l-3.24.94-.63-2.16 3.25-.94a3.36 3.36 0 0 1 4.17 2.3l5.35 18.38a3.38 3.38 0 0 1 -2.29 4.15l-3.94 1.14z"/><path d="m11.39 18.41h27.03v2.25h-27.03z" transform="matrix(.96019624 -.27932629 .27932629 .96019624 -4.47 7.74)"/><path d="m17.15 22.74h18.02v2.25h-18.02z" transform="matrix(.96019624 -.27932629 .27932629 .96019624 -5.62 8.26)"/></g></svg>