<svg viewBox="0 0 60.07 73.75" xmlns="http://www.w3.org/2000/svg"><path d="m43.35.08-36.42 10.77a2 2 0 0 0 -1.38 2.54l5.38 18.21 5 16.8-7.45 2.19a11.82 11.82 0 1 0 14.68 8l-7.73-26.19 32.5-9.6 4.38 14.84-7.41 2.19a11.82 11.82 0 1 0 14.68 8l-8.31-28.15-5.38-18.21a2 2 0 0 0 -2.54-1.39zm-29.35 69.26a7.73 7.73 0 1 1 -4.36-14.83l7.41-2.19 2.19 7.41a7.74 7.74 0 0 1 -5.24 9.61zm-4-55.15 32.49-9.6 4.23 14.29-32.5 9.6zm40.44 44.39a7.73 7.73 0 1 1 -4.38-14.83l7.41-2.19 2.19 7.44a7.74 7.74 0 0 1 -5.22 9.58z" fill="#5ec5de"/></svg>