<svg enable-background="new 0 0 74 62.4" height="62.4" viewBox="0 0 74 62.4" width="74" xmlns="http://www.w3.org/2000/svg"><path d="m0 62.3c-.1-.3 1.5-1.6 4.9-4.1 3.3-2.5 7-5.2 11-8.1s7.8-5.7 11.2-8.3 5.2-4 5.3-4.5c.1-.4-.6-1.4-1.8-3.1-1.3-1.7-2.7-3.6-4.2-5.7-1.5-2-2.9-4-4.1-5.8s-1.8-3.1-1.6-3.9c.2-.7 3-2.1 8.6-4.3 5.5-2.2 11.6-4.4 18.2-6.6s12.6-4.2 18.1-5.9 8.3-2.4 8.4-2.1c.1.3-1.6 1.7-4.9 4.2s-7 5.2-11.1 8.2-7.8 5.7-11.2 8.2-5.1 3.9-5.2 4.3c0 .3.6 1.3 1.9 3s2.7 3.6 4.3 5.6c1.5 2.1 2.9 4 4.1 5.9s1.7 3.2 1.4 3.9-3.2 2.1-8.7 4.3-11.6 4.4-18.1 6.6-12.6 4.2-18 5.9-8.3 2.6-8.5 2.3z" fill="#fff"/></svg>