<svg viewBox="0 0 162.96 325.81" xmlns="http://www.w3.org/2000/svg" xmlns:xlink="http://www.w3.org/1999/xlink"><linearGradient id="a" gradientTransform="matrix(.99999903 -.00139626 .00139626 .99999903 -42.44 -1999.43)" gradientUnits="userSpaceOnUse" x1="46.3" x2="252.2" y1="2021.36" y2="2399.98"><stop offset="0" stop-color="#00dfff"/><stop offset=".33" stop-color="#38c2f9"/><stop offset=".63" stop-color="#65abf4"/><stop offset=".86" stop-color="#819df1"/><stop offset="1" stop-color="#8b98f0"/></linearGradient><path d="m59.59 7.59h-40.93c-6.51.06-11.89 5.2-11.88 11.41l.39 280.64a5.34 5.34 0 0 0 5.48 5.21l137.54-.2a5.33 5.33 0 0 0 5.46-5.22l-.39-280.63a11.63 11.63 0 0 0 -11.83-11.33l-42.43.06c-2.43.44-3.21 3.65-3.21 3.65-1 4.26-2.42 6.44-5.9 6.53h-23.11c-4.09-1.73-4.52-3.64-5.4-6.51a5.23 5.23 0 0 0 -3.82-3.64" fill="url(#a)"/><path d="m59.59 7.59h-40.93a11.65 11.65 0 0 0 -11.88 11.41l.39 280.64a5.34 5.34 0 0 0 5.48 5.21l137.54-.2a5.33 5.33 0 0 0 5.46-5.22l-.39-280.63a11.63 11.63 0 0 0 -11.83-11.33l-41.53.06c-2.43.44-3.21 3.65-3.21 3.65q-1.56 6.39-6.77 6.53h-23.11c-4.09-1.73-4.52-3.64-5.4-6.51a5.23 5.23 0 0 0 -3.82-3.61zm-59.19 298.7-.4-286.54c0-10.75 9.1-19.57 20.39-19.58l121.73-.17c11.29 0 20.43 8.75 20.44 19.52l.4 286.55c0 10.77-9.1 19.56-20.39 19.57l-121.73.17c-11.29.02-20.43-8.66-20.44-19.52z" fill="#fff"/><path d="m64.44 314.63a6.11 6.11 0 0 1 6.08-6.09h23.89a6.09 6.09 0 0 1 6.09 6.07 6.09 6.09 0 0 1 -6.07 6.09h-23.9a6.16 6.16 0 0 1 -6.09-6.07z" fill="#ebebeb"/><g fill="#b3b3b3"><circle cx="87.52" cy="12.19" r="2.09"/><circle cx="74.24" cy="12.21" r="2.09"/></g></svg>