<svg viewBox="0 0 401.41 484.26" xmlns="http://www.w3.org/2000/svg" xmlns:xlink="http://www.w3.org/1999/xlink"><linearGradient id="a" gradientTransform="matrix(.9999744 -.00715579 .00715579 .9999744 -3.39 -8.98)" gradientUnits="userSpaceOnUse" x1="22.48" x2="372.14" y1="63.96" y2="366.84"><stop offset="0" stop-color="#7affc2"/><stop offset=".65" stop-color="#39c4fc"/></linearGradient><linearGradient id="b" gradientTransform="matrix(.9999744 -.00715579 .00715579 .9999744 -3.39 -8.98)" gradientUnits="userSpaceOnUse" x1="30.67" x2="365.34" y1="72.83" y2="362.73"><stop offset="0" stop-color="#5fc697"/><stop offset=".65" stop-color="#2b96c0"/></linearGradient><path d="m203 479.47c-201.78-71.68-199.88-231.87-198.19-373.37.1-8.49.2-16.73.26-24.79 78.51-3.88 141.14-28.13 194.57-75.31 54.1 46.45 117.08 69.8 195.64 72.55.17 8.07.39 16.29.61 24.78 3.71 141.44 7.89 301.59-192.89 376.14z" fill="none" stroke="url(#a)" stroke-linecap="round" stroke-miterlimit="10" stroke-width="9"/><path d="m203.48 475.14c-197.72-70.23-195.85-227.14-194.2-365.83.1-8.32.2-16.38.25-24.29 76.93-3.8 138.29-27.55 190.64-73.81 53 45.51 114.71 68.39 191.69 71.08.16 7.9.37 16 .59 24.28 3.63 138.61 7.73 295.52-188.97 368.57z" fill="url(#b)" opacity=".39"/></svg>