<svg viewBox="0 0 56.38 50.65" xmlns="http://www.w3.org/2000/svg"><g fill="#5ec5de"><path d="m3.9 38.78 3.57-7.13c-4.76-3.43-7.47-8.35-7.47-13.65 0-9.92 9.6-18 21.41-18 10.24 0 19.07 6.14 21 14.59l.33 1.48-1.5-.19a24.51 24.51 0 0 0 -2.89-.2c-10.63 0-19.28 7.13-19.28 15.9a13.3 13.3 0 0 0 .34 3l.35 1.42-1.5-.19a22.59 22.59 0 0 1 -4.77-1.14zm17.51-36.66c-10.64 0-19.29 7.13-19.29 15.88 0 4.84 2.66 9.36 7.29 12.4l.79.52-1.81 3.63 5-2.15.39.14a24.33 24.33 0 0 0 3.27.93 15.26 15.26 0 0 1 -.05-1.89c0-9.93 9.61-18 21.41-18 .51 0 1 0 1.57.06-2.39-6.76-9.92-11.52-18.57-11.52zm6.78 12.72a3.61 3.61 0 1 1 3.6-3.61 3.61 3.61 0 0 1 -3.6 3.61zm0-5.09a1.49 1.49 0 1 0 1.48 1.48 1.48 1.48 0 0 0 -1.48-1.48zm-13.57 5.09a3.61 3.61 0 1 1 3.61-3.61 3.61 3.61 0 0 1 -3.61 3.61zm0-5.09a1.49 1.49 0 1 0 1.49 1.48 1.49 1.49 0 0 0 -1.49-1.48z"/><path d="m54.17 50.65-11.49-4.93a20.9 20.9 0 0 1 -4.32.48c-9.93 0-18-6.56-18-14.62s8.07-14.58 18-14.58 18 6.56 18 14.63c0 4.24-2.27 8.21-6.25 11zm-11.28-7.14 6.79 2.91-2.29-4.59.81-.51c3.85-2.41 6.06-6 6.06-9.74 0-6.9-7.13-12.51-15.9-12.51s-15.89 5.61-15.89 12.51 7.13 12.5 15.89 12.5a19.58 19.58 0 0 0 4.2-.5zm.56-11.72a3.61 3.61 0 1 1 3.6-3.6 3.61 3.61 0 0 1 -3.6 3.6zm0-5.09a1.49 1.49 0 1 0 1.48 1.49 1.49 1.49 0 0 0 -1.48-1.49zm-10.18 5.09a3.61 3.61 0 1 1 3.61-3.6 3.61 3.61 0 0 1 -3.61 3.6zm0-5.09a1.49 1.49 0 1 0 1.49 1.49 1.49 1.49 0 0 0 -1.49-1.49z"/></g></svg>