<svg viewBox="0 0 326.89 188.74" xmlns="http://www.w3.org/2000/svg" xmlns:xlink="http://www.w3.org/1999/xlink"><linearGradient id="a" gradientUnits="userSpaceOnUse" x1="163.45" x2="163.45" y1="185.02" y2="-30.37"><stop offset="0" stop-color="#1ed6fe"/><stop offset="1"/></linearGradient><linearGradient id="b" gradientUnits="userSpaceOnUse" x1="163.45" x2="163.45" y1="182.87" y2="-20.45"><stop offset="0" stop-color="#fff"/><stop offset="1"/></linearGradient><path d="m279 27.64c63.83 36.85 63.83 96.61 0 133.46s-167.3 36.9-231.13 0-63.87-96.61 0-133.46 167.32-36.85 231.13 0z" fill="url(#a)" opacity=".14"/><path d="m279 27.64c-63.81-36.85-167.3-36.85-231.13 0s-63.83 96.61 0 133.46 167.32 36.9 231.13 0 63.85-96.61 0-133.46zm-1.19 132.76c-63.16 36.47-165.56 36.47-228.72 0s-63.17-95.59 0-132.06 165.57-36.47 228.73 0 63.18 95.59-.01 132.06z" fill="url(#b)" opacity=".14"/></svg>